<?xml version="1.0" encoding="UTF-8"?><svg id="b" xmlns="http://www.w3.org/2000/svg" xmlns:xlink="http://www.w3.org/1999/xlink" viewBox="0 0 39.586 47.324"><defs><style>.p{fill:url(#e);}.p,.q,.r,.s,.t,.u,.v,.w,.x,.y,.z{stroke-width:0px;}.q{fill:url(#f);}.r{fill:url(#j);}.s{fill:url(#i);}.t{fill:url(#h);}.u{fill:url(#m);}.v{fill:url(#g);}.w{fill:url(#o);}.x{fill:url(#k);}.y{fill:url(#n);}.z{fill:url(#l);}</style><linearGradient id="e" x1="8.703" y1="1.074" x2="10.625" y2="15.779" gradientUnits="userSpaceOnUse"><stop offset="0" stop-color="#ececeb"/><stop offset=".333" stop-color="#d9d7d7"/><stop offset=".693" stop-color="#cac8c8"/><stop offset=".984" stop-color="#c6c3c3"/></linearGradient><linearGradient id="f" x1="7.621" y1="8.887" x2="8.589" y2="16.292" xlink:href="#e"/><linearGradient id="g" x1="30.242" y1="9.666" x2="39.588" y2="49.075" gradientUnits="userSpaceOnUse"><stop offset="0" stop-color="#9e9d9e"/><stop offset=".103" stop-color="#99999a"/><stop offset=".594" stop-color="#8b8a8b"/><stop offset="1" stop-color="#868687"/></linearGradient><linearGradient id="h" x1="2.781" y1="15.594" x2="34.377" y2="45.778" xlink:href="#e"/><linearGradient id="i" x1=".121" y1="18.63" x2="30.466" y2="16.858" gradientUnits="userSpaceOnUse"><stop offset="0" stop-color="#fff"/><stop offset="1" stop-color="#e8e6e6"/></linearGradient><linearGradient id="j" x1=".245" y1="22.715" x2="30.5" y2="20.948" xlink:href="#i"/><linearGradient id="k" x1=".358" y1="26.598" x2="30.54" y2="24.835" xlink:href="#i"/><linearGradient id="l" x1=".578" y1="30.352" x2="30.562" y2="28.601" xlink:href="#i"/><linearGradient id="m" x1=".759" y1="33.97" x2="30.581" y2="32.228" xlink:href="#i"/><linearGradient id="n" x1=".883" y1="37.983" x2="30.625" y2="36.246" xlink:href="#i"/><linearGradient id="o" x1="15.378" y1="48.382" x2="12.461" y2="43.341" gradientUnits="userSpaceOnUse"><stop offset="0" stop-color="#bbbbba"/><stop offset=".099" stop-color="#b2b2b1"/><stop offset=".435" stop-color="#99999a"/><stop offset=".745" stop-color="#8b8b8b"/><stop offset="1" stop-color="#868687"/></linearGradient></defs><g id="c"><g id="d"><path class="p" d="M9.228,15.744V.208l.727-.208v15.485l-.727.26Z"/><path class="q" d="M7.705,16.298v-7.768l.727-.208v7.716l-.727.26Z"/><polygon class="v" points="39.586 46.703 39.586 11.911 29.974 7.848 30.346 47.262 39.586 46.703"/><polygon class="t" points="30.346 47.262 29.974 7.848 0 18.904 .663 47.295 30.346 47.262"/><polygon class="s" points="26.492 13.149 1.476 21.084 1.509 22.491 26.533 15.371 26.492 13.149"/><polygon class="r" points="26.58 17.962 1.555 24.445 1.588 25.852 26.62 20.184 26.58 17.962"/><polygon class="x" points="26.661 22.398 1.633 27.779 1.666 29.186 26.701 24.62 26.661 22.398"/><polygon class="z" points="26.739 26.7 1.814 30.995 1.847 32.402 26.779 28.923 26.739 26.7"/><polygon class="u" points="26.817 30.995 1.95 33.944 1.983 35.351 26.858 33.218 26.817 30.995"/><polygon class="y" points="26.891 35.351 2.026 37.179 2.059 38.586 26.931 37.574 26.891 35.351"/><polygon class="w" points="17.567 43.266 9.591 43.616 9.593 47.285 17.613 47.324 17.567 43.266"/></g></g></svg>