<?xml version="1.0" encoding="UTF-8"?><svg id="b" xmlns="http://www.w3.org/2000/svg" viewBox="0 0 64.592 49.241"><defs><style>.e{fill:#fff;}.f{fill:#767777;}</style></defs><g id="c"><g id="d"><g><path class="f" d="M64.417,42.272c-.992-3.407-6.295-19.927-7.362-23.35-1.066-3.422-6.062-5.361-8.462-6.158C43.21,11.399,8.094,.976,5.066,.141,2.86-.47-.831,.894,.168,4.51c2.11,6.352,8.129,25.303,8.634,26.617,.996,2.596,1.98,4.26,8.486,6.606,2.334,.841,27.839,8.548,38.808,11.272,4.881,1.212,9.456-2.421,8.321-6.733Z"/><path class="e" d="M49.13,42.4L13.231,31.403c-1.551-.79-2.542-2.229-3.243-4.063L4.41,9.871c-.626-2.199,2.222-3.788,4.377-3.154l34.043,9.842c2.259,.842,4.235,2.259,4.891,4.034l5.823,19.37c.664,2.535-2.721,3.288-4.414,2.438Z"/></g></g></g></svg>