<?xml version="1.0" encoding="UTF-8"?><svg id="b" xmlns="http://www.w3.org/2000/svg" viewBox="0 0 90.268 66.455"><defs><style>.e{fill:#2fbceb;}.e,.f{stroke-width:0px;}.f{fill:#fff;}</style></defs><g id="c"><g id="d"><path class="f" d="M89.827,19.984c-.656-.637-1.715-1.535-3.194-2.428-.034-.542-.347-1.047-.861-1.303-1.181-.587-2.637-1.117-4.034-1.603-.962-.334-1.94-.598-2.906-.784-.855-.165-1.71-.272-2.562-.321.568-.372,1.111-.664,1.623-.871.555-.225,1.152-.421,1.826-.6.468-.124.841-.456,1.029-.886.625-.098,1.453-.175,2.435-.142,1.08.036,1.851-.657,1.994-.866.928-1.352.424-2.54.319-3.06-.127-.626-1.09-1.05-1.707-1.169-.055-.011-.112-.018-.169-.023-.189-.016-1.773-.129-3.781.206-.224-.227-.508-.38-.816-.439-.22-.042-.451-.038-.678.019-1.019.257-1.993.572-2.894.938-2.467,1-4.988,2.852-7.507,5.513-.177-.051-.35-.096-.517-.132l-.106-.022c-.776-.15-1.66-.108-2.538.107-.146-4.961-2.943-9.35-7.393-11.214-.736-.308-1.504-.541-2.284-.691-5.842-1.128-11.882,2.35-14.361,8.269-.143.341-.273.69-.39,1.043-4.985-.645-9.848-.655-14.218-.029-1.53-4.55-5.389-7.97-10.177-8.894C8.694-.802,1.642,3.968.24,11.234c-1.002,5.19,1.193,10.486,5.417,13.49-1.479,2.65-1.205,6.767.914,10.071.578.901,1.468,1.619,2.61,2.113-.106,4.651-.182,8.607-.187,8.897-.341,8.65,9.96,16.962,24.505,19.769,2.342.452,4.697.741,7.006.861,3.091.081,6.823-.089,8.876-.533,3.879-.839,7.273-1.82,10.543-4.093,1.79-1.434,2.991-3.118,3.573-5.01,2.048-5.412,8.64-22.897,8.859-24.342.318-2.133-.074-4.318-1.166-6.504.225-.54.379-1.114.463-1.732,1.181-1.023,2.074-2.821,2.317-4.293,1.012-.103,2.012-.047,3.118.167.784.151,1.606.378,2.514.694,1.033.359,2.058.789,3.045,1.279.129.064.263.109.399.135.304.059.616.022.898-.096,1.234.759,2.081,1.538,2.339,1.788.223.216.499.355.791.412.335.065.993.24,1.748-.213.541-.325,1.299-1.402,1.393-2.059.097-.681.104-1.572-.389-2.051Z"/><path class="e" d="M27.686,34.754c-.865-.438-1.603-.872-1.679-.912.029.07.56,1.105.587,1.176.047-.032.539-.213,1.091-.264Z"/><path class="e" d="M19.029,29.826c.354-.453.865-.286,1.17-.227-.595-.318-1.447-.953-1.767-1.373.236.474.44,1.006.597,1.6Z"/><path class="e" d="M82.645,8.397c-.006-.449.183-.742.599-.959-.097-.008-1.843-.143-3.95.292-.305.266-.481.614-.383,1.132.06.317.344.759.69.854,1.864-.399,3.491-.267,3.477-.28-.373-.359-.427-.552-.433-1.039Z"/><path class="f" d="M59.277,29.089c-1.347-.515-4.276-.319-4.962,1.339,2.56.017,3.618.863,5.038,1.02,3.058.338,5.012-.312,5.681-.951s1.043-1.495,1.199-2.211c-1.418,1.017-2.89,1.22-3.819,1.326-.443.051-2.348-.221-3.136-.524Z"/><path class="f" d="M49.941,37.184c-.988-.388-1.511-1.104-2.765-1.938-2.5-1.74-3.887-1.954-5.47-.528,1.586.659,3.24,1.771,3.914,2.501.839.909,1.846,1.758,3.875,2.058.907.11,3.986.141,4.336-1.098-1.238.23-2.763-.554-3.888-.995Z"/><path class="e" d="M37.118,40.261c1.268.697,2.462,1.037,4.97,1.23,2.398.185,3.958.073,5.507-1.486-1.426-.437-2.485-.647-3.752-1.841-.564-.532-1.048-1.4-2.55-2.352-2.986-1.893-7.57-2.488-9.354.773,2.042.943,4.043,3.051,5.179,3.675Z"/><path class="e" d="M26.356,37.721c-.771-1.558-1.479-2.991-2.657-5.041-.322-.561-2.402-3.317-4.412-1.652.372,2.019.157,3.871.163,4.308.017,1.193.591,2.38,1.532,3.482,2.022,2.318,5.522,2.707,7.803,1.871-1.245-.855-1.796-1.768-2.429-2.969Z"/><path class="e" d="M13.692,30.119c-.166-1.975-.698-3.008-1.419-4.478-.618-.989-1.7-.997-2.485-.647-2.39,1.064-2.315,3.348-2.268,4.465.103,2.419,1.321,5.27,6.51,5.34-.342-1.679-.178-2.771-.339-4.68Z"/><path class="e" d="M54.919,31.855c-2.217-1.242-7.105-.201-7.92,1.622,1.204.596,2.454,1.266,3.516,2.111,1.249.994,2.461,1.439,4.39,1.388.889,0,3.13-.243,4.105-.819,1.141-.675,2.895-2.199,3.077-3.531-2.523.387-4.48.376-7.168-.77Z"/><path class="f" d="M34.256,39.505c-1.974-.788-2.394-1.661-3.194-2.2-.726-.457-1.796-2.767-3.959-1.284.347.576.999,1.677,1.228,2.048.533.867,1.138,1.978,2.498,2.526,2.623.969,4.271,1.403,5.914.679-.986-.869-1.717-1.462-2.486-1.769Z"/><path class="f" d="M14.191,27.29c.864,1.96.854,3.96.863,4.607.02,1.403-.039,2.374.824,3.818.491.784,1.806,1.634,2.802,1.622-.637-2.682-.331-4.178-.502-6.383-.41-2.32-1.7-4.686-3.987-3.664Z"/><path class="e" d="M69.159,22.797c.245-2.673-4.589-3.684-5.353-1.574-.67-1.042-2.542-4.472.938-6.253,1.416-.725,3.719-.823,4.93.406-1.069.734-1.115,1.911-.758,2.636.337.683,1.101,1.57,2.62,1.456.377,1.218-1.084,2.89-2.378,3.33Z"/><path class="e" d="M87.509,21.443c.278-.258.599-.453.983-.384-.686-.665-1.883-1.675-3.644-2.631-.335.015-.816.147-1.064.555-.239.393-.182.898-.014,1.313,1.595.861,2.784,1.877,3.354,2.429-.084-.571.088-1.007.384-1.281Z"/><path class="e" d="M66.703,21.181c-.674-.147-1.985-.121-2.213.583-1.251,3.648-5.314.943-7.021,5.956,1.208-.57,3.545.754,4.662.602,1.532-.208,4.201-1.229,4.985-2.433.979-1.099,1.193-1.888,1.253-2.636.095-1.129-.727-1.865-1.666-2.071Z"/><path class="e" d="M72.563,14.248c1.482-1.487,2.571-2.292,4.495-3.071.668-.271,1.345-.485,2.012-.662-.403-.249-.797-.631-1.01-1.23-.296-.83.037-1.578.419-2.103-.883.222-1.789.506-2.688.87-3.13,1.269-5.673,3.681-7.46,5.679.81.166,1.605.519,2.006,1.139.906-.594,2.225-.622,2.225-.622Z"/><path class="e" d="M70.739,15.64c-1.887.72-1.081,3.334,1.429,2.912,2.058-.453,4.31-.467,7.702.713,1.188.413,2.26.876,3.227,1.356-.77-.976-.681-1.707-.11-2.472.291-.39,1.205-.682,1.842-.543-1.098-.546-2.506-1.059-3.852-1.526-3.809-1.323-7.457-1.409-10.238-.44Z"/><ellipse class="e" cx="46.676" cy="63.739" rx="1.77" ry="1.427" transform="translate(-6.57 5.376) rotate(-6.16)"/><path class="e" d="M69.185,25.932c-.328.55-.782,1.084-1.404,1.622.054,1.492-.857,3.741-2.982,4.637-.495,1.289-1.414,2.431-2.677,3.406-.624.664-1.326,1.083-1.984,1.472-.539.319-1.352.554-2.173.722-.842.304-1.743.569-2.696.791-.959,1.973-4.318,2.221-6.144,1.861-2.302,3.415-6.919,2.518-10.904,1.251-2.388,1.692-5.989.707-7.495.065-2.036.639-4.548.799-6.202.438-2.77-.605-4.543-1.118-5.541-3.732-1.93.058-3.982-.946-4.627-2.449-1.187.123-2.583.074-3.832-.258-.124,5.343-.213,10.046-.213,10.046-.314,7.644,9.129,15.464,23.239,18.188,2.459.475,4.873.754,7.191.854-1.795-1.167-3.08-2.844-3.52-4.875-1.046-4.836,3.086-9.834,9.229-11.164,2.331-.504,4.617-.407,6.613.171-.604.217-1.057.558-1.231,1.047-.766,2.153,1.09,5.762,3.61,5.853,1.375.05,2.656-1.096,3.423-2.43.27.536.474,1.107.605,1.709.412,1.904.019,3.832-.981,5.552,1.63-1.249,2.769-2.749,3.284-4.462,0,0,8.582-22.674,8.793-24.068.307-2.062-.195-4.18-1.379-6.247ZM36.499,49.205c-.178-.013-.345-.069-.499-.159.635-.104,1.142-.877,1.166-1.83.026-1.035-.53-1.889-1.241-1.907-.173-.004-.339.042-.491.128.337-.605.86-.981,1.419-.939.892.067,1.537,1.174,1.44,2.474-.097,1.3-.9,2.299-1.792,2.232ZM60.026,47.151c-.169-.028-.317-.118-.442-.253.325-.139.648-.558.808-1.1.216-.73.055-1.404-.359-1.506-.214-.052-.452.06-.664.279.268-.714.776-1.178,1.271-1.095.615.103.976,1.009.806,2.024-.169,1.015-.805,1.755-1.42,1.652Z"/><path class="e" d="M62.788,14.663c.912-5.216-1.551-10.398-6.249-12.366-5.533-2.317-12.069.7-14.599,6.74-.301.719-.529,1.448-.693,2.179-6.001-.913-11.693-.864-16.49-.003-.978-4.494-4.538-8.198-9.34-9.125C8.987.847,2.769,5.053,1.528,11.482c-1.023,5.298,1.656,10.447,6.227,12.792.26-.201.548-.369.867-.493.56-.218,1.6-.359,2.603-.147.958.203,2.231.79,2.683,2.281,1.176-.609,2.541-.247,3.616.947-.568-.998-.938-2.009-1.078-3.016-.401-.007-.806-.047-1.213-.125-3.813-.736-6.307-4.423-5.571-8.236.736-3.813,4.423-6.307,8.236-5.571,2.793.539,4.876,2.662,5.503,5.258,4.982-1.867,12.114-2.298,19.73-.828.587.113,1.166.236,1.738.368.035-.871.224-1.759.585-2.622,1.5-3.581,5.376-5.371,8.657-3.997,3.281,1.374,4.725,5.391,3.225,8.973-.295.705-.683,1.339-1.14,1.894,2.114,1.184,3.926,2.499,5.361,3.886.73-.225,1.268-.476,1.379-.977-1.926-2.038-1.97-5.485-.149-7.206ZM3.405,15.539c-.553-.022-1.079-.63-1.124-1.465-.046-.835.503-1.797,1.232-1.758.471.025,1.002.681,1.048,1.516s-.333,1.74-1.156,1.708ZM5.301,9.13c-.23.804-.906,1.358-1.453,1.271-.546-.086-.813-.948-.583-1.752.23-.804,1.286-1.388,1.74-1.259.454.13.526.936.296,1.74ZM60.745,7.885c-.264.205-.875-.136-1.075-.607-.2-.471-.323-1.06-.037-1.234s.677.268.984.776c.307.508.3.929.127,1.064ZM60.928,10.877c-.088-.429-.005-1.109.32-1.192s.661.391.809.966c.148.575.051,1.032-.273,1.116-.324.083-.767-.461-.855-.89Z"/></g></g></svg>