<?xml version="1.0" encoding="UTF-8"?><svg id="b" xmlns="http://www.w3.org/2000/svg" viewBox="0 0 105.455 106.747"><defs><style>.e{fill:#c6181e;}.e,.f{stroke-width:0px;}.f{fill:#fff;}</style></defs><g id="c"><g id="d"><path class="f" d="M30.184,106.747c-.49,0-.97-.133-1.39-.385-.612-.364-1.052-.953-1.229-1.654s-.07-1.428.3-2.049c1.353-2.269,3.008-4.404,4.941-6.378-.403-.136-.802-.276-1.196-.421-1.714,1.408-3.221,2.947-4.488,4.586-.517.667-1.296,1.049-2.138,1.049-.596,0-1.183-.2-1.653-.564-1.179-.912-1.396-2.612-.484-3.791,1.003-1.298,2.121-2.536,3.341-3.702-.347-.186-.688-.375-1.023-.568-.644.524-1.247,1.06-1.801,1.601-.503.495-1.175.77-1.888.77-.724,0-1.429-.297-1.934-.815-.502-.513-.776-1.194-.768-1.917.008-.722.297-1.398.814-1.903.314-.307.636-.609.965-.906-5.068-4.161-8.206-9.419-8.917-15.03-.063-.568-1.381-12.578-1.679-16.896-4.899-6.96-14.543-23.528-7.426-37.854l.407-.82.878-.257c2.495-.731,4.961-1.102,7.33-1.102,3.429,0,6.799.758,10.279,2.316.005-.014.009-.028.014-.043.677-2.079,1.525-4.229,3.134-5.872,1.646-1.681,3.873-2.595,6.81-2.796.208-.014.421-.021.64-.021,4.119,0,9.665,2.54,13.882,4.632l.026-.057C49.807,7.605,55.222,2.644,62.98.268l.875-.268.791.461c7.474,4.354,11.533,10.791,12.772,20.254,2.109-.264,3.922-.393,5.5-.393,2.242,0,4.016.256,5.422.783,6.309,2.363,6.945,6.995,7.047,11.151.104,4.246-2.856,11.724-7.337,15.11,1.946,2.814,2.797,5.471,2.921,9.08.013.372.045,1.3-.652,8.329.966-.069,1.923-.104,2.863-.104,3.627,0,7.118.516,10.376,1.534,1.424.446,2.218,1.965,1.774,3.386-.357,1.135-1.393,1.895-2.579,1.895-.27,0-.537-.04-.795-.119-2.755-.86-5.709-1.295-8.789-1.295-1.02,0-2.063.048-3.119.143,4.943.262,9.499,1.366,13.572,3.293.653.309,1.146.854,1.389,1.534.243.68.206,1.414-.103,2.066-.441.936-1.4,1.544-2.441,1.544-.405,0-.796-.088-1.161-.262-3.643-1.722-7.716-2.667-12.12-2.814-.01.111-.022.222-.035.333,4.632.873,8.831,2.482,12.507,4.797.61.383,1.034.982,1.194,1.686.16.704.037,1.429-.348,2.04-.495.789-1.351,1.262-2.287,1.262-.507,0-1.003-.143-1.434-.413-3.227-2.031-6.953-3.423-11.098-4.148-4.79,10.618-19.75,17.893-37.256,17.893-3.932,0-7.774-.37-11.438-1.101-2.672,2.248-4.85,4.77-6.484,7.507-.485.813-1.375,1.317-2.321,1.317Z"/><path class="e" d="M87.605,23.064c-4.809-1.801-15.211.666-18.506,1.108.486,3.387-3.139,11.221-4.889,12.596-2.338,1.469-6.301,1.185-11.055.014-1.919-.473-3.643-1.129-5.018-1.872-1.762-3.017-.992-11.302.802-15.116-3.031-1.366-12.291-6.708-17.415-6.359-5.124.35-6.731,3.033-8.096,7.228-1.365,4.195-1.098,13.208,2.508,16.352,4.581,3.996,7.385,4.287,11.889,3.545,3.631-.598,6.935-2.768,8.783-4.193,1.608.961,3.669,1.779,6.065,2.37,1.905.47,4.156.794,6.358.794,2.074,0,4.097-.297,5.753-1.022,1.033,1.932,3.308,5.667,6.272,7.423,5.387,2.94,8.783,3.138,14.316.621,4.355-1.981,8.029-9.836,7.922-14.246-.108-4.41-.88-7.441-5.689-9.243Z"/><path class="e" d="M63.591,2.269c-8.201,2.511-12.713,7.983-15.757,14.498.899.452,1.689.851,2.299,1.139,3.451-2.431,17.223.085,18.629,4.118,1.654-.26,3.634-.576,6.584-1.009-.946-7.269-3.773-14.097-11.754-18.747ZM65.604,6.464c-.251.412-1.248.264-1.758-.269s-.977-1.264-.679-1.643c.298-.38,1.049.016,1.722.544.673.528.879,1.099.714,1.369ZM67.378,10.401c-.337-.533-.572-1.491-.178-1.769.394-.278,1.09.19,1.583.889.493.699.596,1.365.201,1.643-.394.278-1.269-.23-1.606-.763Z"/><path class="e" d="M102.933,68.201c-4.605-1.439-9.637-1.795-14.955-1.084.466-4.542.939-9.5.901-10.6-.109-3.145-.781-5.489-2.731-8.217-2.133.929-3.994,1.488-5.771,1.664,1.209,1.987,1.414,3.479,1.414,5.715,0,10.322-14.038,18.686-31.365,18.686s-31.353-8.365-31.353-18.686c0-5.79,4.031-10.767,10.972-14.192-1.624-.629-3.376-1.763-5.38-3.511-3.302-2.88-4.204-10.742-3.452-15.711-5.04-2.398-10.349-3.307-16.81-1.413-6.822,13.733,3.218,30.088,7.604,36.197.195,3.623,1.704,17.359,1.704,17.359.751,5.928,4.442,11.239,10.213,15.213-1.016.775-1.975,1.603-2.876,2.483-.241.235-.245.621-.01.861.119.122.277.184.436.184.153,0,.308-.058.426-.174.966-.944,2.01-1.819,3.115-2.638,1.518.959,3.167,1.828,4.928,2.6-2.068,1.644-3.889,3.475-5.442,5.484-.206.267-.157.649.109.856.111.086.242.127.373.127.182,0,.362-.081.482-.236,1.625-2.102,3.564-3.997,5.779-5.686,1.793.714,3.692,1.329,5.689,1.833-2.979,2.492-5.42,5.312-7.273,8.419-.173.289-.078.664.211.836.098.059.206.086.312.086.208,0,.41-.105.524-.297,1.929-3.233,4.529-6.143,7.731-8.688,3.718.816,7.738,1.262,11.987,1.262,17.66,0,32.404-7.775,35.931-18.133.024.006.044.02.069.024,5.064.671,9.594,2.247,13.465,4.684.102.063.214.094.324.094.203,0,.401-.101.517-.284.18-.285.094-.662-.19-.841-3.99-2.512-8.646-4.14-13.836-4.843.197-.776.336-1.565.405-2.365,0,0,.079-.709.202-1.842.062.022.127.039.197.039h.005c5.425-.061,10.34.98,14.69,3.035.084.04.173.059.261.059.228,0,.447-.129.551-.349.145-.305.014-.668-.29-.812-4.519-2.137-9.669-3.18-15.222-3.153-.024,0-.044.011-.066.014.12-1.119.263-2.463.413-3.897,5.251-.742,10.202-.408,14.72,1.003.061.019.122.027.182.027.26,0,.5-.167.582-.428.101-.321-.079-.663-.4-.764ZM4.842,32.224c-.703-.028-1.372-.801-1.43-1.864-.058-1.062.64-2.286,1.568-2.237.599.032,1.274.866,1.333,1.928s-.424,2.213-1.47,2.172ZM7.254,24.072c-.292,1.023-1.153,1.727-1.848,1.617-.695-.11-1.034-1.206-.742-2.229.292-1.023,1.636-1.766,2.213-1.601.577.165.669,1.19.377,2.213ZM43.568,91.382c-1.098.159-2.217-.747-3.017-2.254.304.237.63.369.963.334,1.12-.116,1.851-1.912,1.633-4.011-.218-2.099-1.303-3.706-2.423-3.59-.492.051-.902.439-1.196,1.022.288-1.871,1.142-3.23,2.322-3.401,1.753-.253,3.559,2.206,4.034,5.491.474,3.286-.563,6.155-2.316,6.408ZM70.109,89.624c-2.034.897-3.822.035-4.669-.522-.592.915-2.003,2.634-4.266,2.652h-.039c-2.334,0-3.827-1.52-4.229-2.94-.08-.284.085-.579.368-.659.286-.081.579.086.659.368.295,1.045,1.422,2.163,3.202,2.163.01,0,.02,0,.03,0,2.348-.018,3.618-2.575,3.631-2.602.073-.15.213-.258.377-.29.163-.033.335.015.46.125.077.068,1.909,1.667,4.045.729,1.323-.582,1.546-1.922,1.562-2.669.006-.295.235-.562.544-.522.295.006.529.249.523.544-.034,1.704-.836,3.026-2.198,3.624ZM84.049,74.932c-.167,2.787-1.508,4.973-2.995,4.884-.678-.041-1.261-.563-1.688-1.367.057.017.11.044.169.05.942.094,1.849-1.26,2.026-3.026.177-1.766-.444-3.273-1.386-3.367-.438-.044-.866.235-1.219.714.501-1.871,1.555-3.163,2.703-3.095,1.487.089,2.557,2.42,2.39,5.207Z"/></g></g></svg>