<?xml version="1.0" encoding="UTF-8"?><svg id="b" xmlns="http://www.w3.org/2000/svg" viewBox="0 0 113.94 84.638"><defs><style>.e{fill:#094;}.e,.f{stroke-width:0px;}.f{fill:#fff;}</style></defs><g id="c"><g id="d"><path class="f" d="M86.638,84.496c-2.546.342-5.043.063-7.031-.784l-18.986-8.086c-1.331-.566-2.383-1.356-3.108-2.324-5.274,1.617-13.233,3.022-17.622,3.611-.932.125-2.215.282-3.035.318-14.1.626-22.792-.474-28.184-3.566-2.055-1.178-5.832-4.303-8.05-11.991-.107-.37-2.547-9.143,3.035-16.539,3.061-4.056,7.913-6.798,13.311-7.523,2.941-.395,5.843-.156,8.394.689,4.609,1.529,6.463,4.467,8.427,7.577,1.896,3.005,3.857,6.112,8.76,8.779,2.841,1.546,5.537,2.305,7.704,2.915.499.14.975.275,1.428.41.299-1.664,1.318-3.235,2.977-4.548l18.195-14.4c1.615-1.279,3.762-2.218,6.134-2.697-.69-1.812-1.564-4.033-3.38-6.164-2.229-2.615-3.561-3.577-5.248-4.796-1.41-1.019-3.008-2.174-5.395-4.457-4.946-4.732-8.852-8.469-5.094-15.467,1.558-2.901,4.549-4.725,8.649-5.275,3.016-.405,5.746-.012,6.51.118,5.427.908,10.355,4.134,13.533,8.853,2.358,3.503,5.055,9.687,5.551,16.536.121,1.67-.28,6.068-1.224,13.427l16.408,6.988c1.969.838,3.629,2.388,4.095,3.654s.685,1.966.46,3.467-1.706,11.357-1.706,11.357c-.194,1.675-1.145,3.23-2.751,4.5l-16.181,12.806c-1.694,1.341-4.029,2.268-6.575,2.61Z"/><path class="e" d="M112.587,51.628c-.233-1.733-1.518-3.182-3.619-4.076l-17.538-7.47c.626-4.788,1.53-12.155,1.373-14.32-.469-6.47-3.062-12.455-5.279-15.748-2.47-3.668-6.699-7.197-12.443-8.158-.352-.059-10.181-1.814-13.476,4.323-3.109,5.788-.241,8.718,4.787,13.528,5.194,4.97,6.52,4.403,10.756,9.373,2.723,3.196,3.471,6.458,4.422,8.533-2.745.214-5.487,1.134-7.403,2.652l-18.195,14.4c-1.791,1.417-2.648,3.153-2.416,4.886.035.259.097.511.179.757-2.466-1.207-6.756-1.602-11.654-4.267-10.416-5.667-8.701-13.515-16.922-16.242-6.336-2.101-15.149-.025-19.9,6.271-5.056,6.699-2.89,14.7-2.771,15.114,1.944,6.741,5.129,9.79,7.299,11.034,4.148,2.379,11.378,4.06,27.306,3.353,2.879-.128,15.257-2.108,21.484-4.259.449,1.165,1.474,2.137,2.989,2.781l18.986,8.086c1.781.759,4.013.959,6.18.668,2.166-.291,4.267-1.072,5.785-2.274l16.181-12.806c1.28-1.012,2.014-2.209,2.149-3.44l1.711-11.391c.002-.012.003-.024.005-.037l.004-.029h-.002c.068-.41.078-.826.022-1.242ZM75.451,5.393c-.545-.151-1.139-.449-1.092-.816.047-.367.697-.402,1.348-.318s1.01.378,1.008.621c-.004.37-.718.663-1.263.513ZM81.024,6.479c-.151.338-.926.346-1.357.128-.431-.218-.962-.757-.812-1.095.151-.338.792-.303,1.391-.036.599.267.928.665.777,1.003ZM3.829,52.487c.158-.8,1.137-1.454,1.588-1.365.451.089.587.866.43,1.667-.158.8-.77,1.393-1.308,1.353-.538-.039-.868-.855-.71-1.655ZM5.715,61.115c-.512.169-1.2-.207-1.527-.954-.327-.747-.154-1.813.525-2.027.439-.138,1.147.28,1.475,1.027.327.747.29,1.703-.473,1.954ZM96.188,75.697c-.03.008-.06.014-.09.019-.606.106-1.2-.271-1.354-.877l-1.164-4.576c-.162-.636.223-1.282.858-1.444.645-.16,1.282.223,1.444.858l.067.264c-.113-.102-.273-.149-.43-.108-.255.062-.411.319-.349.574l.445,1.831c.058.238.286.39.524.359.016-.002.033-.005.05-.009.176-.043.303-.18.346-.344l.512,2.011c.162.636-.222,1.282-.858,1.444ZM106.887,67.242c-.022.004-.043.007-.065.009-.56.061-1.063-.343-1.125-.903l-.51-4.653c-.061-.56.353-1.061.902-1.124.549-.06,1.041.328,1.118.871-.077-.057-.174-.089-.278-.08-.227.026-.39.218-.37.443l.181,2.022c.02.224.218.39.443.37.006,0,.012-.001.018-.002.126-.017.227-.094.289-.196l.233,2.129c.059.537-.312,1.023-.837,1.115ZM106.912,55.243l-16.498,13.451c-2.737,2.165-7.762,2.837-10.971,1.472l-19.46-8.625c-1.384-.608-2.222-1.509-2.36-2.537-.138-1.029.433-2.119,1.608-3.072l16.497-13.45c1.368-1.083,3.308-1.793,5.308-2.061,1.999-.268,4.058-.096,5.663.588l19.461,8.624c1.384.609,2.223,1.51,2.361,2.539.138,1.028-.433,2.118-1.608,3.069Z"/></g></g></svg>