<svg xmlns="http://www.w3.org/2000/svg" xmlns:xlink="http://www.w3.org/1999/xlink" viewBox="0 0 75.867 56.374"><defs><style>.a{fill:url(#a);}.b{fill:url(#b);}.c{fill:url(#c);}.d{fill:#ddeef9;}.e{fill:#3d85be;}</style><linearGradient id="a" x1="-1539.603" y1="138.015" x2="-1467.808" y2="217.296" gradientTransform="translate(910.427 -57.659) scale(0.586)" gradientUnits="userSpaceOnUse"><stop offset="0" stop-color="#fff"/><stop offset="0.051" stop-color="#edf4f9"/><stop offset="0.159" stop-color="#cddfef"/><stop offset="0.277" stop-color="#b2cee7"/><stop offset="0.404" stop-color="#9ec1e1"/><stop offset="0.548" stop-color="#8fb8dc"/><stop offset="0.721" stop-color="#87b3da"/><stop offset="1" stop-color="#84b1d9"/></linearGradient><linearGradient id="b" x1="-1614.973" y1="-24.698" x2="-1565.712" y2="28.975" gradientTransform="translate(991.251 26.285) scale(0.586)" gradientUnits="userSpaceOnUse"><stop offset="0" stop-color="#fff"/><stop offset="0.17" stop-color="#d5e7f3"/><stop offset="0.579" stop-color="#76b1d6"/><stop offset="0.864" stop-color="#398fc4"/><stop offset="1" stop-color="#2282bd"/></linearGradient><linearGradient id="c" x1="-1682.94" y1="-26.074" x2="-1596.641" y2="9.634" gradientTransform="translate(991.251 26.285) scale(0.586)" gradientUnits="userSpaceOnUse"><stop offset="0" stop-color="#fff"/><stop offset="0.066" stop-color="#eef6fb"/><stop offset="0.195" stop-color="#d4e6f4"/><stop offset="0.337" stop-color="#c0dbef"/><stop offset="0.497" stop-color="#b1d2eb"/><stop offset="0.689" stop-color="#a9cde9"/><stop offset="1" stop-color="#a6cce8"/></linearGradient></defs><polygon class="a" points="57.687 56.374 55.79 51.112 0 35.103 2.314 39.862 57.687 56.374"/><polygon class="b" points="75.867 21.112 75.867 13.585 55.79 51.112 57.687 56.374 75.867 21.112"/><polygon class="c" points="55.79 51.112 75.867 13.585 24.497 0 0 35.103 55.79 51.112"/><path class="d" d="M28.917,7.74,40.078,10.6l-4.19,7.107a7.188,7.188,0,0,0-.644.99c.873.276,1.671.479,2.194.591l5.3-8,11.73,2.961-5.374,7.63.2.05c1.058.271,1.543.325,3.088-1.827,1.587-2.223,3.148-4.715,3.169-4.728L56,14.659l11.279,2.932-1.54,1.991c-.039.039-3.591,4.628-6.072,8.112-2.909,4.074-8.011,5.317-11,4.566-.717-.19-1.559-.365-2.468-.56-1.108-.224-2.33-.474-3.6-.8L39.51,35.281l.85.265,4.224,1.288L28.875,41.488,22.514,30.835l5.558,1.423,3.117-4.405c-.5-.127-1.068-.276-1.923-.513a7.151,7.151,0,0,1-5.275-4.787,9.975,9.975,0,0,1,.962-7.607c1.6-3.078,3.5-6.4,3.515-6.435l.449-.771Z"/><path class="e" d="M38,11.61,34.942,16.8s-2.106,2.661-.373,3.25a26.943,26.943,0,0,0,3.344.878l5.274-7.98,9,2.286-5.374,7.617,2.254.573c1.811.47,2.742-.276,4.188-2.288,1.631-2.28,3.216-4.808,3.216-4.808l8.415,2.189s-3.568,4.616-6.1,8.16-7.193,4.782-9.9,4.1c-1.743-.448-4.172-.839-6.713-1.527l-4.871,6.906,2.786.863-10.731,2.8L25.349,33.1l3.156.808L33.454,26.9c-1.593-.448-2.012-.5-3.948-1.037-5.061-1.407-5.679-6.012-3.568-10.075,1.605-3.085,3.489-6.374,3.489-6.374L38,11.61"/></svg>