<?xml version="1.0" encoding="UTF-8"?><svg id="b" xmlns="http://www.w3.org/2000/svg" xmlns:xlink="http://www.w3.org/1999/xlink" viewBox="0 0 71.599 42.724"><defs><style>.f{fill:url(#e);}</style><radialGradient id="e" cx="-7779.982" cy="-7861.67" fx="-7779.982" fy="-7861.67" r="39.58" gradientTransform="translate(7920.93 8111.401) scale(1.014 1.03)" gradientUnits="userSpaceOnUse"><stop offset=".191" stop-color="#eaf4fc"/><stop offset=".326" stop-color="#dfeefa"/><stop offset=".559" stop-color="#c4e0f4"/><stop offset=".858" stop-color="#97c9ec"/><stop offset="1" stop-color="#80bde8"/></radialGradient></defs><g id="c"><g id="d"><path class="f" d="m63.922,25.74c-1.479-5.888-6.723-10.249-12.985-10.249-2.387,0-4.623.64-6.565,1.75.018-.32.03-.642.03-.966C44.402,7.286,37.223,0,28.368,0S12.333,7.286,12.333,16.275c0,2.455.539,4.782,1.498,6.87-1.175-.491-2.46-.766-3.809-.766-5.535,0-10.022,4.554-10.022,10.173s4.487,10.172,10.022,10.172h53.192c4.631,0,8.384-3.81,8.384-8.511,0-4.457-3.379-8.108-7.677-8.473Z"/></g></g></svg>