<svg xmlns="http://www.w3.org/2000/svg" xmlns:xlink="http://www.w3.org/1999/xlink" viewBox="0 0 38.57 83.03"><defs><style>.cls-1{fill:url(#hage);}.cls-2{fill:url(#hoge);}.cls-3,.cls-4,.cls-5{fill:none;}.cls-3{stroke:#fcf3db;stroke-width:6.34px;}.cls-4{stroke:#ecbf1c;stroke-width:3.17px;}.cls-5{stroke:#fff;stroke-width:0.95px;}</style><linearGradient id="hage" x1="332.58" y1="437.46" x2="370.49" y2="437.46" gradientTransform="translate(371.75 450.89) rotate(180)" gradientUnits="userSpaceOnUse"><stop offset="0" stop-color="#fff"/><stop offset="0.63" stop-color="#c4ddf0"/><stop offset="1" stop-color="#a6cce8"/></linearGradient><linearGradient id="hoge" x1="-0.6" y1="69.6" x2="37.31" y2="69.6" gradientTransform="matrix(1, 0, 0, 1, 0, 0)" xlink:href="#hage"/></defs><g id="レイヤー_2" data-name="レイヤー 2"><g id="icons_new" data-name="icons new"><g id="L1"><polygon class="cls-1" points="23.6 26.86 38.57 0 0 0 15.09 26.86 23.6 26.86"/><polygon class="cls-2" points="14.97 56.17 0 83.03 38.57 83.03 23.48 56.17 14.97 56.17"/><polyline class="cls-3" points="19.29 28.38 19.29 56.17 9.52 78.56 9.52 83.03"/><polyline class="cls-4" points="19.29 28.38 19.29 56.17 9.52 78.56 9.52 83.03"/><polyline class="cls-5" points="19.29 28.38 19.29 56.17 9.52 78.56 9.52 83.03"/><polyline class="cls-3" points="19.29 26.86 29.05 4.46 29.05 0"/><polyline class="cls-4" points="19.29 26.86 29.05 4.46 29.05 0"/><polyline class="cls-5" points="19.29 26.86 29.05 4.46 29.05 0"/><polyline class="cls-3" points="9.52 0 9.52 4.46 19.29 26.86 19.29 56.17 29.05 78.56 29.05 83.03"/><polyline class="cls-4" points="9.52 0 9.52 4.46 19.29 26.86 19.29 56.17 29.05 78.56 29.05 83.03"/><polyline class="cls-5" points="9.52 0 9.52 4.46 19.29 26.86 19.29 56.17 29.05 78.56 29.05 83.03"/></g></g></g></svg>