<svg xmlns="http://www.w3.org/2000/svg" xmlns:xlink="http://www.w3.org/1999/xlink" viewBox="0 0 76.258 58.603"><defs><style>.a{fill:none;stroke:#fff;stroke-width:6.744px;}.b{fill:url(#a);}.c{fill:url(#b);}.d{fill:url(#c);}.e{fill:url(#d);}</style><linearGradient id="a" x1="71.844" y1="85.603" x2="126.668" y2="186.359" gradientTransform="matrix(0.989, -0.149, 0.149, 0.989, -55.127, -51.306)" gradientUnits="userSpaceOnUse"><stop offset="0" stop-color="#fff"/><stop offset="0.046" stop-color="#efefef"/><stop offset="0.155" stop-color="#cfcfcf"/><stop offset="0.273" stop-color="#b4b4b4"/><stop offset="0.401" stop-color="#a0a0a0"/><stop offset="0.546" stop-color="#919191"/><stop offset="0.719" stop-color="#898989"/><stop offset="1" stop-color="#868686"/></linearGradient><linearGradient id="b" x1="-566.741" y1="-105.519" x2="-604.681" y2="-109.423" gradientTransform="matrix(0.149, 0.989, -0.989, 0.149, 42.965, 634.682)" gradientUnits="userSpaceOnUse"><stop offset="0.509" stop-color="#035777"/><stop offset="0.527" stop-color="#146183"/><stop offset="0.568" stop-color="#34749a"/><stop offset="0.612" stop-color="#4f83ac"/><stop offset="0.66" stop-color="#638fbb"/><stop offset="0.714" stop-color="#7298c5"/><stop offset="0.78" stop-color="#7a9ccb"/><stop offset="0.885" stop-color="#7d9ecd"/></linearGradient><linearGradient id="c" x1="-630.795" y1="-87.131" x2="-555.37" y2="-79.816" gradientTransform="matrix(0.149, 0.989, -0.989, 0.149, 42.965, 634.682)" gradientUnits="userSpaceOnUse"><stop offset="0.071" stop-color="#fff"/><stop offset="0.082" stop-color="#fbfcf6"/><stop offset="0.147" stop-color="#e4eecb"/><stop offset="0.217" stop-color="#d0e2a4"/><stop offset="0.291" stop-color="#bfd883"/><stop offset="0.369" stop-color="#b2d068"/><stop offset="0.455" stop-color="#a7c954"/><stop offset="0.552" stop-color="#a0c445"/><stop offset="0.668" stop-color="#9bc23d"/><stop offset="0.855" stop-color="#9ac13a"/></linearGradient><linearGradient id="d" x1="-596.103" y1="-78.096" x2="-571.351" y2="-75.696" gradientTransform="matrix(0.149, 0.989, -0.989, 0.149, 42.965, 634.682)" gradientUnits="userSpaceOnUse"><stop offset="0.071" stop-color="#fff"/><stop offset="0.095" stop-color="#fdf7f0"/><stop offset="0.163" stop-color="#f9e3ca"/><stop offset="0.237" stop-color="#f5d1a9"/><stop offset="0.315" stop-color="#f2c38e"/><stop offset="0.401" stop-color="#f0b97a"/><stop offset="0.497" stop-color="#eeb16b"/><stop offset="0.613" stop-color="#edac63"/><stop offset="0.8" stop-color="#edab60"/><stop offset="0.855" stop-color="#868686"/></linearGradient></defs><polygon class="a" points="53.9 39.47 53.885 20.641 69.224 19.231 69.224 40.807 53.9 39.47"/><polygon class="a" points="24.426 42.408 24.399 4.248 48.979 9.971 48.979 45.812 24.426 42.408"/><polygon class="a" points="70.332 54.783 9.214 46.366 36.475 28.024 72.579 31.172 70.332 54.783"/><polygon class="b" points="70.332 54.783 9.214 46.366 36.475 28.024 72.579 31.172 70.332 54.783"/><polygon class="c" points="53.752 39.259 53.737 20.43 69.076 19.021 69.076 40.596 53.752 39.259"/><polygon class="d" points="24.278 42.197 24.251 4.037 48.83 9.761 48.83 45.602 24.278 42.197"/><polygon class="e" points="19.493 45.404 19.468 36.045 44.047 39.273 44.047 48.809 19.493 45.404"/></svg>