<?xml version="1.0" encoding="UTF-8"?><svg id="b" xmlns="http://www.w3.org/2000/svg" xmlns:xlink="http://www.w3.org/1999/xlink" viewBox="0 0 76.258 56.664"><defs><style>.h{fill:url(#g);}.i{fill:url(#f);}.j{fill:url(#e);}.k{fill:#ddeef9;}.l{fill:#3d85be;}.m{fill:#4895ca;}</style><linearGradient id="e" x1="-1361.799" y1="137.788" x2="-1289.634" y2="217.478" gradientTransform="translate(806.35 -57.407) scale(.586)" gradientUnits="userSpaceOnUse"><stop offset="0" stop-color="#fff"/><stop offset=".051" stop-color="#ecf3f9"/><stop offset=".159" stop-color="#ccdfef"/><stop offset=".277" stop-color="#b2cee7"/><stop offset=".404" stop-color="#9dc1e0"/><stop offset=".548" stop-color="#8fb8dc"/><stop offset=".721" stop-color="#86b2d9"/><stop offset="1" stop-color="#84b1d9"/></linearGradient><linearGradient id="f" x1="-1436.846" y1="-25.025" x2="-1387.33" y2="28.925" gradientTransform="translate(887.174 26.537) scale(.586)" gradientUnits="userSpaceOnUse"><stop offset="0" stop-color="#fff"/><stop offset=".17" stop-color="#d5e7f2"/><stop offset=".579" stop-color="#75b1d5"/><stop offset=".864" stop-color="#398fc3"/><stop offset="1" stop-color="#2282bd"/></linearGradient><linearGradient id="g" x1="-1505.163" y1="-26.407" x2="-1418.419" y2="9.484" gradientTransform="translate(887.174 26.537) scale(.586)" gradientUnits="userSpaceOnUse"><stop offset="0" stop-color="#fff"/><stop offset=".066" stop-color="#eef5fa"/><stop offset=".195" stop-color="#d4e6f3"/><stop offset=".337" stop-color="#bfdaee"/><stop offset=".497" stop-color="#b1d2ea"/><stop offset=".689" stop-color="#a8cde8"/><stop offset="1" stop-color="#a6cce8"/></linearGradient></defs><g id="c"><g id="d"><polygon class="j" points="57.985 56.664 56.078 51.376 0 35.284 2.326 40.067 57.985 56.664"/><polygon class="i" points="76.258 21.22 76.258 13.655 56.078 51.376 57.985 56.664 76.258 21.22"/><polygon class="h" points="56.078 51.376 76.258 13.655 24.623 0 0 35.284 56.078 51.376"/><path class="k" d="m29.049,43.521c-.697,0-1.358-.388-1.687-1.036l-6.18-12.118c-.347-.679-.253-1.499.238-2.082.366-.435.901-.674,1.45-.674.188,0,.376.027.562.085l3.798,1.181,14.52-22.638c.355-.552.961-.871,1.596-.871.17,0,.345.022.515.071l11.822,3.336c.567.161,1.027.575,1.246,1.122s.17,1.165-.131,1.672l-13.311,22.365,2.881.896c.797.248,1.34.987,1.335,1.822s-.556,1.567-1.356,1.805l-16.756,4.986c-.18.054-.36.08-.541.08Z"/><polygon class="l" points="55.167 10.598 43.344 7.263 28.043 31.116 22.868 29.506 29.049 41.625 45.804 36.639 40.629 35.029 55.167 10.598"/><path class="k" d="m58.554,32.408c-.35,0-.692-.153-.927-.43-.324-.384-.379-.926-.136-1.366l.01-.022-5.117-1.537c-3.497-1.053-6.117-3.262-7.188-6.062-.904-2.359-.627-4.922.776-7.221l4.158-6.823c.225-.367.622-.581,1.037-.581.11,0,.219.014.329.046l3.944,1.113c.363.102.658.368.797.718.141.35.11.746-.084,1.07l-4.093,6.876c-.549.923-.653,1.888-.3,2.791.452,1.153,1.601,2.079,3.153,2.54l5.558,1.649.261-.477c.212-.389.619-.631,1.063-.631h.016c.449.007.857.259,1.063.658l2.097,4.072c.162.312.178.679.047,1.006s-.397.581-.729.696l-5.339,1.848c-.131.044-.264.067-.397.067Z"/><path class="m" d="m63.895,29.347l-2.099-4.071-.731,1.335-6.497-1.929c-3.646-1.083-5.238-4.274-3.548-7.114l4.092-6.877-3.942-1.112-4.163,6.822c-2.777,4.55-.205,9.704,5.73,11.489l6.55,1.969-.731,1.336,5.34-1.848Z"/><path class="k" d="m28.286,35.904c-.449,0-.872-.249-1.084-.666l-2.03-4.017c-.219-.435-.157-.959.157-1.331.235-.277.577-.43.927-.43.12,0,.24.018.36.055l.844.263,2.118-3.303c.567-.884.697-1.81.376-2.679-.423-1.138-1.567-2.062-3.145-2.535l-9.735-2.925c-.374-.112-.669-.398-.797-.768-.128-.368-.068-.776.157-1.094l2.116-2.992c.23-.328.603-.513.99-.513.115,0,.23.017.345.051l9.657,2.864c3.461,1.027,6.044,3.198,7.086,5.958.891,2.349.588,4.908-.846,7.204l-1.742,2.78.222.069c.512.159.857.635.852,1.169-.003.535-.358,1.004-.872,1.155l-5.616,1.638c-.112.033-.227.048-.34.048Z"/><path class="m" d="m29.198,17.047l-9.655-2.865-2.116,2.993,9.734,2.925c3.675,1.104,5.218,4.259,3.439,7.031l-2.618,4.081-1.726-.537,2.031,4.017,5.616-1.639-1.725-.537,2.575-4.114c2.825-4.514.332-9.608-5.555-11.355Z"/></g></g></svg>