<svg xmlns="http://www.w3.org/2000/svg" xmlns:xlink="http://www.w3.org/1999/xlink" viewBox="0 0 68.611 61.473"><defs><style>.a{fill:url(#a);}.b{fill:url(#b);}.c{fill:url(#c);}.d{fill:url(#d);}.e{fill:url(#e);}.f{fill:url(#f);}.g{fill:none;stroke:#758ea8;stroke-linecap:round;stroke-width:0.25px;}</style><linearGradient id="a" x1="-1612.412" y1="111.168" x2="-1518.936" y2="214.391" gradientTransform="translate(946.37 -55.768) scale(0.586)" gradientUnits="userSpaceOnUse"><stop offset="0" stop-color="#fff"/><stop offset="0.051" stop-color="#edf4f9"/><stop offset="0.159" stop-color="#cddfef"/><stop offset="0.277" stop-color="#b2cee7"/><stop offset="0.404" stop-color="#9ec1e1"/><stop offset="0.548" stop-color="#8fb8dc"/><stop offset="0.721" stop-color="#87b3da"/><stop offset="1" stop-color="#84b1d9"/></linearGradient><linearGradient id="b" x1="-1712.422" y1="-54.406" x2="-1629.238" y2="36.227" gradientTransform="translate(1027.193 28.176) scale(0.586)" gradientUnits="userSpaceOnUse"><stop offset="0" stop-color="#fff"/><stop offset="0.17" stop-color="#d5e7f3"/><stop offset="0.579" stop-color="#76b1d6"/><stop offset="0.864" stop-color="#398fc4"/><stop offset="1" stop-color="#2282bd"/></linearGradient><linearGradient id="c" x1="-1749.604" y1="-47.101" x2="-1670.02" y2="-14.172" gradientTransform="translate(1027.193 28.176) scale(0.586)" gradientUnits="userSpaceOnUse"><stop offset="0" stop-color="#fff"/><stop offset="0.066" stop-color="#eef6fb"/><stop offset="0.195" stop-color="#d4e6f4"/><stop offset="0.337" stop-color="#c0dbef"/><stop offset="0.497" stop-color="#b1d2eb"/><stop offset="0.689" stop-color="#a9cde9"/><stop offset="1" stop-color="#a6cce8"/></linearGradient><linearGradient id="d" x1="-1605.946" y1="121.714" x2="-1549.382" y2="198.576" gradientTransform="translate(946.37 -55.768) scale(0.586)" gradientUnits="userSpaceOnUse"><stop offset="0" stop-color="#fff"/><stop offset="0.528" stop-color="#dde9f4"/><stop offset="1" stop-color="#bbd3ea"/></linearGradient><linearGradient id="e" x1="16.237" y1="43.94" x2="-0.177" y2="21.36" gradientUnits="userSpaceOnUse"><stop offset="0" stop-color="#8db1d9"/><stop offset="0.04" stop-color="#83acd4"/><stop offset="0.173" stop-color="#69a0c8"/><stop offset="0.319" stop-color="#5596be"/><stop offset="0.483" stop-color="#468fb7"/><stop offset="0.681" stop-color="#3e8bb3"/><stop offset="1" stop-color="#3b8ab2"/></linearGradient><linearGradient id="f" x1="117.643" y1="-310.863" x2="98.674" y2="-336.959" gradientTransform="matrix(0.553, -0.833, 0.833, 0.553, 234.989, 318.328)" gradientUnits="userSpaceOnUse"><stop offset="0" stop-color="#c9d9ee"/><stop offset="0.191" stop-color="#bfd8ee"/><stop offset="0.5" stop-color="#b7d6ed"/><stop offset="1" stop-color="#b4d6ed"/></linearGradient></defs><polygon class="a" points="55.918 61.473 49.626 31.269 0 16.402 7.975 46.275 55.918 61.473"/><polygon class="b" points="68.611 36.212 64.662 9.369 49.626 31.269 55.918 61.473 68.611 36.212"/><polygon class="c" points="49.626 31.269 64.662 9.369 21.626 0 0 16.402 49.626 31.269"/><polygon class="d" points="38.593 54.362 33.359 29.348 3.668 20.399 10.465 45.104 38.593 54.362"/><polygon class="e" points="6.347 21.23 3.668 20.399 10.465 45.104 12.227 43.588 6.347 21.23 6.347 21.23"/><polygon class="f" points="10.465 45.104 38.593 54.362 38.106 52.037 12.227 43.588 10.465 45.104"/><path class="g" d="M10.465,33.238s.241-4.376,5.149-2.859c6.57,2.032,5.2,11.033,12.966,13.308,4.482,1.318,6.226-3.221,6.226-3.221"/></svg>