<?xml version="1.0" encoding="UTF-8"?><svg id="b" xmlns="http://www.w3.org/2000/svg" xmlns:xlink="http://www.w3.org/1999/xlink" viewBox="0 0 76.043 56.491"><defs><style>.h{fill:url(#g);}.i{fill:url(#f);}.j{fill:url(#e);}.k{fill:#edf7f8;}.l{fill:#5bc0c8;}</style><linearGradient id="e" x1="-11.405" y1="20.628" x2="62.371" y2="66.058" gradientUnits="userSpaceOnUse"><stop offset="0" stop-color="#e4f3f4"/><stop offset=".062" stop-color="#ddf0f1"/><stop offset=".07" stop-color="#dbeff0"/><stop offset=".301" stop-color="#a6dde1"/><stop offset=".517" stop-color="#7dced4"/><stop offset=".713" stop-color="#5fc4cc"/><stop offset=".88" stop-color="#4dbec6"/><stop offset="1" stop-color="#47bcc5"/></linearGradient><linearGradient id="f" x1="83.813" y1="-15.351" x2="59.383" y2="55.267" xlink:href="#e"/><linearGradient id="g" x1="20.984" y1="-4.504" x2="72.494" y2="82.872" gradientUnits="userSpaceOnUse"><stop offset="0" stop-color="#e4f3f4"/><stop offset=".284" stop-color="#c0e4e7"/><stop offset=".572" stop-color="#a2d8dc"/><stop offset=".821" stop-color="#90d0d6"/><stop offset="1" stop-color="#8aced4"/></linearGradient></defs><g id="c"><g id="d"><polygon class="j" points="57.821 56.491 55.923 51.222 0 35.177 2.326 39.947 57.821 56.491"/><polygon class="i" points="76.043 21.154 76.043 13.616 55.923 51.222 57.821 56.491 76.043 21.154"/><polygon class="h" points="55.923 51.222 76.043 13.616 24.561 0 0 35.177 55.923 51.222"/><path class="k" d="m35.206,42.945c-.146,0-.293-.021-.438-.065l-12.551-3.817c-.462-.141-.83-.496-.986-.955-.155-.459-.08-.964.202-1.358l15.293-21.345-2.463-.753c-.644-.196-1.078-.797-1.064-1.469.015-.673.475-1.254,1.127-1.422l14.654-3.779c.125-.032.252-.047.375-.047.584,0,1.131.341,1.376.897l4.081,9.253c.237.538.138,1.166-.253,1.605-.291.326-.701.504-1.123.504-.148,0-.298-.021-.444-.067l-2.957-.913-13.535,22.992c-.275.468-.774.74-1.296.74Z"/><polygon class="l" points="49.344 17.426 35.206 41.442 22.655 37.625 39.166 14.58 34.703 13.216 49.356 9.437 53.437 18.69 49.344 17.426"/></g></g></svg>