<?xml version="1.0" encoding="UTF-8"?><svg id="b" xmlns="http://www.w3.org/2000/svg" viewBox="0 0 54.29 54.291"><defs><style>.e{fill:#fafdff;}.f{fill:#eff8fe;}.g{fill:#e4f4fd;}.h{fill:#d8effc;}</style></defs><g id="c"><g id="d"><path class="e" d="m54.29,12.896V0C24.354,0,0,24.354,0,54.291h12.896c0-22.825,18.568-41.395,41.394-41.395Z"/><path class="f" d="m54.29,32.544v-9.288c-17.112,0-31.034,13.922-31.034,31.034h9.289c0-11.991,9.755-21.746,21.745-21.746Z"/><path class="g" d="m54.29,41.641v-3.719c-9.025,0-16.368,7.343-16.368,16.369h3.719c0-6.975,5.675-12.65,12.649-12.65Z"/><path class="h" d="m54.29,46.016v-1.149c-5.196,0-9.423,4.228-9.423,9.424h1.148c0-4.562,3.712-8.274,8.274-8.274Z"/></g></g></svg>