<?xml version="1.0" encoding="UTF-8"?><svg id="b" xmlns="http://www.w3.org/2000/svg" viewBox="0 0 108.581 108.581"><defs><style>.e{fill:#fafdff;}.f{fill:#eff8fe;}.g{fill:#e4f4fd;}.h{fill:#d8effc;}</style></defs><g id="c"><g id="d"><path class="h" d="m54.29,63.713c-5.196,0-9.423-4.227-9.423-9.423s4.227-9.424,9.423-9.424,9.423,4.228,9.423,9.424-4.227,9.423-9.423,9.423Zm0-17.697c-4.562,0-8.274,3.712-8.274,8.274s3.712,8.274,8.274,8.274,8.274-3.712,8.274-8.274-3.712-8.274-8.274-8.274Z"/><path class="g" d="m54.29,70.658c-9.025,0-16.368-7.343-16.368-16.367s7.343-16.369,16.368-16.369,16.368,7.343,16.368,16.369-7.343,16.367-16.368,16.367Zm0-29.017c-6.975,0-12.649,5.675-12.649,12.65s5.675,12.648,12.649,12.648,12.649-5.674,12.649-12.648-5.675-12.65-12.649-12.65Z"/><path class="f" d="m54.29,85.325c-17.112,0-31.034-13.922-31.034-31.034s13.922-31.034,31.034-31.034,31.034,13.922,31.034,31.034-13.922,31.034-31.034,31.034Zm0-52.78c-11.99,0-21.745,9.755-21.745,21.746s9.755,21.745,21.745,21.745,21.745-9.755,21.745-21.745-9.755-21.746-21.745-21.746Z"/><path class="e" d="m54.29,108.581C24.354,108.581,0,84.226,0,54.291S24.354,0,54.29,0s54.291,24.354,54.291,54.291-24.355,54.29-54.291,54.29Zm0-95.685c-22.825,0-41.394,18.57-41.394,41.395s18.568,41.394,41.394,41.394,41.395-18.568,41.395-41.394S77.115,12.896,54.29,12.896Z"/></g></g></svg>