<?xml version="1.0" encoding="UTF-8"?><svg id="b" xmlns="http://www.w3.org/2000/svg" xmlns:xlink="http://www.w3.org/1999/xlink" viewBox="0 0 75.569 59.049"><defs><style>.m{fill:url(#j);}.n{fill:url(#g);}.o{fill:url(#h);}.p{fill:url(#i);}.q{fill:url(#k);}.r{fill:url(#l);}.s{fill:url(#f);}.t{fill:url(#e);}</style><linearGradient id="e" x1="-1622.011" y1="166.125" x2="-1534.265" y2="186.7" gradientTransform="translate(952.02 -53.892) scale(.586)" gradientUnits="userSpaceOnUse"><stop offset="0" stop-color="#ceebfa"/><stop offset=".23" stop-color="#b4d6ef"/><stop offset=".716" stop-color="#74a3d5"/><stop offset="1" stop-color="#4c84c5"/></linearGradient><linearGradient id="f" x1="-1692.031" y1="-60.976" x2="-1640.649" y2="33.092" gradientTransform="translate(1032.844 30.052) scale(.586)" gradientUnits="userSpaceOnUse"><stop offset="0" stop-color="#a9dcf7"/><stop offset=".31" stop-color="#8fc4e9"/><stop offset=".967" stop-color="#4f87c6"/><stop offset="1" stop-color="#4c84c5"/></linearGradient><linearGradient id="g" x1="-1752.07" y1="-29.318" x2="-1669.143" y2="4.994" gradientTransform="translate(1032.843 30.052) scale(.586)" gradientUnits="userSpaceOnUse"><stop offset="0" stop-color="#fff"/><stop offset=".066" stop-color="#eef5fa"/><stop offset=".195" stop-color="#d4e6f3"/><stop offset=".337" stop-color="#bfdaee"/><stop offset=".497" stop-color="#b1d2ea"/><stop offset=".689" stop-color="#a8cde8"/><stop offset="1" stop-color="#a6cce8"/></linearGradient><linearGradient id="h" x1="21.235" y1="-4.236" x2="43.685" y2="36.865" gradientTransform="matrix(1, 0, 0, 1, 0, 0)" gradientUnits="userSpaceOnUse"><stop offset="0" stop-color="#a9dcf7"/><stop offset=".581" stop-color="#93c2e8"/><stop offset="1" stop-color="#81aedd"/></linearGradient><linearGradient id="i" x1="24.082" y1="-2.179" x2="36.937" y2="21.356" gradientTransform="matrix(1, 0, 0, 1, 0, 0)" gradientUnits="userSpaceOnUse"><stop offset="0" stop-color="#a9dcf7"/><stop offset=".473" stop-color="#8fc8ed"/><stop offset="1" stop-color="#6fb0e1"/></linearGradient><linearGradient id="j" x1="25.577" y1="-1.071" x2="33.55" y2="13.524" gradientTransform="matrix(1, 0, 0, 1, 0, 0)" gradientUnits="userSpaceOnUse"><stop offset="0" stop-color="#a9dcf7"/><stop offset=".316" stop-color="#8fc8ec"/><stop offset=".987" stop-color="#4f96d1"/><stop offset="1" stop-color="#4e95d1"/></linearGradient><linearGradient id="k" x1="26.43" y1="-.724" x2="31.065" y2="7.762" gradientTransform="matrix(1, 0, 0, 1, 0, 0)" gradientUnits="userSpaceOnUse"><stop offset="0" stop-color="#a9dcf7"/><stop offset=".283" stop-color="#8fc7eb"/><stop offset=".883" stop-color="#4f93ce"/><stop offset="1" stop-color="#4289c9"/></linearGradient><linearGradient id="l" x1="40.439" y1="31.233" x2="52.951" y2="54.138" xlink:href="#i"/></defs><g id="c"><g id="d"><g><polygon class="t" points="53.469 59.049 51.707 54.156 0 39.253 2.164 43.681 53.469 59.049"/><polygon class="s" points="75.569 19.19 75.569 12.129 51.707 54.156 53.469 59.049 75.569 19.19"/><polygon class="n" points="51.707 54.156 75.569 12.129 27.725 0 0 39.253 51.707 54.156"/><path class="o" d="M63.626,9.104C52.404,26.849,26.782,36.215,6.509,29.984l-5.411,7.638c25.595,8.212,57.751-3.544,71.677-26.203l.006-.008-9.152-2.315-.004,.008Z"/><path class="p" d="M48.836,5.356c-6.714,10.134-21.777,15.64-33.578,12.274l-3.18,4.49c14.862,4.359,33.766-2.548,42.138-15.403v-.002l-5.378-1.362v.003Z"/><path class="m" d="M41.475,3.492c-4.408,6.503-14.218,10.086-21.861,7.99l-1.871,2.639c9.424,2.629,21.489-1.779,26.893-9.83h.001l-3.162-.801v.002Z"/><path class="q" d="M23.168,6.462l-1.193,1.685c5.41,1.449,12.364-1.092,15.505-5.668l-2.018-.511c-2.496,3.612-8.013,5.628-12.294,4.494Z"/><path class="r" d="M60.442,38.772c-8.063,4.868-16.854,8.249-26.1,10.379l17.365,5.005,8.735-15.384Z"/></g></g></g></svg>