<svg xmlns="http://www.w3.org/2000/svg" xmlns:xlink="http://www.w3.org/1999/xlink" viewBox="0 0 75.569 59.049"><defs><style>.a{fill:url(#a);}.b{fill:url(#b);}.c{fill:url(#c);}.d{fill:url(#d);}.e{fill:url(#e);}.f{fill:url(#f);}.g{fill:url(#g);}.h{fill:url(#h);}.i{fill:url(#i);}</style><radialGradient id="a" cx="-1604.137" cy="107.662" r="177.941" gradientTransform="translate(911.419 -17.461) scale(0.586)" gradientUnits="userSpaceOnUse"><stop offset="0" stop-color="#6db56e"/><stop offset="0.26" stop-color="#5ea161"/><stop offset="0.791" stop-color="#376c40"/><stop offset="1" stop-color="#265632"/></radialGradient><radialGradient id="b" cx="-1603.627" cy="-23.719" r="107.44" gradientTransform="translate(992.242 66.483) scale(0.586)" gradientUnits="userSpaceOnUse"><stop offset="0" stop-color="#20873b"/><stop offset="0.109" stop-color="#1b7d38"/><stop offset="0.441" stop-color="#0f6532"/><stop offset="0.748" stop-color="#08562d"/><stop offset="1" stop-color="#05512c"/></radialGradient><radialGradient id="c" cx="-1646.658" cy="-112.004" r="100.947" gradientTransform="translate(992.242 66.483) scale(0.586)" gradientUnits="userSpaceOnUse"><stop offset="0" stop-color="#d6e8d1"/><stop offset="0.13" stop-color="#cce2c6"/><stop offset="0.378" stop-color="#b1d0aa"/><stop offset="0.911" stop-color="#6da262"/><stop offset="1" stop-color="#619a55"/></radialGradient><radialGradient id="d" cx="20.65" cy="-15.13" r="70.619" gradientUnits="userSpaceOnUse"><stop offset="0" stop-color="#e8efd5"/><stop offset="0.133" stop-color="#d2e2bc"/><stop offset="0.415" stop-color="#98c37b"/><stop offset="0.535" stop-color="#7eb45e"/><stop offset="0.72" stop-color="#67a75a"/><stop offset="1" stop-color="#499555"/></radialGradient><radialGradient id="e" cx="23.571" cy="-8.707" r="41.234" xlink:href="#d"/><radialGradient id="f" cx="25.079" cy="-5.371" r="26.145" xlink:href="#d"/><radialGradient id="g" cx="26.917" cy="-1.792" r="8.139" xlink:href="#d"/><radialGradient id="h" cx="26.204" cy="-3.154" r="15.095" xlink:href="#d"/><radialGradient id="i" cx="35.297" cy="15.134" r="30.915" xlink:href="#d"/></defs><polygon class="a" points="53.469 59.049 51.707 54.156 0 39.253 2.164 43.681 53.469 59.049"/><polygon class="b" points="75.569 19.19 75.569 12.129 51.707 54.156 53.469 59.049 75.569 19.19"/><polygon class="c" points="51.707 54.156 75.569 12.129 27.725 0 0 39.253 51.707 54.156"/><path class="d" d="M63.626,9.1C52.4,26.849,26.782,36.215,6.509,29.984L1.1,37.622c25.6,8.211,57.751-3.544,71.678-26.2l.005-.008L63.629,9.1Z"/><path class="e" d="M48.836,5.356C42.122,15.49,27.059,21,15.258,17.63l-3.18,4.49c14.862,4.36,33.766-2.548,42.137-15.4l0,0-5.38-1.363Z"/><path class="f" d="M41.475,3.492c-4.408,6.5-14.218,10.086-21.861,7.99l-1.871,2.639c9.425,2.629,21.49-1.779,26.894-9.83h0l-3.162-.8Z"/><path class="g" d="M25.449,3.241l-.793,1.122a8.292,8.292,0,0,0,8.29-3.031L31.6.992A6.176,6.176,0,0,1,25.449,3.241Z"/><path class="h" d="M23.168,6.462,21.975,8.147C27.385,9.6,34.34,7.055,37.48,2.479l-2.018-.51A12.213,12.213,0,0,1,23.168,6.462Z"/><path class="i" d="M60.442,38.772a88.766,88.766,0,0,1-26.1,10.379l17.365,5Z"/></svg>