<?xml version="1.0" encoding="UTF-8"?><svg id="b" xmlns="http://www.w3.org/2000/svg" xmlns:xlink="http://www.w3.org/1999/xlink" viewBox="0 0 70.989 42.36"><defs><style>.f{fill:url(#e);}</style><radialGradient id="e" cx="-7779.162" cy="-7861.82" fx="-7779.162" fy="-7861.82" r="39.243" gradientTransform="translate(7919.848 8111.412) scale(1.014 1.03)" gradientUnits="userSpaceOnUse"><stop offset=".191" stop-color="#eaf3e9"/><stop offset=".379" stop-color="#dfede0"/><stop offset=".7" stop-color="#c4dfcb"/><stop offset="1" stop-color="#a5d0b3"/></radialGradient></defs><g id="c"><g id="d"><path class="f" d="m63.378,25.521c-1.466-5.838-6.666-10.162-12.874-10.162-2.367,0-4.583.635-6.509,1.736.018-.317.03-.636.03-.958C44.024,7.224,36.906,0,28.127,0s-15.899,7.224-15.899,16.137c0,2.434.534,4.741,1.486,6.811-1.165-.487-2.44-.759-3.777-.759-5.488,0-9.937,4.515-9.937,10.086s4.449,10.085,9.937,10.085h52.74c4.591,0,8.313-3.778,8.313-8.438,0-4.42-3.35-8.039-7.612-8.401Z"/></g></g></svg>