<?xml version="1.0" encoding="UTF-8"?><svg id="b" xmlns="http://www.w3.org/2000/svg" viewBox="0 0 33.837 19.886"><defs><style>.e{fill:#4fad6d;}</style></defs><g id="c"><g id="d"><path class="e" d="m30.206,11.98c-.7-2.742-3.176-4.771-6.131-4.771-1.128,0-2.19.301-3.104.818.006-.149.012-.301.012-.449,0-4.185-3.399-7.578-7.578-7.578s-7.575,3.392-7.575,7.578c0,1.14.254,2.218.709,3.191-.551-.223-1.168-.35-1.803-.35-2.612,0-4.737,2.116-4.737,4.731s2.125,4.737,4.737,4.737h25.134c2.187,0,3.966-1.772,3.966-3.962,0-2.076-1.595-3.777-3.631-3.944Z"/></g></g></svg>