<svg xmlns="http://www.w3.org/2000/svg" xmlns:xlink="http://www.w3.org/1999/xlink" viewBox="0 0 71.709 42.79"><defs><style>.a{fill:url(#a);}</style><radialGradient id="a" cx="-7776.962" cy="-7862.246" r="47.596" gradientTransform="matrix(0.888, 0.498, -0.305, 0.562, 4535.827, 8301.815)" gradientUnits="userSpaceOnUse"><stop offset="0" stop-color="#eaf3e9"/><stop offset="0.121" stop-color="#e0eee1"/><stop offset="0.328" stop-color="#c4e1cc"/><stop offset="0.595" stop-color="#98cbab"/><stop offset="0.721" stop-color="#80c099"/><stop offset="1" stop-color="#67ac99"/></radialGradient></defs><path class="a" d="M64.02,25.78a13.468,13.468,0,0,0-13-10.265,13.2,13.2,0,0,0-6.576,1.753c.019-.321.031-.643.031-.967a16.061,16.061,0,1,0-32.119,0,16.436,16.436,0,0,0,1.5,6.88,9.86,9.86,0,0,0-3.814-.767,10.189,10.189,0,0,0,0,20.376H63.312a8.526,8.526,0,0,0,.708-17.01Z"/></svg>