<svg xmlns="http://www.w3.org/2000/svg" xmlns:xlink="http://www.w3.org/1999/xlink" viewBox="0 0 51.197 59.113"><defs><style>.a{fill:url(#a);}.b{fill:url(#b);}.c{fill:url(#c);}.d{fill:#fff;}</style><linearGradient id="a" x1="-7702.613" y1="-8191.098" x2="-7691.78" y2="-8176.423" gradientTransform="translate(18653.031 19855.363) scale(2.422)" gradientUnits="userSpaceOnUse"><stop offset="0" stop-color="#e8efd5"/><stop offset="0.081" stop-color="#e3eccf"/><stop offset="0.189" stop-color="#d4e4be"/><stop offset="0.313" stop-color="#bbd6a2"/><stop offset="0.447" stop-color="#98c37b"/><stop offset="0.535" stop-color="#7eb45e"/><stop offset="0.668" stop-color="#74ae5c"/><stop offset="0.898" stop-color="#589e57"/><stop offset="1" stop-color="#499555"/></linearGradient><linearGradient id="b" x1="-7681.77" y1="-8180.095" x2="-7691.014" y2="-8186.856" xlink:href="#a"/><linearGradient id="c" x1="-7691.38" y1="-8192.486" x2="-7705.696" y2="-8199.844" xlink:href="#a"/></defs><polygon class="a" points="25.594 59.113 0 44.353 0 14.781 25.594 29.553 25.594 59.113"/><polygon class="b" points="25.594 59.113 51.197 44.353 51.197 14.781 25.594 29.553 25.594 59.113"/><polygon class="c" points="51.197 14.781 25.594 29.553 0 14.781 25.573 0 51.197 14.781"/><polygon class="d" points="38.235 37.467 38.235 32.142 31.119 26.334 38.235 20.527 38.235 11.767 31.275 11.767 31.275 17.226 25.616 21.843 19.958 17.226 19.958 11.767 12.998 11.767 12.998 20.527 20.114 26.334 12.998 32.142 12.998 37.467 10.231 37.467 16.477 48.29 22.725 37.467 19.958 37.467 19.958 35.443 25.616 30.825 31.275 35.443 31.275 37.467 28.508 37.467 34.756 48.29 41.002 37.467 38.235 37.467"/></svg>