<svg xmlns="http://www.w3.org/2000/svg" viewBox="0 0 33.817 25.859"><defs><style>.a{fill:#60af71;}</style></defs><path class="a" d="M32.089,7.677,20.762.947a8.312,8.312,0,0,0-7.707,0L1.728,7.677A3.068,3.068,0,0,0,0,10.244a2.412,2.412,0,0,0,.107.7l1.832,6.313a2.968,2.968,0,0,0,1.47,1.774l10.072,5.984a6.844,6.844,0,0,0,3.427.843,6.845,6.845,0,0,0,3.428-.843l10.073-5.984a2.948,2.948,0,0,0,1.478-1.812L33.694,11a2.392,2.392,0,0,0,.123-.751A3.068,3.068,0,0,0,32.089,7.677Zm-.874,4.276-10.962,6.73a7.337,7.337,0,0,1-6.689,0L2.6,11.953a2.129,2.129,0,0,1-1.21-1.709A2.13,2.13,0,0,1,2.6,8.533L13.564,1.8A6.712,6.712,0,0,1,16.909,1a6.705,6.705,0,0,1,3.344.807L31.215,8.533a2.131,2.131,0,0,1,1.209,1.711A2.129,2.129,0,0,1,31.215,11.953Z"/></svg>