<svg xmlns="http://www.w3.org/2000/svg" xmlns:xlink="http://www.w3.org/1999/xlink" viewBox="0 0 75.568 56.146"><defs><style>.a{fill:url(#a);}.b{fill:url(#b);}.c{fill:url(#c);}.d{fill:#c6deb9;}.e{fill:#678b5e;}.f{fill:#70a567;}</style><radialGradient id="a" cx="-1670.425" cy="98.523" r="191.21" gradientTransform="translate(948.148 -15.956) scale(0.586)" gradientUnits="userSpaceOnUse"><stop offset="0" stop-color="#6db56e"/><stop offset="0.26" stop-color="#5ea161"/><stop offset="0.791" stop-color="#376c40"/><stop offset="1" stop-color="#265632"/></radialGradient><radialGradient id="b" cx="-1660.143" cy="-30.237" r="90.616" gradientTransform="translate(1028.972 67.988) scale(0.586)" gradientUnits="userSpaceOnUse"><stop offset="0" stop-color="#20873b"/><stop offset="0.109" stop-color="#1b7d38"/><stop offset="0.441" stop-color="#0f6532"/><stop offset="0.748" stop-color="#08562d"/><stop offset="1" stop-color="#05512c"/></radialGradient><radialGradient id="c" cx="-1740.62" cy="-64.389" r="109.718" gradientTransform="translate(1028.972 67.988) scale(0.586)" gradientUnits="userSpaceOnUse"><stop offset="0" stop-color="#d6e8d1"/><stop offset="0.22" stop-color="#aecea7"/><stop offset="0.445" stop-color="#8db784"/><stop offset="0.657" stop-color="#75a76a"/><stop offset="0.848" stop-color="#669d5a"/><stop offset="1" stop-color="#619a55"/></radialGradient></defs><polygon class="a" points="57.463 56.146 55.576 50.908 0 34.964 2.317 39.701 57.463 56.146"/><polygon class="b" points="75.568 21.023 75.568 13.532 55.576 50.908 57.463 56.146 75.568 21.023"/><polygon class="c" points="55.576 50.908 75.568 13.532 24.409 0 0 34.964 55.576 50.908"/><path class="d" d="M66.65,13.355a1.632,1.632,0,0,0-1.089-.955l-10-2.674a1.685,1.685,0,0,0-.425-.055,1.641,1.641,0,0,0-1.4.794L49.509,17.5l-4.644-.2-3.713-3.4,2.609-4.515a1.634,1.634,0,0,0-.992-2.4l-10-2.674a1.693,1.693,0,0,0-.423-.055,1.645,1.645,0,0,0-1.386.769l-5.614,8.955a1.638,1.638,0,0,0,.278,2.073l.475.441c-1.063-.049-1.7-.073-1.708-.073a1.646,1.646,0,0,0-1.385.759L17.15,26.453l-2.864-.886A1.724,1.724,0,0,0,13.8,25.5a1.637,1.637,0,0,0-1.5,2.3l4.053,9.2a1.644,1.644,0,0,0,1.5.979,1.718,1.718,0,0,0,.381-.046l15.449-3.7a1.635,1.635,0,0,0,1.139-.993,1.6,1.6,0,0,0,.119.836L39,43.258a1.641,1.641,0,0,0,1.5.976,1.662,1.662,0,0,0,.382-.046l15.45-3.7a1.639,1.639,0,0,0,.1-3.159l-2.47-.757,3.482-6.021a1.639,1.639,0,0,0-.311-2.031l-.189-.172c.513.018.813.026.817.026a1.64,1.64,0,0,0,1.418-.817L66.556,14.8A1.633,1.633,0,0,0,66.65,13.355ZM41.224,30.43l-1.436,2.29-2.861-.884a1.587,1.587,0,0,0-2.036,1.106,1.263,1.263,0,0,0,.048-.264,1.632,1.632,0,0,0-1.151-1.617l-2.433-.747,1.627-2.687,5.378.161Z"/><polygon class="e" points="40.507 34.656 36.445 33.4 40.499 42.596 55.949 38.892 51.511 37.533 56.027 29.729 39.075 14.22 42.348 8.565 32.347 5.892 26.735 14.849 43.332 30.149 40.507 34.656"/><polygon class="f" points="17.866 28.39 24.392 18.056 50.414 19.175 55.137 11.308 65.141 13.981 57.759 26.733 32.075 25.961 28.869 31.265 33.307 32.625 17.858 36.326 13.802 27.134 17.866 28.39"/></svg>