<?xml version="1.0" encoding="UTF-8"?><svg id="b" xmlns="http://www.w3.org/2000/svg" xmlns:xlink="http://www.w3.org/1999/xlink" viewBox="0 0 75.816 56.33"><defs><style>.h{fill:#edc1cc;}.h,.i,.j,.k,.l,.m{stroke-width:0px;}.i{fill:#ae6972;}.j{fill:#cd7a80;}.k{fill:url(#e);}.l{fill:url(#f);}.m{fill:url(#g);}</style><radialGradient id="e" cx="-1546.396" cy="40.451" fx="-1546.396" fy="40.451" r="191.837" gradientTransform="translate(875.418 18.188) scale(.586)" gradientUnits="userSpaceOnUse"><stop offset="0" stop-color="#c78fa8"/><stop offset=".186" stop-color="#bb7d93"/><stop offset=".57" stop-color="#9f505e"/><stop offset="1" stop-color="#7b181d"/></radialGradient><radialGradient id="f" cx="-1535.628" cy="-88.261" fx="-1535.628" fy="-88.261" r="90.913" gradientTransform="translate(956.242 102.132) scale(.586)" gradientUnits="userSpaceOnUse"><stop offset="0" stop-color="#915a73"/><stop offset=".214" stop-color="#99455c"/><stop offset=".508" stop-color="#a22f43"/><stop offset=".777" stop-color="#a82235"/><stop offset="1" stop-color="#aa1e30"/></radialGradient><radialGradient id="g" cx="-1616.369" cy="-122.526" fx="-1616.369" fy="-122.526" r="110.077" gradientTransform="translate(956.242 102.132) scale(.586)" gradientUnits="userSpaceOnUse"><stop offset="0" stop-color="#e3b1b6"/><stop offset=".102" stop-color="#dda0a9"/><stop offset=".361" stop-color="#d17d8d"/><stop offset=".605" stop-color="#c96378"/><stop offset=".825" stop-color="#c3546c"/><stop offset="1" stop-color="#c24f68"/></radialGradient></defs><g id="c"><g id="d"><polygon class="k" points="57.651 56.33 55.758 51.075 0 35.078 2.325 39.831 57.651 56.33"/><polygon class="l" points="75.816 21.092 75.816 13.576 55.758 51.075 57.651 56.33 75.816 21.092"/><polygon class="m" points="55.758 51.075 75.816 13.576 24.489 0 0 35.078 55.758 51.075"/><path class="h" d="M66.868,13.399c-.194-.473-.599-.826-1.092-.958l-10.032-2.683c-.137-.036-.282-.055-.426-.055-.563,0-1.104.294-1.407.797l-4.24,7.055s-1.902-.081-4.659-.2l-3.725-3.409,2.619-4.53c.257-.44.294-.978.098-1.449-.195-.474-.6-.828-1.094-.96l-10.032-2.683c-.14-.036-.282-.055-.424-.055-.553,0-1.084.286-1.391.771l-5.632,8.985c-.418.671-.303,1.546.279,2.08l.476.442c-1.066-.048-1.709-.073-1.713-.073-.56,0-1.086.286-1.389.762l-5.876,9.304-2.874-.889c-.158-.047-.321-.073-.486-.073-.461,0-.91.194-1.228.552-.428.478-.536,1.163-.274,1.752l4.066,9.227c.268.607.868.983,1.505.983.126,0,.255-.018.382-.047l15.5-3.716c.532-.126.949-.51,1.142-.997-.032.284,0,.571.119.839l4.069,9.229c.268.603.863.979,1.502.979.127,0,.257-.016.384-.047l15.5-3.714c.719-.173,1.237-.807,1.258-1.547.026-.739-.45-1.404-1.158-1.621l-2.478-.76,3.493-6.04c.387-.668.258-1.515-.311-2.038l-.19-.173c.515.018.816.026.82.026.582,0,1.129-.31,1.423-.82l7.404-12.796c.255-.44.29-.979.094-1.45ZM41.359,30.53l-1.441,2.297-2.87-.887c-.158-.048-.321-.074-.484-.074-.461,0-.91.194-1.226.549-.165.187-.265.405-.332.636.019-.09.048-.173.048-.265.026-.741-.449-1.405-1.155-1.623l-2.441-.749,1.633-2.696s2.251.068,5.395.161l2.873,2.651Z"/><polygon class="i" points="40.639 34.77 36.564 33.51 40.631 42.735 56.133 39.02 51.68 37.656 56.21 29.827 39.203 14.267 42.487 8.593 32.453 5.911 26.822 14.898 43.474 30.248 40.639 34.77"/><polygon class="j" points="17.925 28.483 24.472 18.115 50.579 19.238 55.318 11.345 65.355 14.027 57.948 26.821 32.18 26.046 28.963 31.367 33.416 32.732 17.917 36.445 13.848 27.223 17.925 28.483"/></g></g></svg>