<svg xmlns="http://www.w3.org/2000/svg" xmlns:xlink="http://www.w3.org/1999/xlink" viewBox="0 0 75.644 56.171"><defs><style>.a{fill:url(#a);}.b{fill:url(#b);}.c{fill:url(#c);}.d{fill:#edc1cc;}.e{fill:#ae6972;}</style><radialGradient id="a" cx="-15115.064" cy="-13896.035" r="47.103" gradientTransform="translate(35935.99 33087.435) scale(2.379 2.378)" gradientUnits="userSpaceOnUse"><stop offset="0" stop-color="#c78fa8"/><stop offset="0.186" stop-color="#bc7e94"/><stop offset="0.57" stop-color="#9f505f"/><stop offset="1" stop-color="#7b181d"/></radialGradient><radialGradient id="b" cx="-15216.55" cy="-14035.788" r="22.326" gradientTransform="translate(36264.404 33428.324) scale(2.379 2.378)" gradientUnits="userSpaceOnUse"><stop offset="0" stop-color="#915a73"/><stop offset="0.214" stop-color="#99465c"/><stop offset="0.508" stop-color="#a33044"/><stop offset="0.777" stop-color="#a82335"/><stop offset="1" stop-color="#aa1e30"/></radialGradient><radialGradient id="c" cx="-15236.375" cy="-14044.201" r="27.029" gradientTransform="translate(36264.404 33428.324) scale(2.379 2.378)" gradientUnits="userSpaceOnUse"><stop offset="0" stop-color="#e3b1b6"/><stop offset="0.102" stop-color="#dea1a9"/><stop offset="0.361" stop-color="#d27e8d"/><stop offset="0.605" stop-color="#c96479"/><stop offset="0.825" stop-color="#c4546c"/><stop offset="1" stop-color="#c24f68"/></radialGradient></defs><polygon class="a" points="57.518 56.171 55.629 50.932 0 34.978 2.313 39.721 57.518 56.171"/><polygon class="b" points="75.644 21.034 75.644 13.539 55.629 50.932 57.518 56.171 75.644 21.034"/><polygon class="c" points="55.629 50.932 75.644 13.539 24.432 0 0 34.978 55.629 50.932"/><path class="d" d="M27.666,41.644a2.127,2.127,0,0,1-1.941-1.269l-4.059-9.2a2.12,2.12,0,0,1,1.94-2.975,2.179,2.179,0,0,1,.627.1l2.512.778L40.522,7.1a2.118,2.118,0,0,1,1.8-1,2.141,2.141,0,0,1,.547.072L52.879,8.848a2.12,2.12,0,0,1,1.285,3.109l-12.3,21.256,1.889.575a2.12,2.12,0,0,1-.127,4.089L28.158,41.585a2.37,2.37,0,0,1-.492.059Z"/><polygon class="e" points="27.677 31.579 42.32 8.221 52.331 10.894 38.693 34.458 43.133 35.814 27.666 39.522 23.606 30.322 27.677 31.579"/></svg>