<svg xmlns="http://www.w3.org/2000/svg" xmlns:xlink="http://www.w3.org/1999/xlink" viewBox="0 0 71.709 42.79"><defs><style>.a{fill:url(#a);}</style><radialGradient id="a" cx="-7775.386" cy="-7862.273" r="47.596" gradientTransform="matrix(0.888, 0.498, -0.305, 0.562, 4534.419, 8301.046)" gradientUnits="userSpaceOnUse"><stop offset="0" stop-color="#fbeff0"/><stop offset="0.147" stop-color="#f9e5e7"/><stop offset="0.399" stop-color="#f2c9d0"/><stop offset="0.721" stop-color="#e89dab"/><stop offset="1" stop-color="#c86d81"/></radialGradient></defs><path class="a" d="M64.02,25.78a13.468,13.468,0,0,0-13-10.265,13.2,13.2,0,0,0-6.576,1.753c.019-.321.031-.643.031-.967a16.061,16.061,0,1,0-32.119,0,16.436,16.436,0,0,0,1.5,6.88,9.86,9.86,0,0,0-3.814-.767,10.189,10.189,0,0,0,0,20.376H63.312a8.526,8.526,0,0,0,.708-17.01Z"/></svg>