<?xml version="1.0" encoding="UTF-8"?><svg id="b" xmlns="http://www.w3.org/2000/svg" xmlns:xlink="http://www.w3.org/1999/xlink" viewBox="0 0 69.951 41.741"><defs><style>.h{fill:url(#g);}.i{fill:url(#f);}</style><radialGradient id="f" cx="28.716" cy="16.527" fx="28.716" fy="16.527" r="39.382" gradientUnits="userSpaceOnUse"><stop offset=".191" stop-color="#eaf3e9"/><stop offset=".379" stop-color="#dfede0"/><stop offset=".7" stop-color="#c4dfcb"/><stop offset="1" stop-color="#a5d0b3"/></radialGradient><radialGradient id="g" cx="-7778.519" cy="-7862.076" fx="-7778.519" fy="-7862.076" r="38.669" gradientTransform="translate(7918.77 8111.43) scale(1.014 1.03)" gradientUnits="userSpaceOnUse"><stop offset=".191" stop-color="#fcedf4"/><stop offset=".395" stop-color="#f7e2e9"/><stop offset=".744" stop-color="#eac7ce"/><stop offset="1" stop-color="#dfafb6"/></radialGradient></defs><g id="c"><g id="d"><g id="e"><path class="i" d="m62.451,25.148c-1.445-5.752-6.568-10.013-12.686-10.013-2.332,0-4.516.626-6.414,1.71.018-.313.03-.627.03-.944,0-8.783-7.014-15.901-15.665-15.901s-15.666,7.118-15.666,15.901c0,2.398.526,4.672,1.464,6.712-1.148-.48-2.404-.748-3.721-.748-5.407,0-9.791,4.449-9.791,9.939s4.384,9.938,9.791,9.938h51.968c4.524,0,8.191-3.723,8.191-8.315,0-4.355-3.301-7.921-7.501-8.278Z"/><path class="i" d="m62.451,25.148c-1.445-5.752-6.568-10.013-12.686-10.013-2.332,0-4.516.626-6.414,1.71.018-.313.03-.627.03-.944,0-8.783-7.014-15.901-15.665-15.901s-15.666,7.118-15.666,15.901c0,2.398.526,4.672,1.464,6.712-1.148-.48-2.404-.748-3.721-.748-5.407,0-9.791,4.449-9.791,9.939s4.384,9.938,9.791,9.938h51.968c4.524,0,8.191-3.723,8.191-8.315,0-4.355-3.301-7.921-7.501-8.278Z"/><path class="h" d="m62.451,25.148c-1.445-5.752-6.568-10.013-12.686-10.013-2.332,0-4.516.626-6.414,1.71.018-.313.03-.627.03-.944,0-8.783-7.014-15.901-15.665-15.901s-15.666,7.118-15.666,15.901c0,2.398.526,4.672,1.464,6.712-1.148-.48-2.404-.748-3.721-.748-5.407,0-9.791,4.449-9.791,9.939s4.384,9.938,9.791,9.938h51.968c4.524,0,8.191-3.723,8.191-8.315,0-4.355-3.301-7.921-7.501-8.278Z"/></g></g></g></svg>