<svg xmlns="http://www.w3.org/2000/svg" xmlns:xlink="http://www.w3.org/1999/xlink" viewBox="0 0 74.483 61.327"><defs><style>.a{fill:url(#a);}.b{fill:url(#b);}.c{fill:#f2c6cc;}.d{fill:#cd7a80;}.e{fill:#ae6972;}</style><radialGradient id="a" cx="4.487" cy="-36.928" r="72.161" gradientTransform="matrix(0.928, 0.44, -0.265, 0.766, -10.023, 44.183)" gradientUnits="userSpaceOnUse"><stop offset="0" stop-color="#dca7ae"/><stop offset="0.149" stop-color="#d9a1a8"/><stop offset="0.356" stop-color="#cf8f99"/><stop offset="0.597" stop-color="#c0717f"/><stop offset="0.863" stop-color="#ab485b"/><stop offset="1" stop-color="#9f3046"/></radialGradient><radialGradient id="b" cx="11.578" cy="-37.835" r="66.589" gradientTransform="matrix(0.956, 0.351, -0.183, 0.683, -6.958, 38.597)" gradientUnits="userSpaceOnUse"><stop offset="0" stop-color="#ecccce"/><stop offset="0.283" stop-color="#dfa3ac"/><stop offset="0.55" stop-color="#d48290"/><stop offset="0.697" stop-color="#d07686"/><stop offset="1" stop-color="#bc5269"/></radialGradient></defs><path class="a" d="M74.481,22.181C74.059,9.939,57.81,0,37.234,0S-.175,9.935,0,22.181C.034,24.6,1.672,39.51,1.672,39.51,3.227,51.784,17.791,61.327,37.234,61.327c19,0,34.526-9.291,35.533-20.985h0S74.552,24.246,74.481,22.181Z"/><path class="b" d="M73.389,22.181c0,11.9-16.182,21.54-36.155,21.54s-36.14-9.642-36.14-21.54S17.272.653,37.234.653,73.389,10.29,73.389,22.181Z"/><path class="c" d="M31.041,44.3a1.174,1.174,0,0,1-1.063-.656L25.273,33.567A1.051,1.051,0,0,1,25.46,32.4a1.193,1.193,0,0,1,.877-.377,1.265,1.265,0,0,1,.317.041l3.955,1.049.853-1.253c-2.412-.559-4.258-.988-4.928-1.137a9.562,9.562,0,0,1-6.564-5.112c-.877-1.944-1.371-5.16,1.3-9.468.246-.393.538-.836.855-1.312l-3.3-.783a1.146,1.146,0,0,1-.812-.694,1.064,1.064,0,0,1,.16-1.025l5.537-7.1a1.192,1.192,0,0,1,.94-.447,1.306,1.306,0,0,1,.258.027l4.042.869c.217-.277.418-.539.605-.77l-2.627-.574a1.113,1.113,0,0,1-.9-1.106,1.123,1.123,0,0,1,.979-1.046L40.588.091a1.305,1.305,0,0,1,.185-.015,1.173,1.173,0,0,1,.948.463l4.95,6.578a1.058,1.058,0,0,1,0,1.269,1.188,1.188,0,0,1-.952.468,1.315,1.315,0,0,1-.313-.038l-2.838-.739-.3.444c2.4.509,4.305.911,5.044,1.058a9.909,9.909,0,0,1,7.224,5.244c.907,1.953,1.419,5.2-1.326,9.558-.2.332-.441.7-.694,1.113l4.939,1.133a1.141,1.141,0,0,1,.78.614,1.035,1.035,0,0,1-.02.959l-4.394,8.029a1.18,1.18,0,0,1-1.035.6,1.354,1.354,0,0,1-.285-.035l-5.995-1.405L45.5,37.076l3.782,1a1.085,1.085,0,0,1-.043,2.126L31.316,44.266a1.585,1.585,0,0,1-.275.03Zm4.778-26.208c-.546.829-.967,1.469-1.151,1.788a1.329,1.329,0,0,0-.274,1.08,1.809,1.809,0,0,0,1.222.649l2.392.55c.546-.826.962-1.463,1.147-1.762a1.351,1.351,0,0,0,.276-1.079c-.112-.258-.573-.5-1.224-.659Z"/><path class="d" d="M42.058,6.233s-7.4,10.842-8.406,12.533-.339,2.864,1.692,3.337,21.838,5.021,21.838,5.021l-4.393,8.029s-23.177-5.442-25.983-6.068c-4.117-.916-9.151-5.5-4.528-12.95C24.719,12.2,31.553,3.643,31.553,3.643l-4.359-.951L40.773.6l4.95,6.584Z"/><path class="e" d="M31.129,33.825s8.01-11.774,9.033-13.46.357-2.866-1.667-3.344-19.384-4.607-19.384-4.607l5.539-7.1s19.605,4.213,22.429,4.773c4.932.975,9.807,5.738,5.137,13.166-2.469,3.917-8.464,13.931-8.464,13.931l5.213,1.388L31.041,42.624l-4.7-10.074Z"/></svg>