<svg xmlns="http://www.w3.org/2000/svg" xmlns:xlink="http://www.w3.org/1999/xlink" viewBox="0 0 61.809 61.38"><defs><style>.a{fill:url(#a);}.b{fill:#fff;}</style><radialGradient id="a" cx="30.905" cy="27.416" r="30.902" gradientTransform="translate(0 3.46) scale(1 0.993)" gradientUnits="userSpaceOnUse"><stop offset="0" stop-color="#fff"/><stop offset="0.116" stop-color="#fffbf8"/><stop offset="0.287" stop-color="#fdf0e4"/><stop offset="0.492" stop-color="#fbddc4"/><stop offset="0.723" stop-color="#f8c497"/><stop offset="0.973" stop-color="#f4a45e"/><stop offset="1" stop-color="#f4a057"/></radialGradient></defs><path class="a" d="M61.809,30.685A30.905,30.905,0,1,1,30.91,0,30.79,30.79,0,0,1,61.809,30.685Z"/><path class="b" d="M49.234,43.326V32.594a10.513,10.513,0,0,0-10.5-10.5H34.376V13.323h2.855L30.9,7l-6.326,6.324h2.855v8.769H23.076a10.513,10.513,0,0,0-10.5,10.5V43.326H9.721l6.326,6.324,6.327-6.324H19.519V32.594a3.562,3.562,0,0,1,3.557-3.558h4.357v14.29H24.578L30.9,49.65l6.327-6.324H34.376V29.036h4.357a3.562,3.562,0,0,1,3.557,3.558V43.326H39.435l6.327,6.324,6.326-6.324Z"/></svg>