<svg xmlns="http://www.w3.org/2000/svg" xmlns:xlink="http://www.w3.org/1999/xlink" viewBox="0 0 74.147 61.126"><defs><style>.a{fill:url(#a);}.b{fill:url(#b);}.c{fill:#f9dfc9;}.d{fill:#ce772b;}.e{fill:#dcb456;}.f{fill:#d99439;}</style><radialGradient id="a" cx="2.267" cy="-8.439" r="79.417" gradientTransform="translate(0 48.739) scale(1 1.173)" gradientUnits="userSpaceOnUse"><stop offset="0" stop-color="#e8dabc"/><stop offset="0.181" stop-color="#dcc096"/><stop offset="0.453" stop-color="#cd9d62"/><stop offset="0.69" stop-color="#c1843c"/><stop offset="0.88" stop-color="#bb7525"/><stop offset="1" stop-color="#b86f1d"/></radialGradient><radialGradient id="b" cx="3.289" cy="-17.741" r="68.29" gradientTransform="translate(0 48.739) scale(1 1.173)" gradientUnits="userSpaceOnUse"><stop offset="0" stop-color="#f6dcb5"/><stop offset="0.041" stop-color="#f5d8ad"/><stop offset="0.346" stop-color="#ebbd7a"/><stop offset="0.611" stop-color="#e4a954"/><stop offset="0.824" stop-color="#e09c3d"/><stop offset="0.959" stop-color="#de9835"/></radialGradient></defs><path class="a" d="M74.145,22.111C73.725,9.906,57.55,0,37.068,0S-.173,9.9,0,22.111C.036,24.525,1.667,39.38,1.667,39.38c1.549,12.237,16.044,21.746,35.4,21.746,18.92,0,34.367-9.256,35.372-20.913h0S74.218,24.169,74.145,22.111Z"/><path class="b" d="M73.059,22.111c0,11.856-16.11,21.468-35.991,21.468S1.089,33.967,1.089,22.111,17.2.652,37.068.652,73.059,10.257,73.059,22.111Z"/><path class="c" d="M66.818,27.866l-.2-3.628a1.13,1.13,0,0,0-.234-.6,1.9,1.9,0,0,0-.571-.507l-4.213-2.5a1.7,1.7,0,0,0-1.265-.222c-.589.162-.732.759-.321,1.337l.142.193-5.124,1.443a10.364,10.364,0,0,0-1.285-2.436l-2.785-3.989A13.618,13.618,0,0,0,48.98,14.72L57,12.5c.574-.16.7-.75.287-1.328L54.62,7.524a1.842,1.842,0,0,0-1.781-.753L39.5,10.436l-.133-.2a1.792,1.792,0,0,0-1.758-.764.686.686,0,0,0-.532.73l.044.886-3.463.954-.131-.2a1.757,1.757,0,0,0-1.741-.771.7.7,0,0,0-.544.732v.037l-1.758-2.7a1.709,1.709,0,0,0-1.7-.787L16.456,11.448l-2-3.277a1.716,1.716,0,0,0-1.725-.787.715.715,0,0,0-.544.73l-.012,12.648a1.22,1.22,0,0,0,.177.624,1.823,1.823,0,0,0,.5.539l13.1,9.018a1.663,1.663,0,0,0,1.275.229A.857.857,0,0,0,27.64,29.8l-2-3.275,11.782-3.29c.583-.161.746-.769.361-1.359l-1.758-2.694.041.028a1.592,1.592,0,0,0,1.228.239c.576-.159.739-.765.349-1.35l-.131-.2,3.515-.975.989.628a1.587,1.587,0,0,0,1.232.239.712.712,0,0,0,.521-.466,4.151,4.151,0,0,1,1.386,1.249l2.726,4.015c.884,1.3.528,2.653-.787,3.022l-26.688,7.5a.875.875,0,0,0-.436,1.386l2.232,3.839a1.611,1.611,0,0,0,1.712.78L64.262,27.689l.14.193a1.857,1.857,0,0,0,1.847.725A.715.715,0,0,0,66.818,27.866Z"/><polygon class="d" points="24.143 25.014 36.926 21.452 28.643 8.71 16.282 12.083 13.636 7.73 13.571 7.749 13.599 20.374 26.722 29.385 26.791 29.366 24.143 25.014"/><polygon class="e" points="65.68 26.861 65.478 23.231 61.263 20.736 61.247 20.739 62.133 21.973 40.104 28.166 42.532 31.92 64.774 25.633 65.664 26.865 65.68 26.861"/><path class="f" d="M52.858,20.532l-2.781-3.988c-2.72-3.9-8.05-6.214-11.882-5.16L33.5,12.673l-.829-1.257-.018,0,.131,3.66,3.979,2.6.02-.005-.828-1.26L40.7,15.1c1.851-.512,4.4.594,5.683,2.469l2.742,4c1.285,1.877.778,3.837-1.129,4.369L21.27,33.462l2.249,3.832L50.5,29.667C54.521,28.529,55.579,24.431,52.858,20.532Z"/><polygon class="e" points="41.869 14.777 56.396 10.762 53.737 7.111 39.356 11.065 38.507 9.814 38.489 9.819 38.668 13.458 42.697 16.03 42.715 16.03 41.869 14.777"/></svg>