<svg xmlns="http://www.w3.org/2000/svg" xmlns:xlink="http://www.w3.org/1999/xlink" viewBox="0 0 74.141 61.123"><defs><style>.a{fill:url(#a);}.b{fill:url(#b);}.c{fill:#f9dfc9;}.d{fill:#ce772b;}</style><radialGradient id="a" cx="2.267" cy="-6.447" r="79.41" gradientTransform="translate(0 46.4) scale(1 1.173)" gradientUnits="userSpaceOnUse"><stop offset="0" stop-color="#fcf4e4"/><stop offset="0.044" stop-color="#f8ecd8"/><stop offset="0.301" stop-color="#e1c096"/><stop offset="0.535" stop-color="#d09d62"/><stop offset="0.736" stop-color="#c3843c"/><stop offset="0.898" stop-color="#bb7525"/><stop offset="1" stop-color="#b86f1d"/></radialGradient><radialGradient id="b" cx="3.289" cy="-15.749" r="68.282" gradientTransform="translate(0 46.4) scale(1 1.173)" gradientUnits="userSpaceOnUse"><stop offset="0" stop-color="#f6dcb5"/><stop offset="0.281" stop-color="#edc28b"/><stop offset="0.574" stop-color="#e5ab65"/><stop offset="0.81" stop-color="#e09d4e"/><stop offset="0.959" stop-color="#de9846"/></radialGradient></defs><path class="a" d="M74.139,22.108C73.719,9.9,57.545,0,37.065,0S-.175,9.9,0,22.108c.034,2.415,1.664,17.269,1.664,17.269,1.549,12.235,16.044,21.746,35.4,21.746,18.915,0,34.363-9.259,35.368-20.914h0S74.211,24.167,74.139,22.108Z"/><path class="b" d="M73.051,22.108c0,11.857-16.107,21.467-35.986,21.467S1.089,33.965,1.089,22.108,17.2.652,37.065.652,73.051,10.256,73.051,22.108Z"/><path class="c" d="M44.15,38.051a1.292,1.292,0,0,1-1.169-.743l-3.139-6.732L27.223,33.437a1.393,1.393,0,0,1-.286.032,1.284,1.284,0,0,1-1.168-.743l-3.14-6.732-12.62,2.859a1.135,1.135,0,0,1-.283.034A1.289,1.289,0,0,1,8.54,28.1L5.381,20.612a1.289,1.289,0,0,1,1.188-1.791,1.349,1.349,0,0,1,.332.042l3.126.836a23.15,23.15,0,0,0,4.539-4.409A15.105,15.105,0,0,1,29.6,9.928c1.006.214,3.149.688,5.764,1.278l1.981-2.847-.584-.122a1.291,1.291,0,0,1-.014-2.523L46.17,3.635a1.228,1.228,0,0,1,.28-.032,1.278,1.278,0,0,1,.921.389l4.748,4.879a1.291,1.291,0,0,1-.925,2.189,1.255,1.255,0,0,1-.258-.026l-1.692-.346-2.033,3.173c2.879.648,5.742,1.283,6.494,1.433a8,8,0,0,1,5.855,4.393c.68,1.573,1.038,4.168-1.105,7.587-1.05,1.667-2.041,3.368-2.7,4.524l2.357.63a1.287,1.287,0,0,1-.046,2.5l-13.631,3.09a1.393,1.393,0,0,1-.286.032Zm-.459-9.462c.931-1.289,2.842-3.95,3.4-4.866a1.215,1.215,0,0,0,.172-.4h0a2.909,2.909,0,0,0-.63-.226c-.477-.114-2.309-.54-4.64-1.079l-3.342,5.22,2.255.6ZM26.459,24l3.333-4.79c-.892-.206-1.526-.354-1.767-.4a5.093,5.093,0,0,0-1.092-.13,2.955,2.955,0,0,0-2.4,1.123c-.97,1.152-1.913,2.188-2.667,2.979l1.821.484Z"/><path class="d" d="M57.361,25.954c3.553-5.656-.156-9.282-3.908-10.028-.856-.17-4.281-.934-8.321-1.841l3.5-5.468,2.561.52L46.45,4.26,37.021,6.34l2.487.523-3.582,5.158c-2.989-.671-5.488-1.231-6.6-1.465a13.84,13.84,0,0,0-13.777,4.932c-3.494,4.167-5.34,4.962-5.34,4.962l-3.642-.971,3.157,7.487,13.632-3.091-3.964-1.06s2.031-1.961,4.152-4.48A4.5,4.5,0,0,1,28.3,16.91c.388.088,1.786.407,3.639.833L27,24.847l-3.641-.972,3.579,7.671L40.57,28.457,36.6,27.4l4.786-7.476c2.749.634,5,1.158,5.53,1.286,1.544.364,2.048,1.263,1.272,2.547s-3.981,5.67-3.981,5.67l-3.642-.972,3.58,7.671,13.631-3.089-3.964-1.057S55.486,28.941,57.361,25.954Z"/></svg>