<svg xmlns="http://www.w3.org/2000/svg" xmlns:xlink="http://www.w3.org/1999/xlink" viewBox="0 0 74.161 61.139"><defs><style>.a{fill:url(#a);}.b{fill:none;}.c{fill:url(#b);}.d{fill:url(#c);}.e{fill:url(#d);}.f{fill:url(#e);}.g{fill:url(#f);}.h{fill:url(#g);}.i{fill:url(#h);}.j{fill:url(#i);}.k{fill:url(#j);}.l{fill:url(#k);}.m{fill:url(#l);}.n{fill:url(#m);}.o{fill:url(#n);}.p{fill:url(#o);}.q{fill:url(#p);}.r{fill:url(#q);}.s{fill:url(#r);}.t{fill:url(#s);}.u{fill:url(#t);}.v{fill:url(#u);}.w{fill:url(#v);}.x{fill:url(#w);}.y{fill:url(#x);}.z{fill:url(#y);}.aa{fill:url(#z);}.ab{fill:url(#aa);}.ac{fill:url(#ab);}.ad{fill:url(#ac);}.ae{fill:url(#ad);}.af{fill:url(#ae);}.ag{fill:url(#af);}.ah{fill:url(#ag);}.ai{fill:url(#ah);}.aj{fill:url(#ai);}.ak{fill:url(#aj);}.al{fill:url(#ak);}.am{fill:url(#al);}.an{fill:url(#am);}.ao{fill:url(#an);}.ap{fill:url(#ao);}.aq{fill:url(#ap);}.ar{fill:url(#aq);}.as{fill:url(#ar);}.at{fill:url(#as);}.au{fill:url(#at);}.av{fill:url(#au);}.aw{fill:url(#av);}</style><radialGradient id="a" cx="2.268" cy="-7.327" r="79.432" gradientTransform="translate(0 47.443) scale(1 1.173)" gradientUnits="userSpaceOnUse"><stop offset="0" stop-color="#fef6e6"/><stop offset="0.119" stop-color="#f4e0c2"/><stop offset="0.356" stop-color="#e1b980"/><stop offset="0.571" stop-color="#d3994c"/><stop offset="0.757" stop-color="#c88326"/><stop offset="0.906" stop-color="#c1750f"/><stop offset="1" stop-color="#bf7007"/></radialGradient><radialGradient id="b" cx="-1639.789" cy="-170.842" r="161.192" gradientTransform="translate(948.706 135.402) scale(0.586)" gradientUnits="userSpaceOnUse"><stop offset="0" stop-color="#fcf2e5"/><stop offset="0.014" stop-color="#fcf1e4"/><stop offset="0.422" stop-color="#f2dbbe"/><stop offset="0.751" stop-color="#eccda7"/><stop offset="0.959" stop-color="#eac89f"/></radialGradient><radialGradient id="c" cx="-1639.745" cy="-170.841" r="160.98" xlink:href="#b"/><linearGradient id="d" x1="-11.066" y1="35.336" x2="9.88" y2="35.336" gradientUnits="userSpaceOnUse"><stop offset="0" stop-color="#f0c673"/><stop offset="0.447" stop-color="#e8ba77"/><stop offset="0.959" stop-color="#e2b27a"/></linearGradient><radialGradient id="e" cx="-1639.789" cy="-170.842" r="161.196" xlink:href="#b"/><radialGradient id="f" cx="5.948" cy="44.952" r="25.734" gradientUnits="userSpaceOnUse"><stop offset="0" stop-color="#f6dcb5"/><stop offset="0.281" stop-color="#edc28b"/><stop offset="0.574" stop-color="#e5ab65"/><stop offset="0.81" stop-color="#e09d4e"/><stop offset="0.959" stop-color="#de9846"/></radialGradient><radialGradient id="g" cx="-1639.792" cy="-170.844" r="161.2" xlink:href="#b"/><radialGradient id="h" cx="-3.619" cy="27.746" r="9.159" xlink:href="#f"/><radialGradient id="i" cx="-1639.793" cy="-170.835" r="161.21" xlink:href="#b"/><radialGradient id="j" cx="6.602" cy="9.111" r="11.27" xlink:href="#f"/><radialGradient id="k" cx="-1639.786" cy="-170.841" r="161.188" xlink:href="#b"/><linearGradient id="l" x1="0.933" y1="18.279" x2="23.21" y2="18.279" xlink:href="#d"/><radialGradient id="m" cx="-1639.791" cy="-170.885" r="161.137" xlink:href="#b"/><linearGradient id="n" x1="13.843" y1="13.338" x2="38.565" y2="13.338" xlink:href="#d"/><radialGradient id="o" cx="-1639.791" cy="-170.839" r="161.195" xlink:href="#b"/><radialGradient id="p" cx="35.264" cy="18.253" r="23.569" xlink:href="#f"/><radialGradient id="q" cx="-1639.784" cy="-170.841" r="161.188" xlink:href="#b"/><radialGradient id="r" cx="56.019" cy="22.763" r="17.812" xlink:href="#f"/><radialGradient id="s" cx="-1639.792" cy="-170.834" r="161.205" xlink:href="#b"/><linearGradient id="t" x1="16.014" y1="3.34" x2="37.033" y2="3.34" gradientUnits="userSpaceOnUse"><stop offset="0" stop-color="#edbc57"/><stop offset="0.092" stop-color="#ebb755"/><stop offset="0.623" stop-color="#e2a04a"/><stop offset="0.959" stop-color="#de9846"/></linearGradient><radialGradient id="u" cx="-1639.793" cy="-170.84" r="161.203" xlink:href="#b"/><radialGradient id="v" cx="19.89" cy="25.073" r="22.665" xlink:href="#f"/><radialGradient id="w" cx="-1639.788" cy="-170.844" r="161.187" xlink:href="#b"/><linearGradient id="x" x1="32.427" y1="5.496" x2="54.088" y2="5.496" gradientUnits="userSpaceOnUse"><stop offset="0" stop-color="#e7b079"/><stop offset="0.321" stop-color="#de9a61"/><stop offset="0.712" stop-color="#d6864a"/><stop offset="0.959" stop-color="#d37e42"/></linearGradient><radialGradient id="y" cx="-1639.79" cy="-170.843" r="161.194" xlink:href="#b"/><radialGradient id="z" cx="50.047" cy="11.319" r="20.082" xlink:href="#f"/><radialGradient id="aa" cx="-1640.02" cy="-170.866" r="161.436" xlink:href="#b"/><linearGradient id="ab" x1="70.664" y1="15.973" x2="79.898" y2="15.973" xlink:href="#t"/><radialGradient id="ac" cx="-1639.803" cy="-170.843" r="161.213" xlink:href="#b"/><linearGradient id="ad" x1="39.647" y1="29.775" x2="66.231" y2="27.687" xlink:href="#x"/><radialGradient id="ae" cx="-1639.804" cy="-170.844" r="161.213" xlink:href="#b"/><radialGradient id="af" cx="61.636" cy="33.386" r="9.841" xlink:href="#f"/><radialGradient id="ag" cx="-1639.783" cy="-170.83" r="161.178" xlink:href="#b"/><linearGradient id="ah" x1="27.217" y1="42.614" x2="53.372" y2="42.614" xlink:href="#x"/><radialGradient id="ai" cx="-1639.786" cy="-170.842" r="161.182" xlink:href="#b"/><linearGradient id="aj" x1="1.256" y1="30.062" x2="27.127" y2="30.062" xlink:href="#x"/><radialGradient id="ak" cx="-1639.791" cy="-170.841" r="161.194" xlink:href="#b"/><radialGradient id="al" cx="44.805" cy="39.932" r="16.945" xlink:href="#f"/><radialGradient id="am" cx="-1638.164" cy="-172.09" r="158.115" xlink:href="#b"/><linearGradient id="an" x1="31.267" y1="42.887" x2="37.38" y2="34.659" gradientUnits="userSpaceOnUse"><stop offset="0" stop-color="#6f4d30"/><stop offset="0.304" stop-color="#855f37"/><stop offset="0.705" stop-color="#9c723d"/><stop offset="0.959" stop-color="#a47940"/></linearGradient><radialGradient id="ao" cx="-1563.171" cy="-162.746" r="0.006" xlink:href="#b"/><linearGradient id="ap" x1="26.873" y1="40.097" x2="54.428" y2="40.097" gradientUnits="userSpaceOnUse"><stop offset="0" stop-color="#512b13"/><stop offset="0.103" stop-color="#653b1a"/><stop offset="0.387" stop-color="#99632d"/><stop offset="0.635" stop-color="#bf803b"/><stop offset="0.834" stop-color="#d69143"/><stop offset="0.959" stop-color="#de9846"/></linearGradient><radialGradient id="aq" cx="-1639.792" cy="-170.84" r="161.198" xlink:href="#b"/><linearGradient id="ar" x1="15.84" y1="14.239" x2="17.048" y2="6.186" xlink:href="#an"/><linearGradient id="as" x1="17.112" y1="14.032" x2="18.272" y2="6.299" xlink:href="#an"/><linearGradient id="at" x1="19.505" y1="11.166" x2="38.56" y2="11.166" xlink:href="#ap"/><linearGradient id="au" x1="26.426" y1="38.554" x2="27.586" y2="30.821" xlink:href="#an"/><linearGradient id="av" x1="28.818" y1="35.688" x2="47.874" y2="35.688" xlink:href="#ap"/></defs><path class="a" d="M74.159,22.114C73.737,9.909,57.56,0,37.074,0S-.175,9.9,0,22.114c.033,2.417,1.664,17.275,1.664,17.275,1.548,12.24,16.047,21.75,35.409,21.75,18.918,0,34.372-9.258,35.378-20.92h0S74.23,24.176,74.159,22.114Z"/><path class="b" d="M9.11,8.418c-4.275,3.1-7.123,6.917-7.964,11.105Z"/><path class="c" d="M.876,22.116c0,.4.02.8.057,1.192l.847-1.185,3.565.914-3.28,4.574a14.939,14.939,0,0,0,.8,1.551l4.1-5.71L27.127,28.63l-5.771,8.042L5.293,32.456a23.719,23.719,0,0,0,2.353,2.223l2.234.586-.523.729c.417.3.848.582,1.29.866l.839-1.173,20.7,5.434-1.592,2.221c.591.061,1.184.116,1.784.162l1.407-1.963,7.575,1.988q2.21-.158,4.33-.469l-1.43-.374,5.659-8.2,12.235,3.141c.632-.364,1.247-.74,1.831-1.132l-2.653-.68,5.251-8,2.247.58-4.165,7.634c5.318-3.756,8.526-8.606,8.526-13.908a13.031,13.031,0,0,0-.1-1.546l-3.5,6.415-14.14-3.634,5.478-7.943,11.719,3.011a13.961,13.961,0,0,0-.633-1.767l-1.351-.346.666-1.013c-.275-.492-.572-.976-.9-1.452L69.074,15.9,49.4,10.849l5.384-7.511q-.762-.258-1.551-.5l-5.443,7.593L32.427,6.491,36.679.561c-.651,0-1.3.019-1.938.041L30.814,6.078,19.642,3.21q-1.326.434-2.586.935l.838.215-5.661,7.9L9.38,11.524l4.147-5.787A39.25,39.25,0,0,0,9.11,8.418c-1.831,1.221-5.758,4.1-7.964,11.105A13.062,13.062,0,0,0,.876,22.116Zm18.285,2.869,5.661-7.895,18.194,4.671-5.659,7.893Zm45.832,2.422-5.251,8L38.963,30.069l5.662-7.891ZM59.327,15l-5.478,7.944-19.344-4.97,5.664-7.895ZM13.843,12.581l5.662-7.808L38.56,9.664l-5.666,7.9-8.649-2.146h0l-4.9-1.334-5.5-1.414L13.9,12.6Zm-5.432.295,14.8,3.8-5.66,7.893-14.8-3.8Z"/><path class="d" d="M7.646,34.679c.543.451,1.111.891,1.711,1.315l.523-.729Z"/><path class="e" d="M7.646,34.679c.543.451,1.111.891,1.711,1.315l.523-.729Z"/><path class="f" d="M11.486,35.687l-.839,1.173a46.832,46.832,0,0,0,19.945,6.482l1.592-2.221Z"/><path class="g" d="M11.486,35.687l-.839,1.173a46.832,46.832,0,0,0,19.945,6.482l1.592-2.221Z"/><path class="h" d="M1.78,22.123.933,23.308a13.691,13.691,0,0,0,1.132,4.3l3.28-4.574Z"/><path class="i" d="M1.78,22.123.933,23.308a13.691,13.691,0,0,0,1.132,4.3l3.28-4.574Z"/><path class="j" d="M12.233,12.258l5.661-7.9-.838-.215q-1.847.732-3.529,1.592L9.38,11.524Z"/><path class="k" d="M12.233,12.258l5.661-7.9-.838-.215c-2.211.767-7.969,3.6-10.81,6.6Z"/><polygon class="l" points="23.21 16.675 8.411 12.876 2.752 20.769 17.55 24.568 23.21 16.675"/><path class="m" d="M23.21,16.675S6.642,12.391,5.112,11.99A21.97,21.97,0,0,0,.933,20.327c2.871.715,16.617,4.241,16.617,4.241Z"/><polygon class="n" points="19.344 14.079 13.896 12.597 13.843 12.665 19.344 14.079"/><polygon class="o" points="19.344 14.079 13.896 12.597 13.843 12.665 19.344 14.079"/><polygon class="p" points="53.849 22.944 59.327 15 40.169 10.079 34.505 17.974 53.849 22.944"/><polygon class="q" points="53.849 22.944 59.327 15 40.169 10.079 34.505 17.974 53.849 22.944"/><path class="r" d="M55.451,23.351l14.14,3.634,3.5-6.415a13.044,13.044,0,0,0-.438-2.151L60.929,15.408Z"/><path class="s" d="M55.451,23.351l14.14,3.634,3.5-6.415a13.044,13.044,0,0,0-.438-2.151L60.929,15.408Z"/><path class="t" d="M34.741.6a55.373,55.373,0,0,0-15.1,2.608L30.814,6.078Z"/><path class="u" d="M34.741.6a55.373,55.373,0,0,0-15.1,2.608L30.814,6.078Z"/><polygon class="v" points="43.016 21.761 24.822 17.09 19.161 24.985 37.357 29.654 43.016 21.761"/><polygon class="w" points="43.016 21.761 24.822 17.09 19.161 24.985 37.357 29.654 43.016 21.761"/><path class="x" d="M47.794,10.436l5.443-7.593A56.833,56.833,0,0,0,37.027.557c-.116,0-.231,0-.348,0l-4.252,5.93Z"/><path class="y" d="M47.794,10.436l5.443-7.593A56.833,56.833,0,0,0,37.027.557c-.116,0-.231,0-.348,0l-4.252,5.93Z"/><path class="z" d="M69.074,15.9l1.354-2.057c-3.109-4.454-8.652-8.15-15.64-10.5L49.4,10.849Z"/><path class="aa" d="M69.074,15.9l1.354-2.057c-3.109-4.454-8.652-8.15-15.64-10.5L49.4,10.849Z"/><path class="ab" d="M72.015,16.652c-.2-.46-.435-.912-.685-1.359l-.666,1.013Z"/><path class="ac" d="M72.015,16.652c-.2-.46-.435-.912-.685-1.359l-.666,1.013Z"/><polygon class="ad" points="38.963 30.069 59.742 35.403 64.993 27.407 44.625 22.178 38.963 30.069"/><polygon class="ae" points="38.963 30.069 59.742 35.403 64.993 27.407 44.625 22.178 38.963 30.069"/><path class="af" d="M66.581,27.81l-5.251,8,2.653.68c.231-.151.456-.309.68-.467l4.165-7.634Z"/><path class="ag" d="M66.581,27.81l-5.251,8s1.072.281,2.653.68a21.249,21.249,0,0,0,7.357-7.556C69.355,28.467,66.581,27.81,66.581,27.81Z"/><path class="ah" d="M32.376,43.5c1.524.117,3.073.184,4.651.184,1.467,0,2.91-.06,4.331-.159l-7.575-1.988Z"/><path class="ai" d="M32.376,43.5c1.524.117,3.073.184,4.651.184,1.467,0,2.91-.06,4.331-.159l-7.575-1.988Z"/><path class="aj" d="M27.127,28.63,6.956,23.452l-4.1,5.71a18.81,18.81,0,0,0,2.433,3.294l16.063,4.216Z"/><path class="ak" d="M27.127,28.63,6.956,23.452l-4.1,5.71a18.81,18.81,0,0,0,2.433,3.294l16.063,4.216Z"/><path class="al" d="M44.258,42.686l1.43.374a46.754,46.754,0,0,0,16.464-5.437L49.917,34.482Z"/><path class="am" d="M44.258,42.686l1.43.374a46.754,46.754,0,0,0,16.464-5.437L49.917,34.482Z"/><polygon class="an" points="33.352 40.109 33.35 40.106 33.318 40.097 33.352 40.109"/><polygon class="ao" points="33.352 40.109 33.35 40.106 33.318 40.097 33.352 40.109"/><polygon class="ap" points="33.309 40.097 33.318 40.097 33.309 40.097 33.309 40.097"/><polygon class="aq" points="33.309 40.097 33.318 40.097 33.309 40.097 33.309 40.097"/><polygon class="ar" points="13.843 12.581 13.896 12.597 19.505 4.773 13.843 12.581"/><polygon class="as" points="13.843 12.581 13.896 12.597 19.505 4.773 13.843 12.581"/><polygon class="at" points="19.505 4.773 13.896 12.597 20.492 14.375 19.505 4.773"/><polygon class="au" points="32.894 17.559 38.56 9.664 19.505 4.773 20.492 14.375 32.894 17.559"/><polygon class="av" points="28.818 29.295 23.21 37.119 29.806 38.897 28.818 29.295"/><polygon class="aw" points="42.21 42.081 47.874 34.186 28.818 29.295 29.806 38.897 42.21 42.081"/></svg>