<svg xmlns="http://www.w3.org/2000/svg" xmlns:xlink="http://www.w3.org/1999/xlink" viewBox="0 0 75.543 59.318"><defs><style>.a{fill:url(#a);}.b{fill:url(#b);}.c{fill:url(#c);}.d{fill:url(#d);}.e{fill:url(#e);}.f{fill:url(#f);}.g{fill:url(#g);}.h{fill:url(#h);}.i{fill:url(#i);}.j{fill:url(#j);}.k{fill:url(#k);}.l{fill:url(#l);}.m{fill:url(#m);}.n{fill:url(#n);}.o{fill:url(#o);}.p{fill:url(#p);}.q{fill:url(#q);}.r{fill:url(#r);}.s{fill:url(#s);}.t{fill:url(#t);}.u{fill:url(#u);}.v{fill:url(#v);}.w{fill:url(#w);}.x{fill:url(#x);}.y{fill:url(#y);}.z{fill:url(#z);}</style><linearGradient id="a" x1="-1422.322" y1="-2.424" x2="-1328.021" y2="-2.424" gradientTransform="translate(832.912 50.327) scale(0.586)" gradientUnits="userSpaceOnUse"><stop offset="0" stop-color="#9e6624"/><stop offset="0.558" stop-color="#b06c1f"/><stop offset="1" stop-color="#b86f1d"/></linearGradient><linearGradient id="b" x1="-1469.774" y1="-168.437" x2="-1431.339" y2="-168.437" gradientTransform="translate(913.736 134.271) scale(0.586)" xlink:href="#a"/><radialGradient id="c" cx="-1556.397" cy="-171.519" r="124.379" gradientTransform="translate(913.736 134.271) scale(0.586)" gradientUnits="userSpaceOnUse"><stop offset="0" stop-color="#fcf2e5"/><stop offset="0.014" stop-color="#fcf1e4"/><stop offset="0.422" stop-color="#f2dbbe"/><stop offset="0.751" stop-color="#eccda7"/><stop offset="0.959" stop-color="#eac89f"/></radialGradient><linearGradient id="d" x1="2.675" y1="35.682" x2="18.849" y2="35.682" gradientUnits="userSpaceOnUse"><stop offset="0" stop-color="#f0c673"/><stop offset="0.447" stop-color="#e8ba77"/><stop offset="0.959" stop-color="#e2b27a"/></linearGradient><radialGradient id="e" cx="15.815" cy="41.232" r="19.856" gradientUnits="userSpaceOnUse"><stop offset="0" stop-color="#f6dcb5"/><stop offset="0.281" stop-color="#edc28b"/><stop offset="0.574" stop-color="#e5ab65"/><stop offset="0.81" stop-color="#e09d4e"/><stop offset="0.959" stop-color="#de9846"/></radialGradient><radialGradient id="f" cx="8.434" cy="27.959" r="7.067" xlink:href="#e"/><radialGradient id="g" cx="18.664" cy="13.579" r="6.552" xlink:href="#e"/><linearGradient id="h" x1="13.348" y1="20.996" x2="29.134" y2="20.996" xlink:href="#d"/><linearGradient id="i" x1="21.907" y1="15.165" x2="40.978" y2="15.165" xlink:href="#d"/><radialGradient id="j" cx="38.435" cy="20.633" r="18.186" xlink:href="#e"/><radialGradient id="k" cx="54.449" cy="24.113" r="13.746" xlink:href="#e"/><linearGradient id="l" x1="23.582" y1="6.463" x2="39.8" y2="6.463" gradientUnits="userSpaceOnUse"><stop offset="0" stop-color="#edbc57"/><stop offset="0.092" stop-color="#ebb755"/><stop offset="0.623" stop-color="#e2a04a"/><stop offset="0.959" stop-color="#de9846"/></linearGradient><radialGradient id="m" cx="42.313" cy="24.082" r="16.092" xlink:href="#e"/><linearGradient id="n" x1="36.245" y1="9.731" x2="52.961" y2="9.731" gradientUnits="userSpaceOnUse"><stop offset="0" stop-color="#e7b079"/><stop offset="0.321" stop-color="#de9a61"/><stop offset="0.712" stop-color="#d6864a"/><stop offset="0.959" stop-color="#d37e42"/></linearGradient><linearGradient id="o" x1="49.345" y1="13.478" x2="69.101" y2="13.478" xlink:href="#d"/><linearGradient id="p" x1="65.751" y1="16.058" x2="72.869" y2="16.058" xlink:href="#l"/><linearGradient id="q" x1="60.732" y1="27.682" x2="40.299" y2="30.075" xlink:href="#n"/><radialGradient id="r" cx="58.724" cy="32.311" r="5.892" xlink:href="#e"/><radialGradient id="s" cx="49.392" cy="48.146" r="7.422" xlink:href="#e"/><linearGradient id="t" x1="32.225" y1="44.273" x2="52.408" y2="44.273" xlink:href="#n"/><linearGradient id="u" x1="12.194" y1="29.745" x2="32.157" y2="29.745" xlink:href="#n"/><linearGradient id="v" x1="45.374" y1="37.807" x2="60.292" y2="37.807" xlink:href="#d"/><linearGradient id="w" x1="31.913" y1="37.626" x2="37.393" y2="30.249" gradientUnits="userSpaceOnUse"><stop offset="0" stop-color="#6f4d30"/><stop offset="0.304" stop-color="#855f37"/><stop offset="0.705" stop-color="#9c723d"/><stop offset="0.959" stop-color="#a47940"/></linearGradient><linearGradient id="x" x1="33.4" y1="34.061" x2="48.507" y2="34.061" gradientUnits="userSpaceOnUse"><stop offset="0" stop-color="#512b13"/><stop offset="0.103" stop-color="#653b1a"/><stop offset="0.387" stop-color="#99632d"/><stop offset="0.635" stop-color="#bf803b"/><stop offset="0.834" stop-color="#d69143"/><stop offset="0.959" stop-color="#de9846"/></linearGradient><linearGradient id="y" x1="25.838" y1="17.896" x2="26.77" y2="11.681" xlink:href="#w"/><linearGradient id="z" x1="26.275" y1="15.165" x2="40.978" y2="15.165" xlink:href="#x"/></defs><polygon class="a" points="55.223 59.318 53.036 53.246 0 38.497 2.67 43.989 55.223 59.318"/><polygon class="b" points="75.543 19.802 75.543 11.951 53.036 53.246 55.223 59.318 75.543 19.802"/><polygon class="c" points="53.036 53.246 75.543 11.951 27.609 0 0 38.497 53.036 53.246"/><polygon class="d" points="18.849 33.76 7.468 30.772 2.675 37.458 13.95 40.592 18.849 33.76"/><polygon class="e" points="36.058 38.277 20.087 34.084 15.177 40.934 30.998 45.334 36.058 38.277"/><polygon class="f" points="15.35 24.325 12.6 23.619 8.216 29.73 10.956 30.45 15.35 24.325"/><polygon class="g" points="25.032 9.914 22.832 9.349 18.464 15.441 20.664 16.006 25.032 9.914"/><polygon class="h" points="29.134 19.417 17.716 16.485 13.348 22.575 24.768 25.507 29.134 19.417"/><polygon class="i" points="40.978 14.007 26.275 10.232 21.907 16.324 36.607 20.099 40.978 14.007"/><polygon class="j" points="57.003 18.123 42.221 14.327 37.85 20.419 52.775 24.252 57.003 18.123"/><polygon class="k" points="58.238 18.438 54.01 24.568 64.922 27.371 68.372 21.04 58.238 18.438"/><polygon class="l" points="39.8 4.548 28.328 1.687 23.582 8.307 35.002 11.238 39.8 4.548"/><polygon class="m" points="44.416 23.341 30.377 19.737 26.011 25.827 40.05 29.431 44.416 23.341"/><polygon class="n" points="52.961 7.828 41.05 4.859 36.245 11.559 48.103 14.602 52.961 7.828"/><polygon class="o" points="69.101 11.853 54.209 8.139 49.345 14.92 64.525 18.816 69.101 11.853"/><polygon class="p" points="70.332 12.159 65.751 19.132 68.963 19.956 72.869 12.792 70.332 12.159"/><polygon class="q" points="61.373 27.695 45.659 23.661 41.291 29.751 57.323 33.867 61.373 27.695"/><polygon class="r" points="62.6 28.009 58.547 34.18 60.883 34.781 64.333 28.455 62.6 28.009"/><polygon class="s" points="54.02 42.891 49.168 50.28 52.345 51.163 56.498 43.543 54.02 42.891"/><polygon class="t" points="52.408 42.571 37.294 38.602 32.225 45.676 47.565 49.943 52.408 42.571"/><polygon class="u" points="32.157 28.642 16.592 24.645 12.194 30.774 27.705 34.846 32.157 28.642"/><polygon class="v" points="49.742 33.155 45.374 39.485 56.699 42.459 60.292 35.864 49.742 33.155"/><polygon class="w" points="33.4 28.959 28.943 35.171 36.96 37.497 33.4 28.959"/><polygon class="x" points="48.507 32.839 33.4 28.959 36.927 37.488 44.145 39.163 48.507 32.839"/><polygon class="y" points="26.275 10.232 21.907 16.259 29.933 18.443 26.275 10.232"/><polygon class="z" points="40.978 14.007 26.275 10.232 29.901 18.433 36.607 20.099 40.978 14.007"/></svg>