<svg xmlns="http://www.w3.org/2000/svg" xmlns:xlink="http://www.w3.org/1999/xlink" viewBox="0 0 75.643 59.395"><defs><style>.a{fill:url(#a);}.b{fill:url(#b);}.c{fill:url(#c);}.d{fill:#e9c89f;}.e{fill:#8f6325;}.f{fill:#e09e61;}</style><linearGradient id="a" x1="-1622.251" y1="-11.513" x2="-1527.829" y2="-11.513" gradientTransform="translate(949.99 55.714) scale(0.586)" gradientUnits="userSpaceOnUse"><stop offset="0" stop-color="#9e6624"/><stop offset="0.558" stop-color="#b06c1f"/><stop offset="1" stop-color="#b86f1d"/></linearGradient><linearGradient id="b" x1="-1669.586" y1="-177.557" x2="-1631.098" y2="-177.557" gradientTransform="translate(1030.814 139.658) scale(0.586)" xlink:href="#a"/><radialGradient id="c" cx="-1756.321" cy="-180.642" r="124.543" gradientTransform="translate(1030.814 139.658) scale(0.586)" gradientUnits="userSpaceOnUse"><stop offset="0" stop-color="#f6dcb5"/><stop offset="0.281" stop-color="#edc28b"/><stop offset="0.574" stop-color="#e5ab65"/><stop offset="0.81" stop-color="#e09d4e"/><stop offset="0.959" stop-color="#de9846"/></radialGradient></defs><polygon class="a" points="55.294 59.395 53.104 53.316 0 38.549 2.673 44.045 55.294 59.395"/><polygon class="b" points="75.643 19.829 75.643 11.965 53.104 53.316 55.294 59.395 75.643 19.829"/><polygon class="c" points="53.104 53.316 75.643 11.965 27.646 0 0 38.549 53.104 53.316"/><path class="d" d="M30.907,42.507c-2.151.8-4.565.271-5.355-1.175L15.463,22.685c-.734-1.375.43-3.15,2.58-3.954l28.083-11.1c2.1-.874,4.408-.472,5.142.9L61.357,27.184c.791,1.445-.272,3.351-2.369,4.226Z"/><path class="e" d="M31.887,41.024c-2.214.832-4.7.291-5.507-1.2l-9.035-16.7c-.759-1.419.435-3.254,2.649-4.085L45.14,9.107c2.164-.9,4.548-.478,5.308.942l9.034,16.7c.81,1.485-.289,3.443-2.452,4.34Z"/><path class="f" d="M32.557,39.374c-1.985.75-4.207.269-4.931-1.063L19.519,23.328c-.684-1.278.384-2.929,2.367-3.678L44.45,10.733c1.943-.8,4.087-.419,4.773.857l8.106,14.984c.725,1.33-.266,3.082-2.208,3.883Z"/><path class="e" d="M39.334,28.591a2.686,2.686,0,0,1-2.851,1.191L34.9,29.46q-1.7-.347-.95-1.954L38.865,17.2q.474-.988.646-1.271,1.3-2.121,5.285-1.389t2.7,2.882q-.36.6-.835,1.25Zm-7.922,7.992a3.007,3.007,0,0,1-2.163-1.449,2.2,2.2,0,0,1,.14-2.335,4.66,4.66,0,0,1,2.42-1.859,5.68,5.68,0,0,1,3.215-.327,3,3,0,0,1,2.189,1.441,2.24,2.24,0,0,1-.126,2.353,4.592,4.592,0,0,1-2.407,1.875A5.671,5.671,0,0,1,31.412,36.583Z"/></svg>