<?xml version="1.0" encoding="UTF-8"?><svg id="b" xmlns="http://www.w3.org/2000/svg" xmlns:xlink="http://www.w3.org/1999/xlink" viewBox="0 0 76.248 59.871"><defs><style>.k{fill:#fce2cb;}.k,.l,.m,.n,.o,.p,.q{stroke-width:0px;}.l{fill:url(#e);}.m{fill:url(#f);}.n{fill:url(#j);}.o{fill:url(#i);}.p{fill:url(#h);}.q{fill:url(#g);}</style><linearGradient id="e" x1="-1226.346" y1="2.677" x2="-1131.168" y2="2.677" gradientTransform="translate(718.148 47.796) scale(.586)" gradientUnits="userSpaceOnUse"><stop offset="0" stop-color="#9e6624"/><stop offset=".558" stop-color="#af6c1f"/><stop offset="1" stop-color="#b86f1d"/></linearGradient><linearGradient id="f" x1="-1272.955" y1="-163.549" x2="-1234.159" y2="-163.549" gradientTransform="translate(798.972 131.74) scale(.586)" xlink:href="#e"/><radialGradient id="g" cx="-1360.384" cy="-166.66" fx="-1360.384" fy="-166.66" r="125.539" gradientTransform="translate(798.972 131.74) scale(.586)" gradientUnits="userSpaceOnUse"><stop offset="0" stop-color="#fbe0b7"/><stop offset=".297" stop-color="#f2c488"/><stop offset=".583" stop-color="#ecae63"/><stop offset=".814" stop-color="#e8a04c"/><stop offset=".959" stop-color="#e79c44"/></radialGradient><linearGradient id="h" x1="-1291.64" y1="-233.296" x2="-1289.685" y2="-166.847" gradientTransform="translate(798.972 131.74) scale(.586)" gradientUnits="userSpaceOnUse"><stop offset="0" stop-color="#fbe0b7"/><stop offset=".074" stop-color="#f8d8a9"/><stop offset=".381" stop-color="#efba75"/><stop offset=".649" stop-color="#e9a450"/><stop offset=".865" stop-color="#e59639"/><stop offset="1" stop-color="#e49231"/></linearGradient><linearGradient id="i" x1="179.528" y1="-190.774" x2="190.837" y2="-205.492" gradientTransform="translate(-101.72 255.607) rotate(-11.701)" gradientUnits="userSpaceOnUse"><stop offset="0" stop-color="#d77927"/><stop offset=".239" stop-color="#d37625"/><stop offset=".438" stop-color="#c96f21"/><stop offset=".621" stop-color="#b8631a"/><stop offset=".796" stop-color="#9f5210"/><stop offset=".964" stop-color="#803d03"/><stop offset="1" stop-color="#793800"/></linearGradient><linearGradient id="j" x1="27.232" y1="48.492" x2="42.699" y2="15.528" gradientTransform="matrix(1,0,0,1,0,0)" xlink:href="#i"/></defs><g id="c"><g id="d"><polygon class="l" points="55.736 59.871 53.53 53.741 0 38.856 2.694 44.398 55.736 59.871"/><polygon class="m" points="76.248 19.986 76.248 12.06 53.53 53.741 55.736 59.871 76.248 19.986"/><polygon class="q" points="53.53 53.741 76.248 12.06 27.864 0 0 38.856 53.53 53.741"/><polygon class="p" points="62.062 38.089 76.248 12.06 27.864 0 10.289 24.508 62.062 38.089"/><path class="o" d="M44.337,33.415s3.049-4.904,3.861-7.445c1.35-4.217.766-8-3.814-10.931-4.96-3.17-11.061-1.16-12.24,4.218-.809,3.702.509,5.733,1.203,7.613,1.111,2.998,1.869,4.175,1.869,4.175l9.12,2.371Z"/><path class="k" d="M27.68,46.097c-.284,0-.554-.142-.715-.389l-6.462-9.962c-.192-.296-.182-.679.024-.963.163-.225.421-.352.688-.352.074,0,.148.01.221.03l4.983,1.334c2.263-2.912,15.309-19.735,16.631-21.474,2.702.908,4.085,2.854,4.946,4.425-1.337,2.481-7.374,16.28-9.046,19.959l4.717,1.264c.371.1.629.435.631.816.001.382-.251.721-.62.826l-15.768,4.454c-.076.021-.155.032-.231.032Z"/><path class="n" d="M47.508,17.998c-1.573,2.917-9.747,20.858-9.747,20.858l5.686,1.524-15.767,4.455-6.464-9.964,5.529,1.482s15.337-19.782,16.803-21.709c1.686.589,2.703,1.583,3.96,3.353Z"/></g></g></svg>