<svg xmlns="http://www.w3.org/2000/svg" xmlns:xlink="http://www.w3.org/1999/xlink" viewBox="0 0 74.147 61.126"><defs><style>.a{fill:none;}.b{fill:url(#a);}.c{fill:url(#b);}.d{clip-path:url(#c);}.e{fill:url(#d);}.f{fill:url(#e);}.g{fill:#fce2cb;}.h{fill:url(#f);}</style><radialGradient id="a" cx="2.267" cy="-8.464" r="79.417" gradientTransform="translate(0 48.769) scale(1 1.173)" gradientUnits="userSpaceOnUse"><stop offset="0" stop-color="#e8dabc"/><stop offset="0.181" stop-color="#dcc096"/><stop offset="0.453" stop-color="#cd9d62"/><stop offset="0.69" stop-color="#c1843c"/><stop offset="0.88" stop-color="#bb7525"/><stop offset="1" stop-color="#b86f1d"/></radialGradient><radialGradient id="b" cx="3.289" cy="-17.766" r="68.29" gradientTransform="translate(0 48.769) scale(1 1.173)" gradientUnits="userSpaceOnUse"><stop offset="0" stop-color="#f6dcb5"/><stop offset="0.041" stop-color="#f5d8ad"/><stop offset="0.346" stop-color="#ebbd7a"/><stop offset="0.611" stop-color="#e4a954"/><stop offset="0.824" stop-color="#e09c3d"/><stop offset="0.959" stop-color="#de9835"/></radialGradient><clipPath id="c"><path class="a" d="M73.059,22.111c0,11.856-16.11,21.468-35.991,21.468S1.089,33.967,1.089,22.111,17.2.652,37.068.652,73.059,10.257,73.059,22.111Z"/></clipPath><linearGradient id="d" x1="-1430.146" y1="-232.337" x2="-1428.35" y2="-171.311" gradientTransform="translate(874.307 132.228) scale(0.586)" gradientUnits="userSpaceOnUse"><stop offset="0" stop-color="#fbe0b7"/><stop offset="0.074" stop-color="#f9d8aa"/><stop offset="0.381" stop-color="#f0ba76"/><stop offset="0.649" stop-color="#e9a450"/><stop offset="0.865" stop-color="#e59739"/><stop offset="1" stop-color="#e49231"/></linearGradient><linearGradient id="e" x1="182.401" y1="-233.866" x2="193.71" y2="-248.584" gradientTransform="translate(-98.178 292.5) rotate(-11.701)" gradientUnits="userSpaceOnUse"><stop offset="0" stop-color="#d77927"/><stop offset="0.239" stop-color="#d47726"/><stop offset="0.438" stop-color="#c97021"/><stop offset="0.621" stop-color="#b8641a"/><stop offset="0.796" stop-color="#a05310"/><stop offset="0.964" stop-color="#813d03"/><stop offset="1" stop-color="#793800"/></linearGradient><linearGradient id="f" x1="24.842" y1="42.705" x2="40.377" y2="9.597" gradientTransform="matrix(1, 0, 0, 1, 0, 0)" xlink:href="#e"/></defs><path class="b" d="M74.145,22.111C73.725,9.906,57.55,0,37.068,0S-.173,9.9,0,22.111C.036,24.525,1.667,39.38,1.667,39.38c1.549,12.237,16.044,21.746,35.4,21.746,18.92,0,34.367-9.256,35.372-20.913h0S74.218,24.169,74.145,22.111Z"/><path class="c" d="M73.059,22.111c0,11.856-16.11,21.468-35.991,21.468S1.089,33.967,1.089,22.111,17.2.652,37.068.652,73.059,10.257,73.059,22.111Z"/><g class="d"><polygon class="e" points="70.641 35.164 73.445 24.901 73.549 20.289 71.223 14.079 66.711 9.38 60.547 5.395 52.953 2.449 47.151 1.096 36.283 0.27 24.398 1.462 12.751 5.651 8.052 8.801 4.289 12.24 1.394 16.804 70.641 35.164"/></g><path class="f" d="M41.953,27.529a49.426,49.426,0,0,0,3.862-7.444c1.349-4.217.765-8-3.814-10.932-4.96-3.17-11.061-1.159-12.24,4.219-.81,3.7.509,5.733,1.2,7.612a24.088,24.088,0,0,0,1.869,4.175Z"/><path class="g" d="M25.3,40.3a.851.851,0,0,1-.714-.389L18.12,29.946a.85.85,0,0,1,.712-1.315.869.869,0,0,1,.22.029l4.983,1.334C26.3,27.082,39.371,10.183,40.693,8.443A8.8,8.8,0,0,1,45.64,12.9c-1.337,2.481-7.4,16.329-9.074,20.008l4.717,1.264A.851.851,0,0,1,41.3,35.81L25.527,40.264A.919.919,0,0,1,25.3,40.3Z"/><path class="h" d="M45.18,12.112c-1.573,2.918-9.8,20.943-9.8,20.943l5.686,1.524L25.3,39.035l-6.464-9.964,5.529,1.481S39.78,10.642,41.247,8.716C42.932,9.3,43.923,10.342,45.18,12.112Z"/></svg>