<svg xmlns="http://www.w3.org/2000/svg" xmlns:xlink="http://www.w3.org/1999/xlink" viewBox="0 0 65.105 41.997"><defs><style>.a{fill:url(#a);}.b{fill:url(#b);}.c{fill:#7e7e7f;}</style><radialGradient id="a" cx="5.532" cy="30.428" r="59.942" gradientUnits="userSpaceOnUse"><stop offset="0" stop-color="#787878"/><stop offset="0.109" stop-color="#6f6f6e"/><stop offset="0.441" stop-color="#595756"/><stop offset="0.748" stop-color="#4c4847"/><stop offset="1" stop-color="#474342"/></radialGradient><radialGradient id="b" cx="0.779" cy="20.02" r="68.852" gradientUnits="userSpaceOnUse"><stop offset="0" stop-color="#c2c3c3"/><stop offset="1" stop-color="#9a9998"/></radialGradient></defs><path class="a" d="M43.405,34.887.334,23.071S2.6,28.655,2.886,29.182A4.688,4.688,0,0,0,5.779,31.3c.814.268,31.239,9.458,33.085,10.019,3.971,1.183,7.085.855,9.562-1.252.976-.825,14.534-12.04,15.242-12.74A3.474,3.474,0,0,0,65.1,24.647V17.535Z"/><path class="b" d="M47.663,33.038c1.348-1.222,14.466-11.051,15.845-12.351,2.4-2.267,2.4-4.755-2.152-6.063-2.4-.691-43.018-11.967-53.9-14.459A6.1,6.1,0,0,0,0,4.929S-.01,18.454.016,19.491c.076,2.941-.082,4.7,2.479,5.48C10.113,27.308,36.632,34.7,37.662,35,40.918,35.954,44.591,35.833,47.663,33.038Z"/><path class="c" d="M13.6,8.634c-.244,1.844-2.423,3.075-4.863,2.747S4.512,9.3,4.758,7.459,7.179,4.384,9.621,4.7,13.84,6.79,13.6,8.634Z"/><path class="c" d="M24.105,11.363c-.246,1.849-2.422,3.075-4.862,2.756s-4.22-2.082-3.976-3.93S17.69,7.118,20.13,7.442,24.349,9.524,24.105,11.363Z"/><path class="c" d="M34.615,14c-.246,1.844-2.423,3.075-4.863,2.751s-4.221-2.082-3.975-3.926,2.42-3.075,4.86-2.747S34.859,12.149,34.615,14Z"/><path class="c" d="M45.122,16.848C44.878,18.7,42.7,19.927,40.261,19.6s-4.221-2.077-3.975-3.926,2.423-3.075,4.863-2.746S45.368,15.008,45.122,16.848Z"/><path class="c" d="M13.6,19.405c-.244,1.844-2.423,3.074-4.863,2.746S4.512,20.07,4.758,18.23s2.421-3.079,4.863-2.755S13.84,17.556,13.6,19.405Z"/><path class="c" d="M24.105,22.134c-.246,1.848-2.422,3.075-4.862,2.751s-4.22-2.077-3.976-3.926,2.423-3.075,4.863-2.751S24.349,20.294,24.105,22.134Z"/><path class="c" d="M34.615,24.768c-.246,1.844-2.423,3.075-4.863,2.751s-4.221-2.081-3.975-3.925,2.42-3.075,4.86-2.756S34.859,22.92,34.615,24.768Z"/><path class="c" d="M45.122,27.619c-.244,1.848-2.421,3.074-4.861,2.755s-4.221-2.082-3.975-3.926,2.423-3.079,4.863-2.755S45.368,25.779,45.122,27.619Z"/><path class="c" d="M55.633,19.629c-.246,1.849-2.422,3.075-4.862,2.755s-4.22-2.085-3.978-3.93,2.425-3.074,4.865-2.75S55.875,17.785,55.633,19.629Z"/></svg>