<svg xmlns="http://www.w3.org/2000/svg" xmlns:xlink="http://www.w3.org/1999/xlink" viewBox="0 0 71.709 42.79"><defs><style>.a{fill:url(#a);}</style><radialGradient id="a" cx="-7778.708" cy="-7862.246" r="47.596" gradientTransform="matrix(0.888, 0.498, -0.305, 0.562, 4537.378, 8302.684)" gradientUnits="userSpaceOnUse"><stop offset="0" stop-color="#fff"/><stop offset="0.191" stop-color="#fef5f9"/><stop offset="0.519" stop-color="#fad9e8"/><stop offset="0.721" stop-color="#f7c5db"/><stop offset="1" stop-color="#f2a4c1"/></radialGradient></defs><path class="a" d="M64.02,25.78a13.468,13.468,0,0,0-13-10.265,13.2,13.2,0,0,0-6.576,1.753c.019-.321.031-.643.031-.967a16.061,16.061,0,1,0-32.119,0,16.436,16.436,0,0,0,1.5,6.88,9.86,9.86,0,0,0-3.814-.767,10.189,10.189,0,0,0,0,20.376H63.312a8.526,8.526,0,0,0,.708-17.01Z"/></svg>