<?xml version="1.0" encoding="UTF-8"?><svg id="b" xmlns="http://www.w3.org/2000/svg" xmlns:xlink="http://www.w3.org/1999/xlink" viewBox="0 0 71.986 42.955"><defs><style>.f{fill:url(#e);}</style><radialGradient id="e" cx="-7775.374" cy="-7862.18" fx="-7775.374" fy="-7862.18" r="47.78" gradientTransform="translate(4534.555 8301.051) rotate(29.259) scale(1.018 .639) skewX(.455)" gradientUnits="userSpaceOnUse"><stop offset="0" stop-color="#fff"/><stop offset=".191" stop-color="#fdf4f8"/><stop offset=".519" stop-color="#f9d9e7"/><stop offset=".721" stop-color="#f7c5db"/><stop offset="1" stop-color="#f2a4c1"/></radialGradient></defs><g id="c"><g id="d"><path class="f" d="m64.267,25.879c-1.487-5.919-6.759-10.304-13.055-10.304-2.4,0-4.648.644-6.601,1.76.018-.322.03-.645.03-.971C44.642,7.325,37.424,0,28.521,0S12.399,7.325,12.399,16.363c0,2.468.542,4.807,1.506,6.907-1.181-.494-2.474-.77-3.83-.77-5.565,0-10.076,4.578-10.076,10.228s4.512,10.227,10.076,10.227h53.48c4.656,0,8.43-3.831,8.43-8.557,0-4.482-3.397-8.152-7.719-8.519Z"/></g></g></svg>