<svg xmlns="http://www.w3.org/2000/svg" xmlns:xlink="http://www.w3.org/1999/xlink" viewBox="0 0 77.574 60.615"><defs><style>.a{fill:url(#a);}.b{fill:url(#b);}.c{fill:url(#c);}.d{fill:url(#d);}</style><radialGradient id="a" cx="-1159.095" cy="-76.163" r="182.661" gradientTransform="translate(650.06 91.396) scale(0.586)" gradientUnits="userSpaceOnUse"><stop offset="0" stop-color="#6db56e"/><stop offset="0.19" stop-color="#81b462"/><stop offset="0.581" stop-color="#b6b044"/><stop offset="1" stop-color="#f5ac20"/></radialGradient><radialGradient id="b" cx="-1179.332" cy="-251.846" r="107.03" gradientTransform="translate(730.884 175.34) scale(0.586)" xlink:href="#a"/><radialGradient id="c" cx="28.701" cy="0.917" r="60.682" gradientUnits="userSpaceOnUse"><stop offset="0" stop-color="#d6e8d1"/><stop offset="0.13" stop-color="#cce2c6"/><stop offset="0.337" stop-color="#d4deb0"/><stop offset="0.764" stop-color="#e9d478"/><stop offset="1" stop-color="#f6ce56"/></radialGradient><radialGradient id="d" cx="70.402" cy="73.36" r="35.597" gradientTransform="translate(-43.067 -26.049) rotate(-4.083)" gradientUnits="userSpaceOnUse"><stop offset="0" stop-color="#fff100"/><stop offset="0.12" stop-color="#fbd80a"/><stop offset="0.419" stop-color="#f2a021"/><stop offset="0.676" stop-color="#eb7731"/><stop offset="0.878" stop-color="#e75d3b"/><stop offset="1" stop-color="#e5543f"/></radialGradient></defs><polygon class="a" points="54.887 60.615 53.078 55.592 0 40.294 2.221 44.84 54.887 60.615"/><polygon class="b" points="77.574 19.699 77.574 12.451 53.078 55.592 54.887 60.615 77.574 19.699"/><polygon class="c" points="28.461 0 0 40.294 53.078 55.592 77.574 12.451 28.461 0"/><path class="d" d="M47.574,18.424c-1.024,2.819-.217,8.059.363,11.932s-.919,8.15-2.476,11.079a15.833,15.833,0,0,1-5.8,6.275c-3.274,1.732-6.137,1.423-7.7,1.512a23.74,23.74,0,0,0,3.538-1.4,9.358,9.358,0,0,0,3.658-3.849,31.752,31.752,0,0,0,1.538-8.292c-1.8,1.733-6.519,5.258-6.692,4.441-.415-1.953.2-5.386.908-7.335s6.679-9.668,7.188-10.818a52.637,52.637,0,0,0-5.716,3.734,50.539,50.539,0,0,0-6.435,5.456,23.794,23.794,0,0,0-3.732,5.578,12.353,12.353,0,0,0-.564,6.4,8.415,8.415,0,0,0,1.887,4.2,14.209,14.209,0,0,1-2.471-2.349c-1.429-1.811-3.178-5.982-2.629-9.217.712-4.2,2.226-7.821,3.737-9.631a41.651,41.651,0,0,1,6.262-6.395c3.357-2.8,7.35-3.994,11-4.86A82.08,82.08,0,0,0,51.95,12.3C50.781,14.148,48.6,15.605,47.574,18.424Z"/></svg>