<svg xmlns="http://www.w3.org/2000/svg" xmlns:xlink="http://www.w3.org/1999/xlink" viewBox="0 0 72.558 55.944"><defs><style>.a{fill:url(#a);}.b{fill:url(#b);}.c{fill:url(#c);}</style><radialGradient id="a" cx="-1167.869" cy="-63.322" r="238.086" gradientTransform="translate(687.243 89.393) scale(0.586)" gradientUnits="userSpaceOnUse"><stop offset="0" stop-color="#ababab"/><stop offset="0.304" stop-color="#9a9a9a"/><stop offset="0.685" stop-color="#8b8b8c"/><stop offset="1" stop-color="#868687"/></radialGradient><radialGradient id="b" cx="-1219.152" cy="-210.49" r="89.087" gradientTransform="translate(768.067 173.337) scale(0.586)" gradientUnits="userSpaceOnUse"><stop offset="0" stop-color="#9e9d9e"/><stop offset="0.103" stop-color="#9a999a"/><stop offset="0.594" stop-color="#8b8b8c"/><stop offset="1" stop-color="#868687"/></radialGradient><radialGradient id="c" cx="-1295.491" cy="-245.25" r="105.333" gradientTransform="translate(768.067 173.337) scale(0.586)" gradientUnits="userSpaceOnUse"><stop offset="0" stop-color="#e3e2e3"/><stop offset="0.066" stop-color="#dddcdd"/><stop offset="0.422" stop-color="#c4c4c4"/><stop offset="0.744" stop-color="#b4b4b4"/><stop offset="1" stop-color="#afafaf"/></radialGradient></defs><path class="a" d="M54.29,55.944l-1.352-5.983c2.19-3.7,2.616-6.551-1.15-9.286C39.6,31.822,2.788,27.79,1.2,30.263a6.665,6.665,0,0,0-1.092,4.81S.628,36.761,1.5,40.479C2.61,45.2,17.247,53.6,27.129,47.6,41.5,38.859,58.306,48.969,54.29,55.944Z"/><polygon class="b" points="72.558 20.632 72.558 13.285 52.938 49.961 54.29 55.944 72.558 20.632"/><path class="c" d="M52.938,49.961c6.953-12.3,19.62-36.676,19.62-36.676L22.354,0S12.844,13.389,1.2,30.263c-5.8,8.414,14.266,19.58,25.505,12.119C38.217,34.741,58.226,43.158,52.938,49.961Z"/></svg>