<svg xmlns="http://www.w3.org/2000/svg" xmlns:xlink="http://www.w3.org/1999/xlink" viewBox="0 0 77.574 60.615"><defs><style>.a{fill:url(#a);}.b{fill:url(#b);}.c{fill:url(#c);}.d{fill:#ddeef2;}.e{fill:none;stroke:#f29c2e;stroke-width:0.498px;}.f{fill:#fff;}.g{fill:#f29c2e;}</style><radialGradient id="a" cx="-1094.061" cy="-72.564" r="182.661" gradientTransform="translate(611.976 89.289) scale(0.586)" gradientUnits="userSpaceOnUse"><stop offset="0" stop-color="#6db56e"/><stop offset="0.19" stop-color="#81b462"/><stop offset="0.581" stop-color="#b6b044"/><stop offset="1" stop-color="#f5ac20"/></radialGradient><radialGradient id="b" cx="-1114.297" cy="-248.248" r="107.03" gradientTransform="translate(692.8 173.233) scale(0.586)" xlink:href="#a"/><radialGradient id="c" cx="28.701" cy="0.917" r="60.682" gradientUnits="userSpaceOnUse"><stop offset="0" stop-color="#d6e8d1"/><stop offset="0.13" stop-color="#cce2c6"/><stop offset="0.337" stop-color="#d4deb0"/><stop offset="0.764" stop-color="#e9d478"/><stop offset="1" stop-color="#f6ce56"/></radialGradient></defs><polygon class="a" points="54.887 60.615 53.078 55.592 0 40.294 2.221 44.84 54.887 60.615"/><polygon class="b" points="77.574 19.699 77.574 12.451 53.078 55.592 54.887 60.615 77.574 19.699"/><polygon class="c" points="28.461 0 0 40.294 53.078 55.592 77.574 12.451 28.461 0"/><path class="d" d="M49.119,36.793c-.045-.127-14.87-32.178-14.87-32.178A3.9,3.9,0,1,0,27.173,7.9S42.046,39.922,42.117,40.041c.807,1.819-.866,5.338.926,9.2a6.89,6.89,0,0,0,12.5-5.795C53.821,39.733,50.141,38.883,49.119,36.793Z"/><line class="e" x1="37.622" y1="20.136" x2="39.644" y2="19.294"/><line class="e" x1="41.424" y1="27.415" x2="43.095" y2="26.719"/><line class="e" x1="45.233" y1="35.631" x2="46.943" y2="34.918"/><path class="f" d="M36.723,17.292,31.7,6.5a.883.883,0,1,0-1.6.748s2.2,4.72,5.037,10.809Z"/><path class="g" d="M36.723,17.292C41.875,28.357,48.993,43.563,49,43.581c.236.485.962.588,1.361,1.452a1.692,1.692,0,0,1-.678,2.219A1.573,1.573,0,0,1,47.6,46.46c-.412-.9,0-1.718-.184-2.141-.011-.019-7.125-15.2-12.282-26.258Z"/><line class="e" x1="34.272" y1="11.92" x2="35.999" y2="11.2"/></svg>