<svg xmlns="http://www.w3.org/2000/svg" xmlns:xlink="http://www.w3.org/1999/xlink" viewBox="0 0 92.845 70.721"><defs><style>.a{fill:url(#a);}.b{fill:url(#b);}.c{fill:url(#c);}.d{fill:#fff;}.e{fill:url(#d);}.f{fill:url(#e);}.g{fill:url(#f);}</style><radialGradient id="a" cx="-1657.8" cy="-201.125" r="138.858" gradientTransform="translate(1034.697 180.125) scale(0.586)" gradientUnits="userSpaceOnUse"><stop offset="0" stop-color="#9e9d9e"/><stop offset="0.103" stop-color="#9a999a"/><stop offset="0.594" stop-color="#8b8b8c"/><stop offset="1" stop-color="#868687"/></radialGradient><radialGradient id="b" cx="-1519.029" cy="-35.597" r="36.993" gradientTransform="translate(953.873 96.181) scale(0.586)" gradientUnits="userSpaceOnUse"><stop offset="0" stop-color="#ababab"/><stop offset="0.304" stop-color="#9a9a9a"/><stop offset="0.685" stop-color="#8b8b8c"/><stop offset="1" stop-color="#868687"/></radialGradient><radialGradient id="c" cx="-1625.85" cy="-67.048" r="38.421" xlink:href="#b"/><radialGradient id="d" cx="-1514.404" cy="-45.286" r="12.46" gradientTransform="translate(953.873 96.181) scale(0.586)" xlink:href="#a"/><radialGradient id="e" cx="11.785" cy="38.122" r="78.577" gradientUnits="userSpaceOnUse"><stop offset="0" stop-color="#e3e2e3"/><stop offset="0.066" stop-color="#dddcdd"/><stop offset="0.422" stop-color="#c4c4c4"/><stop offset="0.744" stop-color="#b4b4b4"/><stop offset="1" stop-color="#afafaf"/></radialGradient><radialGradient id="f" cx="-1597.238" cy="-19.538" r="265.887" xlink:href="#b"/></defs><polygon class="a" points="92.845 13.869 92.148 9.854 62.014 64.088 64.248 70.721 92.845 13.869"/><polygon class="b" points="69.111 70.708 66.876 64.076 62.699 62.855 64.92 69.31 69.111 70.708"/><polygon class="c" points="6.981 52.374 4.205 45.881 0 44.66 3.303 51.193 6.981 52.374"/><ellipse class="d" cx="2.572" cy="46.506" rx="0.492" ry="0.938" transform="translate(-18.937 5.193) rotate(-24.338)"/><ellipse class="d" cx="4.377" cy="50.247" rx="0.492" ry="0.938" transform="translate(-20.318 6.269) rotate(-24.338)"/><polygon class="e" points="69.111 70.708 69.532 69.809 67.328 63.099 66.876 64.076 69.111 70.708"/><ellipse class="d" cx="65.386" cy="64.782" rx="0.492" ry="0.938" transform="translate(-20.887 32.704) rotate(-24.338)"/><ellipse class="d" cx="66.583" cy="68.581" rx="0.492" ry="0.938" transform="translate(-22.346 33.535) rotate(-24.338)"/><polygon class="f" points="92.148 9.854 48.051 0 4.745 44.83 0.999 43.758 0 44.66 4.019 45.827 2.94 46.925 62.014 64.088 62.699 62.855 66.876 64.076 67.328 63.099 63.239 61.883 92.148 9.854"/><polygon class="g" points="64.248 70.721 62.014 64.088 2.94 46.925 5.884 53.078 64.248 70.721"/></svg>