<svg xmlns="http://www.w3.org/2000/svg" xmlns:xlink="http://www.w3.org/1999/xlink" viewBox="0 0 44.596 55.355"><defs><style>.a{fill:url(#a);}.b{fill:url(#b);}</style><radialGradient id="a" cx="-7.399" cy="-29.043" r="57.924" gradientTransform="translate(16.535 30.338) rotate(22.167)" gradientUnits="userSpaceOnUse"><stop offset="0" stop-color="#ededed"/><stop offset="0.126" stop-color="#e1e1e2"/><stop offset="0.459" stop-color="#c8c8c9"/><stop offset="0.76" stop-color="#b8b8b9"/><stop offset="1" stop-color="#b3b3b4"/></radialGradient><radialGradient id="b" cx="-7.598" cy="-31.02" r="52.269" gradientTransform="matrix(0.167, 0.986, -1.024, 0.174, -9.303, 11.632)" gradientUnits="userSpaceOnUse"><stop offset="0" stop-color="#bbb"/><stop offset="0.165" stop-color="#b7b7b7"/><stop offset="0.336" stop-color="#abaaaa"/><stop offset="0.51" stop-color="#989696"/><stop offset="0.686" stop-color="#7c7979"/><stop offset="0.862" stop-color="#595454"/><stop offset="1" stop-color="#383231"/></radialGradient></defs><path class="a" d="M25.962,53.9a2.42,2.42,0,0,1-2.8,1.383L1.374,49.318A1.81,1.81,0,0,1,.148,46.834L18.634,1.459a2.422,2.422,0,0,1,2.8-1.382L43.223,6.036A1.811,1.811,0,0,1,44.449,8.52Z"/><path class="b" d="M26.417,46.291a2.471,2.471,0,0,1-2.811,1.417L4.912,42.933a1.774,1.774,0,0,1-1.235-2.45l15.5-38.035a2.426,2.426,0,0,1,2.8-1.387L40.553,6.1a1.807,1.807,0,0,1,1.228,2.48Z"/></svg>