<svg xmlns="http://www.w3.org/2000/svg" xmlns:xlink="http://www.w3.org/1999/xlink" viewBox="0 0 74.818 61.605"><defs><style>.a{fill:url(#a);}.b{fill:url(#b);}</style><radialGradient id="a" cx="4.256" cy="-10.474" r="72.486" gradientTransform="matrix(0.928, 0.44, -0.265, 0.766, -2.792, 24.108)" gradientUnits="userSpaceOnUse"><stop offset="0" stop-color="#bbb"/><stop offset="0.165" stop-color="#b7b7b7"/><stop offset="0.336" stop-color="#abaaaa"/><stop offset="0.51" stop-color="#989696"/><stop offset="0.686" stop-color="#7c7979"/><stop offset="0.862" stop-color="#595454"/><stop offset="1" stop-color="#383231"/></radialGradient><radialGradient id="b" cx="11.379" cy="-11.385" r="66.888" gradientTransform="matrix(0.956, 0.351, -0.183, 0.683, -1.89, 20.678)" gradientUnits="userSpaceOnUse"><stop offset="0" stop-color="#dbdcdc"/><stop offset="0.431" stop-color="#bebfbf"/><stop offset="0.697" stop-color="#b2b3b3"/><stop offset="1" stop-color="#949494"/></radialGradient></defs><path class="a" d="M74.815,22.282C74.391,9.985,58.069,0,37.4,0S-.177,9.979,0,22.282C.034,24.714,1.68,39.688,1.68,39.688,3.242,52.019,17.872,61.605,37.4,61.605c19.087,0,34.681-9.333,35.693-21.081h0S74.887,24.356,74.815,22.282Z"/><path class="b" d="M73.719,22.282c0,11.951-16.255,21.636-36.317,21.636S1.1,34.233,1.1,22.282,17.35.656,37.4.656,73.719,10.336,73.719,22.282Z"/></svg>