<svg xmlns="http://www.w3.org/2000/svg" xmlns:xlink="http://www.w3.org/1999/xlink" viewBox="0 0 60.593 70.617"><defs><style>.a{fill:url(#a);}.b{fill:url(#b);}.c{fill:url(#c);}</style><radialGradient id="a" cx="-1452.285" cy="-243.571" r="86.915" gradientTransform="translate(870.312 177.254) scale(0.586)" gradientUnits="userSpaceOnUse"><stop offset="0" stop-color="#ededed"/><stop offset="0.126" stop-color="#e1e1e2"/><stop offset="0.459" stop-color="#c8c8c9"/><stop offset="0.76" stop-color="#b8b8b9"/><stop offset="1" stop-color="#b3b3b4"/></radialGradient><radialGradient id="b" cx="-1477.955" cy="-298.215" r="115.691" xlink:href="#a"/><radialGradient id="c" cx="-1474.366" cy="-293.618" r="97.287" gradientTransform="matrix(0.543, 0.22, -0.155, 0.382, 761.815, 441.476)" gradientUnits="userSpaceOnUse"><stop offset="0" stop-color="#bbb"/><stop offset="0.165" stop-color="#b7b7b7"/><stop offset="0.336" stop-color="#abaaaa"/><stop offset="0.51" stop-color="#989696"/><stop offset="0.686" stop-color="#7c7979"/><stop offset="0.862" stop-color="#595454"/><stop offset="1" stop-color="#383231"/></radialGradient></defs><path class="a" d="M46.646,69.387c.378-.548,10.327-19.97,13.457-25.867.495-.93.422-2.069-.744-2.387S19.734,30.761,18.978,30.562a1.8,1.8,0,0,0-1.87.875C13.848,36.08,1.113,54.4.477,55.38-.238,56.493-.4,58.162,1.79,58.8c1.948.568,33.727,9.631,41.073,11.7A4.027,4.027,0,0,0,46.646,69.387Z"/><path class="b" d="M59.412,41.241c.956.265,1.534-.483.941-1.792-2-4.418-13.731-26.317-14.185-27.156a4.035,4.035,0,0,0-2.509-2.36C35.378,7.85,4.535.324,3.358.048,2.005-.27.985,1.068,1.493,1.954,4.787,7.7,14.823,24.46,17.267,28.692c.471.817.875,1.59,1.711,1.87S58.458,40.976,59.412,41.241Z"/><path class="c" d="M53.559,37.5c.811.223,1.3-.413.8-1.524-1.7-3.75-11.471-21.112-11.878-21.815a3.72,3.72,0,0,0-2.13-2C33.32,10.388,7.5,4.025,6.5,3.791c-1.152-.272-2,.855-1.585,1.618C6.634,8.529,15.68,23.346,17.773,26.841c.411.688.742,1.353,1.452,1.589S52.749,37.272,53.559,37.5Z"/></svg>