<svg xmlns="http://www.w3.org/2000/svg" viewBox="0 0 58.848 58.901"><defs><style>.a{fill:none;stroke:#fff;stroke-width:1.661px;opacity:0.5;}.b{fill:#b7b7b7;}.c{fill:#fff;}.d{fill:#a0a0a0;}</style></defs><path class="a" d="M2.256,29.32c.464,1.207,3.578,10.434,4.979,14.593A9.385,9.385,0,0,0,9.6,46.778S26.666,54.9,28.187,55.593s2.483.455,4.048-1.11c1.33-1.33,19.085-23.516,24.4-30.16A6.19,6.19,0,0,0,58,19.688c-.121-2.167-.873-8.2-.858-10.242A3.489,3.489,0,0,0,54.75,5.721c-1.565-.6-16.856-4.093-18.18-4.575a2.968,2.968,0,0,0-3.371.483C31.874,2.591,4.047,24.37,3.036,25.508A3.191,3.191,0,0,0,2.256,29.32Z"/><path class="b" d="M2.256,29.32c.464,1.207,3.578,10.434,4.979,14.593A9.385,9.385,0,0,0,9.6,46.778S26.666,54.9,28.187,55.593s2.483.455,4.048-1.11c1.33-1.33,19.085-23.516,24.4-30.16A6.19,6.19,0,0,0,58,19.688c-.121-2.167-.873-8.2-.858-10.242A3.489,3.489,0,0,0,54.75,5.721c-1.565-.6-16.856-4.093-18.18-4.575a2.968,2.968,0,0,0-3.371.483C31.874,2.591,4.047,24.37,3.036,25.508A3.191,3.191,0,0,0,2.256,29.32Z"/><path class="c" d="M7.915,29.8c-1.565-.722-2.331-.523-1.647,1.244s2.249,7.064,3.092,9.592,1.37,3.146,2.25,3.921c.7.62,10.471,5.133,14.354,6.916.973.446,1.817.36,1.576-1.446s-1.2-8.066-1.445-10.354-1.161-3.153-2.254-3.578C19.607,34.449,9.159,30.375,7.915,29.8Z"/><path class="d" d="M4.4,54.888c4.2,3.991,9.575,5.229,11.911,2.693.466-.5,6.063-8.416,6.063-8.416,1.872-2.545.853-6.879-2.756-10.3C16.1,35.514,11.58,34.5,9.336,36.5c0,0-7.855,6.2-8.243,6.633C-1.191,45.714.2,50.893,4.4,54.888Z"/><path class="c" d="M12.387,46.871c3.006,2.854,4.062,6.62,2.362,8.411s-5.513.927-8.518-1.927-4.066-6.618-2.366-8.408S9.379,44.015,12.387,46.871Z"/></svg>