<svg xmlns="http://www.w3.org/2000/svg" viewBox="0 0 33.817 25.859"><defs><style>.a{fill:#60af71;}.b{fill:#fff;}</style></defs><path class="a" d="M33.817,10.244a3.068,3.068,0,0,0-1.728-2.567L20.762.948a8.306,8.306,0,0,0-7.707,0L1.728,7.677A3.068,3.068,0,0,0,0,10.244a2.412,2.412,0,0,0,.107.7l1.832,6.313a2.968,2.968,0,0,0,1.47,1.774l10.072,5.984a6.844,6.844,0,0,0,3.427.843,6.845,6.845,0,0,0,3.428-.843l10.073-5.984a2.948,2.948,0,0,0,1.478-1.812L33.694,11A2.392,2.392,0,0,0,33.817,10.244Z"/><path class="b" d="M16.909,1a6.722,6.722,0,0,0-3.345.807L2.6,8.533a2.13,2.13,0,0,0-1.21,1.711A2.129,2.129,0,0,0,2.6,11.953l10.961,6.73a7.337,7.337,0,0,0,6.689,0l10.962-6.73a2.129,2.129,0,0,0,1.209-1.709,2.131,2.131,0,0,0-1.209-1.711L20.253,1.8A6.716,6.716,0,0,0,16.909,1Z"/></svg>