<svg xmlns="http://www.w3.org/2000/svg" viewBox="0 0 33.192 26.031"><defs><style>.a{fill:none;stroke:#60af71;stroke-width:2.765px;}.b{fill:#fff;}.c{fill:#60af71;}</style></defs><path class="a" d="M31.809,10.6A2.759,2.759,0,0,0,30.254,8.29L20.063,2.235a7.48,7.48,0,0,0-6.934,0L2.938,8.29A2.759,2.759,0,0,0,1.383,10.6a2.169,2.169,0,0,0,.1.631l1.649,5.68a2.667,2.667,0,0,0,1.321,1.6l9.063,5.384a6.157,6.157,0,0,0,3.084.759,6.153,6.153,0,0,0,3.083-.759l9.063-5.384a2.645,2.645,0,0,0,1.33-1.63l1.626-5.6A2.157,2.157,0,0,0,31.809,10.6Z"/><path class="b" d="M31.809,10.6A2.759,2.759,0,0,0,30.254,8.29L20.063,2.235a7.48,7.48,0,0,0-6.934,0L2.938,8.29A2.759,2.759,0,0,0,1.383,10.6a2.169,2.169,0,0,0,.1.631l1.649,5.68a2.667,2.667,0,0,0,1.321,1.6l9.063,5.384a6.157,6.157,0,0,0,3.084.759,6.153,6.153,0,0,0,3.083-.759l9.063-5.384a2.645,2.645,0,0,0,1.33-1.63l1.626-5.6A2.157,2.157,0,0,0,31.809,10.6Z"/><path class="c" d="M16.6,2.279a6.033,6.033,0,0,0-3.009.727L3.724,9.06A1.919,1.919,0,0,0,2.636,10.6a1.916,1.916,0,0,0,1.088,1.538l9.863,6.055a6.6,6.6,0,0,0,6.018,0l9.862-6.055A1.917,1.917,0,0,0,30.556,10.6,1.92,1.92,0,0,0,29.467,9.06L19.605,3.006A6.036,6.036,0,0,0,16.6,2.279Z"/></svg>