<svg xmlns="http://www.w3.org/2000/svg" viewBox="0 0 30.99 26.03"><defs><style>.cls-1{fill:none;stroke:#cd514f;stroke-width:2.96px;}.cls-2{fill:#fff;}.cls-3{fill:#d85452;}</style></defs><g id="レイヤー_2" data-name="レイヤー 2"><g id="eye_catch" data-name="eye catch"><g id="layer3-va"><path class="cls-1" d="M15.49,1.48c-7.74,0-14.08,3.74-14,8.34,0,.92.63,6.53.63,6.53.58,4.61,6.06,8.21,13.38,8.21,7.15,0,13-3.5,13.37-7.9,0,0,.67-6.05.65-6.84C29.34,5.22,23.24,1.48,15.49,1.48Z"/><path class="cls-2" d="M15.49,1.48c-7.74,0-14.08,3.74-14,8.34,0,.92.63,6.53.63,6.53.58,4.61,6.06,8.21,13.38,8.21,7.15,0,13-3.5,13.37-7.9,0,0,.67-6.05.65-6.84C29.34,5.22,23.24,1.48,15.49,1.48Z"/><path class="cls-3" d="M15.49,17.34c-7,0-12.6-3.37-12.6-7.52s5.64-7.5,12.6-7.5,12.6,3.36,12.6,7.5S22.46,17.34,15.49,17.34Z"/></g></g></g></svg>