<svg xmlns="http://www.w3.org/2000/svg" viewBox="0 0 37.19 29.16"><defs><style>.cls-1{fill:none;stroke:#3ba8bb;stroke-width:3.2px;}.cls-2{fill:#fff;}.cls-3{fill:#3ea9bb;}</style></defs><g id="レイヤー_2" data-name="レイヤー 2"><g id="eye_catch" data-name="eye catch"><g id="layer1-va"><path class="cls-1" d="M35.22,7.67a1.14,1.14,0,0,0-.65-.43L13.41,1.65a1,1,0,0,0-.34,0,1.4,1.4,0,0,0-1.13.58L1.85,16.64a1.28,1.28,0,0,0-.24.62,1.51,1.51,0,0,0,.13.77l1,2a1.32,1.32,0,0,0,.84.71l22.8,6.8a1.32,1.32,0,0,0,.39.06A1.37,1.37,0,0,0,28,26.82L35.43,12.3a1.35,1.35,0,0,0,.16-.64v-3A1.65,1.65,0,0,0,35.22,7.67Z"/><path class="cls-2" d="M35.22,7.67a1.14,1.14,0,0,0-.65-.43L13.41,1.65a1,1,0,0,0-.34,0,1.4,1.4,0,0,0-1.13.58L1.85,16.64a1.28,1.28,0,0,0-.24.62,1.51,1.51,0,0,0,.13.77l1,2a1.32,1.32,0,0,0,.84.71l22.8,6.8a1.32,1.32,0,0,0,.39.06A1.37,1.37,0,0,0,28,26.82L35.43,12.3a1.35,1.35,0,0,0,.16-.64v-3A1.65,1.65,0,0,0,35.22,7.67Z"/><path class="cls-3" d="M33.1,9.28,25.78,23a1.22,1.22,0,0,1-1.07.64,2.09,2.09,0,0,1-.34,0L4,17.73A1.3,1.3,0,0,1,3.21,17a1.19,1.19,0,0,1,.15-1.1L12.3,3.05a1.25,1.25,0,0,1,1-.51,1.22,1.22,0,0,1,.32,0l18.72,5a1.18,1.18,0,0,1,.81.68A1.2,1.2,0,0,1,33.1,9.28Z"/></g></g></g></svg>