<svg xmlns="http://www.w3.org/2000/svg" viewBox="0 0 37.15 29.13"><defs><style>.cls-1{fill:none;stroke:#60af71;stroke-width:3.2px;}.cls-2{fill:#fff;}.cls-3{fill:#60af71;}</style></defs><g id="レイヤー_2" data-name="レイヤー 2"><g id="eye_catch" data-name="eye catch"><g id="layer2-va"><path class="cls-1" d="M35.19,7.67a1.16,1.16,0,0,0-.65-.44L13.4,1.65a1.06,1.06,0,0,0-.35,0,1.39,1.39,0,0,0-1.12.58L1.85,16.63a1.21,1.21,0,0,0-.24.61,1.49,1.49,0,0,0,.12.77l1,2a1.38,1.38,0,0,0,.84.71l22.79,6.79a1.21,1.21,0,0,0,.38.06,1.35,1.35,0,0,0,1.22-.74l7.48-14.5a1.47,1.47,0,0,0,.15-.65v-3A1.64,1.64,0,0,0,35.19,7.67Z"/><path class="cls-2" d="M35.19,7.67a1.16,1.16,0,0,0-.65-.44L13.4,1.65a1.06,1.06,0,0,0-.35,0,1.39,1.39,0,0,0-1.12.58L1.85,16.63a1.21,1.21,0,0,0-.24.61,1.49,1.49,0,0,0,.12.77l1,2a1.38,1.38,0,0,0,.84.71l22.79,6.79a1.21,1.21,0,0,0,.38.06,1.35,1.35,0,0,0,1.22-.74l7.48-14.5a1.47,1.47,0,0,0,.15-.65v-3A1.64,1.64,0,0,0,35.19,7.67Z"/><path class="cls-3" d="M33.07,9.27,25.75,23a1.22,1.22,0,0,1-1.07.63,1.24,1.24,0,0,1-.33,0L4,17.71A1.29,1.29,0,0,1,3.2,17a1.23,1.23,0,0,1,.16-1.1l8.92-12.8a1.26,1.26,0,0,1,1-.51,1.1,1.1,0,0,1,.31,0l18.71,5a1.18,1.18,0,0,1,.81.68A1.2,1.2,0,0,1,33.07,9.27Z"/></g></g></g></svg>