<svg xmlns="http://www.w3.org/2000/svg" viewBox="0 0 33.39 37.36"><defs><style>.cls-1{fill:#767777;}.cls-2{fill:#fff;}</style></defs><g id="レイヤー_2" data-name="レイヤー 2"><g id="eye_catch" data-name="eye catch"><g id="terminal"><path class="cls-1" d="M33.24,19.38c-.43-1.48-3.05-9.64-3.51-11.13S27.09,5.91,26,5.57C23.69,5,8.38.43,7.06.06,6.1-.21,4.49.39,4.93,2c.92,2.77,3.56,11,3.76,11.6A2.67,2.67,0,0,1,8.44,16c-.59.9-8.21,12-8.21,12a1.45,1.45,0,0,0-.13,1.3,2.8,2.8,0,0,0,1.78,1.33L24.3,37.3a1.21,1.21,0,0,0,.38.06,1.34,1.34,0,0,0,1.2-.73l7.35-14.27a3.79,3.79,0,0,0,.15-1.1s0-.25,0-.81C33.38,20.23,33.24,19.39,33.24,19.38Z"/><path class="cls-2" d="M26.27,18.49l-15.65-4.8a3.07,3.07,0,0,1-1.41-1.77L6.78,4.3c-.28-1,1-1.65,1.9-1.37L23.53,7.22A3.49,3.49,0,0,1,25.66,9l2.54,8.44C28.49,18.53,27,18.86,26.27,18.49Z"/></g></g></g></svg>