<svg xmlns="http://www.w3.org/2000/svg" viewBox="0 0 31.01 26.05"><defs><style>.cls-1{fill:none;stroke:#e0952a;stroke-width:2.96px;}.cls-2{fill:#fff;}.cls-3{fill:#e0952c;}</style></defs><g id="レイヤー_2" data-name="レイヤー 2"><g id="eye_catch" data-name="eye catch"><g id="layer4-7-va"><path class="cls-1" d="M15.5,1.48c-7.74,0-14.09,3.75-14,8.35,0,.92.63,6.53.63,6.53C2.69,21,8.18,24.57,15.5,24.57c7.16,0,13-3.49,13.38-7.9,0,0,.67-6.06.65-6.84C29.36,5.23,23.25,1.48,15.5,1.48Z"/><path class="cls-2" d="M15.5,1.48c-7.74,0-14.09,3.75-14,8.35,0,.92.63,6.53.63,6.53C2.69,21,8.18,24.57,15.5,24.57c7.16,0,13-3.49,13.38-7.9,0,0,.67-6.06.65-6.84C29.36,5.23,23.25,1.48,15.5,1.48Z"/><path class="cls-3" d="M15.5,17.35c-7,0-12.61-3.37-12.61-7.52S8.54,2.32,15.5,2.32,28.12,5.68,28.12,9.83,22.47,17.35,15.5,17.35Z"/></g></g></g></svg>