<svg xmlns="http://www.w3.org/2000/svg" viewBox="0 0 36.197 22.246"><defs><style>.a{fill:none;stroke:#fff;stroke-width:2.36px;}.b{fill:#d85452;}</style></defs><path class="a" d="M31.386,13.16a6.318,6.318,0,0,0-9.235-3.953c.006-.149.012-.3.012-.449a7.576,7.576,0,1,0-15.152,0,7.5,7.5,0,0,0,.709,3.191,4.829,4.829,0,0,0-1.8-.35,4.734,4.734,0,1,0,0,9.467H31.051a3.96,3.96,0,0,0,.335-7.906Z"/><path class="b" d="M31.386,13.16a6.318,6.318,0,0,0-9.235-3.953c.006-.149.012-.3.012-.449a7.576,7.576,0,1,0-15.152,0,7.5,7.5,0,0,0,.709,3.191,4.829,4.829,0,0,0-1.8-.35,4.734,4.734,0,1,0,0,9.467H31.051a3.96,3.96,0,0,0,.335-7.906Z"/></svg>