<svg xmlns="http://www.w3.org/2000/svg" viewBox="0 0 37.45 28.6"><defs><style>.cls-1{fill:#757777;}.cls-2{fill:#fff;}</style></defs><g id="レイヤー_2" data-name="レイヤー 2"><g id="eye_catch" data-name="eye catch"><g id="appliance"><path class="cls-1" d="M37.13,6.71a1.45,1.45,0,0,0-.8-.5L13,.05a1.24,1.24,0,0,0-.38,0A1.54,1.54,0,0,0,11.4.64L.28,16.57a1.58,1.58,0,0,0-.26.68,1.4,1.4,0,0,0,.14.85l1.05,2.16a1.5,1.5,0,0,0,.93.78l25.13,7.5a1.54,1.54,0,0,0,.43.06A1.51,1.51,0,0,0,29,27.78l8.25-16a1.6,1.6,0,0,0,.16-.71V7.68A1.58,1.58,0,0,0,37.13,6.71Z"/><path class="cls-2" d="M34.72,8.46,26.65,23.54a1.36,1.36,0,0,1-1.18.71,1.64,1.64,0,0,1-.37-.05L2.68,17.77a1.39,1.39,0,0,1-.9-.84A1.33,1.33,0,0,1,2,15.72L11.79,1.6A1.41,1.41,0,0,1,12.89,1a1.32,1.32,0,0,1,.34,0L33.87,6.54a1.32,1.32,0,0,1,.89.75A1.33,1.33,0,0,1,34.72,8.46Z"/></g></g></g></svg>