<svg xmlns="http://www.w3.org/2000/svg" viewBox="0 0 30.93 32.44"><defs><style>.cls-1{fill:none;stroke:#717071;stroke-width:2.4px;}.cls-2{fill:#fff;}.cls-3{fill:#717071;}</style></defs><g id="レイヤー_2" data-name="レイヤー 2"><g id="eye_catch" data-name="eye catch"><g id="server-vm"><path class="cls-1" d="M15.46,1.2C7.58,1.2,1.13,5,1.2,9.69c0,.93,1.9,14,1.9,14,.54,4.26,5.6,7.58,12.36,7.58,6.6,0,12-3.23,12.35-7.3,0,0,1.94-13.45,1.92-14.25C29.56,5,23.34,1.2,15.46,1.2Z"/><path class="cls-2" d="M15.46,1.2C7.58,1.2,1.13,5,1.2,9.69c0,.93,1.9,14,1.9,14,.54,4.26,5.6,7.58,12.36,7.58,6.6,0,12-3.23,12.35-7.3,0,0,1.94-13.45,1.92-14.25C29.56,5,23.34,1.2,15.46,1.2Z"/><path class="cls-3" d="M15.46,17.34c-7.08,0-12.82-3.43-12.82-7.65S8.38,2.06,15.46,2.06,28.29,5.47,28.29,9.69,22.55,17.34,15.46,17.34Z"/></g></g></g></svg>