<svg xmlns="http://www.w3.org/2000/svg" viewBox="0 0 36.22 22.27"><defs><style>.cls-1{fill:none;stroke:#fff;stroke-width:2.38px;}.cls-2{fill:#4fad6d;}</style></defs><g id="レイヤー_2" data-name="レイヤー 2"><g id="eye_catch" data-name="eye catch"><g id="layer2-cloud"><path class="cls-1" d="M31.4,13.17A6.34,6.34,0,0,0,25.26,8.4a6.26,6.26,0,0,0-3.1.82c0-.15,0-.3,0-.45A7.58,7.58,0,1,0,7,8.77,7.42,7.42,0,0,0,7.73,12a4.89,4.89,0,0,0-1.8-.35,4.74,4.74,0,1,0,0,9.47H31.06a4,4,0,0,0,.34-7.91Z"/><path class="cls-2" d="M31.4,13.17A6.34,6.34,0,0,0,25.26,8.4a6.26,6.26,0,0,0-3.1.82c0-.15,0-.3,0-.45A7.58,7.58,0,1,0,7,8.77,7.42,7.42,0,0,0,7.73,12a4.89,4.89,0,0,0-1.8-.35,4.74,4.74,0,1,0,0,9.47H31.06a4,4,0,0,0,.34-7.91Z"/></g></g></g></svg>