<svg xmlns="http://www.w3.org/2000/svg" xmlns:xlink="http://www.w3.org/1999/xlink" viewBox="0 0 61.875 61.445"><defs><style>.a{fill:url(#a);}.b{fill:#fff;}</style><radialGradient id="a" cx="30.937" cy="28.022" r="30.935" gradientTransform="translate(0 2.891) scale(1 0.993)" gradientUnits="userSpaceOnUse"><stop offset="0" stop-color="#fad8e0"/><stop offset="0.12" stop-color="#f9d3db"/><stop offset="0.268" stop-color="#f5c4ce"/><stop offset="0.43" stop-color="#efabb8"/><stop offset="0.602" stop-color="#e78899"/><stop offset="0.782" stop-color="#dc5b71"/><stop offset="0.967" stop-color="#cf2541"/><stop offset="1" stop-color="#cc1b38"/></radialGradient></defs><path class="a" d="M61.875,30.718A30.938,30.938,0,1,1,30.942,0,30.823,30.823,0,0,1,61.875,30.718Z"/><path class="b" d="M44.442,46V42.352h6.131V33.525H44.442v-.81a13.365,13.365,0,0,0-13.35-13.349H27.707V15.6h6.311L23.293,4.88,12.57,15.6h6.31v3.767H12.268v8.826H18.88V29A13.365,13.365,0,0,0,32.23,42.352h3.385V46H29.3l10.725,10.72L50.752,46ZM32.23,33.525A4.528,4.528,0,0,1,27.707,29v-.811h3.385a4.529,4.529,0,0,1,4.523,4.523v.81Z"/></svg>