<?xml version="1.0" encoding="UTF-8"?><svg id="b" xmlns="http://www.w3.org/2000/svg" xmlns:xlink="http://www.w3.org/1999/xlink" viewBox="0 0 56.851 46.147"><defs><style>.z{fill:url(#v);}.z,.aa,.ab,.ac,.ad,.ae,.af,.ag,.ah,.ai,.aj,.ak,.al,.am,.an,.ao,.ap,.aq,.ar,.as,.at{stroke-width:0px;}.aa{fill:url(#e);}.ab{fill:url(#y);}.ac{fill:url(#x);}.ad{fill:url(#w);}.ae{fill:url(#u);}.af{fill:url(#t);}.ag{fill:url(#f);}.ah{fill:url(#s);}.ai{fill:url(#j);}.aj{fill:url(#q);}.ak{fill:url(#r);}.al{fill:url(#i);}.am{fill:url(#h);}.an{fill:url(#m);}.ao{fill:url(#g);}.ap{fill:url(#o);}.aq{fill:url(#p);}.ar{fill:url(#k);}.as{fill:url(#n);}.at{fill:url(#l);}</style><linearGradient id="e" x1="13.32" y1="-8.881" x2="41.406" y2="49.542" gradientUnits="userSpaceOnUse"><stop offset="0" stop-color="#fff"/><stop offset="1" stop-color="#fff"/></linearGradient><linearGradient id="f" x1="-1013.08" y1="-11.398" x2="-1009.381" y2="-3.704" gradientTransform="translate(-524.596 881.91) rotate(121.246)" gradientUnits="userSpaceOnUse"><stop offset="0" stop-color="#fff"/><stop offset="1" stop-color="#a6cce8"/></linearGradient><linearGradient id="g" x1="2.474" y1="23.208" x2="18.717" y2="29.929" gradientUnits="userSpaceOnUse"><stop offset="0" stop-color="#fff"/><stop offset=".066" stop-color="#eef5fa"/><stop offset=".195" stop-color="#d4e6f3"/><stop offset=".337" stop-color="#bfdaee"/><stop offset=".497" stop-color="#b1d2ea"/><stop offset=".689" stop-color="#a8cde8"/><stop offset="1" stop-color="#a6cce8"/></linearGradient><linearGradient id="h" x1="10.139" y1="19.209" x2="17.759" y2="35.062" gradientTransform="matrix(1,0,0,1,0,0)" xlink:href="#f"/><linearGradient id="i" x1="6.006" y1="31.708" x2="8.033" y2="35.927" gradientTransform="matrix(1,0,0,1,0,0)" xlink:href="#f"/><linearGradient id="j" x1=".108" y1="35.322" x2="16.555" y2="42.127" gradientUnits="userSpaceOnUse"><stop offset="0" stop-color="#fff"/><stop offset="1" stop-color="#a6cce8"/></linearGradient><linearGradient id="k" x1="13.861" y1="30.253" x2="16.325" y2="35.379" gradientTransform="matrix(1,0,0,1,0,0)" xlink:href="#f"/><linearGradient id="l" x1="38.214" y1="11.668" x2="52.007" y2="26.696" gradientUnits="userSpaceOnUse"><stop offset="0" stop-color="#fff"/><stop offset=".17" stop-color="#d5e7f2"/><stop offset=".579" stop-color="#75b1d5"/><stop offset=".864" stop-color="#398fc3"/><stop offset="1" stop-color="#2282bd"/></linearGradient><linearGradient id="m" x1="38.646" y1="8.792" x2="50.842" y2="13.838" xlink:href="#g"/><linearGradient id="n" x1="28.871" y1="11.609" x2="42.49" y2="17.244" xlink:href="#g"/><linearGradient id="o" x1="12.025" y1="24.254" x2="46.926" y2="38.695" xlink:href="#g"/><linearGradient id="p" x1="19.094" y1="16.302" x2="30.017" y2="39.022" gradientTransform="matrix(1,0,0,1,0,0)" xlink:href="#f"/><linearGradient id="q" x1="46.011" y1="47.528" x2="24.76" y2="14.462" xlink:href="#l"/><linearGradient id="r" x1="39.717" y1="44.199" x2="39.521" y2="19.034" gradientTransform="matrix(1,0,0,1,0,0)" xlink:href="#f"/><linearGradient id="s" x1="18.27" y1="28.575" x2="30.958" y2="42.399" gradientUnits="userSpaceOnUse"><stop offset="0" stop-color="#fff"/><stop offset=".14" stop-color="#e6f1f7"/><stop offset=".436" stop-color="#a7cde4"/><stop offset=".862" stop-color="#4395c7"/><stop offset="1" stop-color="#2282bd"/></linearGradient><linearGradient id="t" x1="38.495" y1="32.423" x2="46.687" y2="41.349" xlink:href="#l"/><linearGradient id="u" x1="15.394" y1="38.683" x2="20.546" y2="40.815" xlink:href="#j"/><linearGradient id="v" x1="1.05" y1="21.786" x2="4.749" y2="29.48" gradientTransform="matrix(1,0,0,1,0,0)" xlink:href="#f"/><linearGradient id="w" x1="14.149" y1="21.01" x2="17.848" y2="28.704" gradientTransform="matrix(1,0,0,1,0,0)" xlink:href="#f"/><linearGradient id="x" x1="-11.691" y1="-4.298" x2="-8.599" y2="2.132" gradientTransform="translate(12.59 22.827) rotate(2.537)" xlink:href="#f"/><linearGradient id="y" x1="25.388" y1="540.829" x2="28.664" y2="547.644" gradientTransform="translate(12.59 566.629) rotate(-2.537) scale(1 -1)" xlink:href="#f"/></defs><g id="c"><g id="d"><path class="aa" d="M27.695,46.147c-1.424,0-2.686-.863-3.538-2.37l-4.256.247-2.229.262c-.222.092-.458.139-.701.139-.055,0-14.003-1.264-14.003-1.264-.955-.085-1.688-.889-1.688-1.848v-3.127c0-.71.399-1.328.985-1.639v-5.446c-.119-.192-.207-.407-.252-.639l-.88-4.582-.053-.023c-.699-.324-1.128-1.047-1.074-1.816l.275-3.947c.038-.546.318-1.049.761-1.37.32-.234.703-.356,1.091-.356.055,0,.224.006.252.006.207,0,.413.036.616.111l.313.117.573.141.006-.047c.092-.665.533-1.23,1.157-1.477l13.807-5.454c.22-.085.45-.13.682-.13.222,0,.445.04.656.121l13.739,5.198-3.702-8.992c-.362-.88-.002-1.891.836-2.342.279-.149.58-.222.878-.222.597,0,1.179.288,1.537.812l3.38,4.964c1.059-3.176,3.056-6.181,5.65-8.321,2.264-1.865,4.689-2.852,7.014-2.852,3.178,0,5.71,1.878,6.778,5.022,1.697,4.996-.68,12.015-5.426,16.29.303.931.633,1.771.955,2.415l3.581,1.353c.723.275,1.2.966,1.2,1.737v13.328c0,.983-.767,1.797-1.75,1.852l-7.488.435c-.612,1.345-1.635,2.136-2.845,2.136-1.119,0-2.065-.656-2.686-1.816l-10.397.603c-.842,1.771-2.189,2.792-3.753,2.792Z"/><polygon class="ag" points="8.026 22.023 2.348 19.912 2.97 20.623 7.809 22.38 8.026 22.023"/><polygon class="ao" points="17.592 41.987 4.119 40.979 4.119 30.468 5.732 18.632 19.54 13.178 17.592 30.152 17.592 41.987"/><polygon class="am" points="17.145 28.281 4.703 30.098 6.076 20.214 18.807 15.045 17.145 28.281"/><polygon class="al" points="7.906 34.105 5.187 34.351 5.187 31.85 7.906 31.317 7.906 34.105"/><polygon class="ai" points="16.971 42.256 3.134 41 3.134 37.874 16.971 37.874 16.971 42.256"/><polygon class="ar" points="16.004 33.245 12.978 33.492 13.057 30.332 16.083 29.799 16.004 33.245"/><path class="at" d="M51.572,26.048c-1.966-.873-4.257-10.244-3.165-9.37.329.263-5.931,5.728-5.931,5.728l9.096,3.641Z"/><path class="an" d="M49.146,20.043c-4.488,3.702-9.348,3.105-10.854-1.333-1.506-4.438.912-11.036,5.4-14.737s9.348-3.105,10.854,1.333c1.506,4.438-.912,11.036-5.4,14.737Z"/><polygon class="as" points="37.845 21.263 31.947 6.941 31.947 6.941 31.947 6.941 43.174 23.421 37.845 21.263"/><polygon class="ap" points="17.592 41.987 54.756 39.832 54.756 26.505 19.54 13.178 17.592 30.152 17.592 41.987"/><polygon class="aq" points="28.104 29.799 17.592 30.152 19.351 14.819 28.104 18.067 28.104 29.799"/><polygon class="aj" points="37.56 38.21 31.947 38.302 31.947 19.312 37.56 21.719 37.56 38.21"/><polygon class="ak" points="41.649 38.099 37.56 38.21 37.56 21.719 41.649 21.334 41.649 38.099"/><ellipse class="ah" cx="27.695" cy="38.843" rx="2.791" ry="5.136"/><ellipse class="af" cx="44.53" cy="38.999" rx="1.607" ry="3.399"/><polygon class="ae" points="20.285 41.802 17.008 42.183 17.008 37.874 20.285 37.874 20.285 41.802"/><polygon class="z" points="2.693 23.85 3.833 29.799 4.119 28.898 3.111 23.85 2.693 23.85"/><polygon class="ad" points="15.792 23.073 16.932 29.023 17.218 28.122 16.21 23.073 15.792 23.073"/><polygon class="ac" points="3.539 24.633 1.857 23.859 2.131 19.912 3.829 20.327 3.539 24.633"/><polygon class="ab" points="16.971 18.352 15.195 17.767 15.632 23.421 16.911 23.109 16.971 18.352"/></g></g></svg>