<?xml version="1.0" encoding="UTF-8"?><svg id="b" xmlns="http://www.w3.org/2000/svg" xmlns:xlink="http://www.w3.org/1999/xlink" viewBox="0 0 74.287 49.231"><defs><style>.i{fill:#fff;}.i,.j,.k,.l,.m{stroke-width:0px;}.j{fill:url(#e);}.k{fill:url(#f);}.l{fill:url(#h);}.m{fill:url(#g);}</style><linearGradient id="e" x1="-472.837" y1="-260.796" x2="-466.717" y2="-258.264" gradientTransform="translate(-216.87 497.623) rotate(90)" gradientUnits="userSpaceOnUse"><stop offset="0" stop-color="#fff"/><stop offset=".066" stop-color="#eef5fa"/><stop offset=".195" stop-color="#d4e6f3"/><stop offset=".337" stop-color="#bfdaee"/><stop offset=".497" stop-color="#b1d2ea"/><stop offset=".689" stop-color="#a8cde8"/><stop offset="1" stop-color="#a6cce8"/></linearGradient><linearGradient id="f" x1="45.885" y1="7.887" x2="64.468" y2="15.576" gradientTransform="matrix(1,0,0,1,0,0)" xlink:href="#e"/><linearGradient id="g" x1="-1029.471" y1="677.685" x2="-1007.986" y2="686.574" gradientTransform="translate(-998.002 719.508) rotate(-180)" xlink:href="#e"/><linearGradient id="h" x1="37.577" y1="17.272" x2="38.129" y2="26.706" gradientTransform="matrix(1,0,0,1,0,0)" xlink:href="#e"/></defs><g id="c"><g id="d"><path class="i" d="M73.613,5.58l-6.24-5.154c-.342-.283-.762-.426-1.182-.426-.386,0-.772.119-1.099.36l-23.351,17.162c-.432.318-.699.807-.744,1.339-.435-.423-.751-.734-.839-.821-.228-.239-.524-.469-.879-.742-.553-.488-1.444-1.136-2.788-1.136-.759,0-1.551.2-2.567.648-2.451,1.078-4.065,3.417-3.755,5.435.126.824.611,1.592,1.103,2.143-.141.029-.285.031-.42.095L1.063,38.552c-.494.232-.861.674-1.001,1.202-.141.529-.04,1.091.273,1.539l5,7.144c.36.516.936.793,1.522.793.339,0,.681-.094.988-.286l27.488-17.299c.09.564.266,1.102.603,1.576.762,1.07,2.048,1.66,3.621,1.66,1.775,0,3.85-.75,5.694-2.061,3.634-2.585,5.112-6.311,3.437-8.668-.129-.182-.293-.329-.452-.483l25.149-15.068c.517-.309.851-.85.897-1.451.045-.603-.205-1.187-.669-1.571Z"/><ellipse class="j" cx="42.312" cy="28.687" rx="5.967" ry="3.216" transform="translate(-8.795 29.826) rotate(-35.414)"/><polygon class="k" points="42.841 19.018 46.473 22.563 72.432 7.01 66.191 1.856 42.841 19.018"/><polygon class="m" points="34.589 29.92 31.644 26.161 1.856 40.229 6.856 47.374 34.589 29.92"/><path class="l" d="M43.829,24.045c-2.353-2.082-5.005-4.713-5.005-4.713-.003-.055-.732-.608-.772-.644-.916-.807-1.726-.908-3.38-.18s-2.849,2.276-2.668,3.457c.069.455.453,1.031.836,1.387,0,0,3.734,4.681,4.296,5.334.772-2.661,4.778-4.641,6.694-4.641Z"/></g></g></svg>